<?xml version="1.0" standalone="no"?>
<!DOCTYPE svg PUBLIC "-//W3C//DTD SVG 20010904//EN"
 "http://www.w3.org/TR/2001/REC-SVG-20010904/DTD/svg10.dtd">
<svg version="1.0" xmlns="http://www.w3.org/2000/svg"
 width="2047.000000pt" height="582.000000pt" viewBox="0 0 2047.000000 582.000000"
 preserveAspectRatio="xMidYMid meet">

<g transform="translate(0.000000,582.000000) scale(0.100000,-0.100000)"
fill="#000000" stroke="none">
<path d="M0 5743 l0 -76 2873 6 c1579 4 3167 9 3527 12 360 3 1281 10 2045 17
1611 13 1963 13 3635 -1 679 -6 1692 -13 2250 -16 558 -3 1643 -10 2410 -15
767 -5 1920 -12 2563 -16 l1167 -7 0 80 0 80 -712 6 c-392 4 -4998 7 -10235 7
l-9523 0 0 -77z"/>
<path d="M8590 5640 c-437 -4 -1686 -10 -2775 -14 -1089 -4 -2254 -9 -2590
-11 -335 -3 -1198 -5 -1917 -5 l-1308 0 0 -171 0 -170 22 7 c51 16 191 95 228
128 75 67 187 105 321 109 102 3 107 -10 32 -82 -107 -105 -258 -165 -452
-181 -64 -5 -122 -10 -128 -10 -7 0 -13 -6 -13 -14 0 -23 64 -28 336 -24 l251
3 34 36 c23 24 47 38 74 43 54 10 81 26 161 92 88 72 185 118 298 139 96 18
206 13 206 -9 0 -19 -79 -95 -137 -132 -99 -64 -210 -96 -403 -114 -134 -13
-150 -17 -150 -35 0 -22 82 -27 356 -23 l251 3 32 33 c18 17 39 32 47 32 29 0
101 42 174 101 109 88 192 126 313 140 99 11 181 6 193 -12 9 -15 -84 -101
-155 -143 -96 -56 -171 -77 -345 -97 -88 -10 -163 -22 -169 -28 -26 -26 10
-31 241 -30 294 0 367 7 387 37 9 12 44 35 79 51 34 17 96 55 137 84 142 104
253 140 409 135 78 -3 85 -5 88 -24 5 -38 -95 -111 -229 -165 -85 -35 -184
-55 -311 -64 -92 -6 -143 -23 -125 -42 5 -4 157 -9 338 -11 l330 -3 -3 -22 -3
-22 -329 -5 c-246 -4 -330 -8 -333 -17 -6 -16 10 -19 192 -38 83 -9 168 -21
190 -26 71 -19 188 -88 254 -150 58 -56 62 -62 47 -77 -12 -12 -35 -16 -99
-15 -151 2 -280 49 -402 147 -38 31 -101 72 -138 92 -38 20 -83 49 -102 65
l-33 29 -254 0 c-275 0 -348 -5 -348 -25 0 -21 57 -35 172 -45 126 -10 220
-32 304 -70 65 -30 175 -113 212 -161 l23 -29 -73 0 c-171 0 -300 39 -398 120
-76 63 -153 109 -209 126 -32 9 -67 29 -85 47 l-31 31 -272 4 c-277 5 -347 0
-340 -21 5 -17 34 -24 181 -42 220 -28 321 -63 433 -147 50 -38 93 -92 93
-117 0 -16 -126 -14 -224 4 -92 16 -170 54 -271 130 -38 29 -109 71 -156 93
-64 29 -91 48 -105 71 l-18 31 -298 0 c-253 0 -298 -2 -298 -14 0 -8 4 -18 10
-21 5 -3 83 -17 172 -30 198 -29 277 -53 357 -106 64 -43 131 -115 131 -142 0
-21 -20 -24 -125 -15 -175 16 -251 46 -400 158 -84 63 -126 90 -139 90 -3 0
-6 -76 -6 -170 l0 -169 1857 -2 c3229 -2 5262 1 6448 8 1521 10 2701 9 4530
-6 831 -6 2151 -16 2935 -21 784 -5 2160 -15 3058 -21 898 -6 1635 -9 1638 -6
2 2 3 77 2 166 l-3 161 -69 -55 c-170 -135 -258 -170 -453 -182 -99 -6 -103
-5 -103 14 0 50 132 167 230 204 54 20 315 69 371 69 25 0 29 4 29 29 l0 29
-275 1 -275 2 -21 -35 c-14 -25 -38 -43 -77 -61 -96 -44 -121 -59 -170 -97
-79 -62 -184 -121 -242 -135 -65 -16 -241 -29 -264 -20 -15 6 -15 9 -2 36 23
44 120 126 190 159 85 41 321 92 428 92 43 0 90 19 85 34 -4 13 -411 28 -539
19 -76 -5 -89 -8 -102 -28 -8 -13 -37 -31 -63 -40 -26 -9 -61 -22 -78 -28 -16
-6 -73 -44 -125 -83 -156 -117 -199 -133 -411 -149 -55 -5 -89 -3 -93 3 -3 6
28 42 70 81 122 114 252 164 469 181 118 9 165 21 165 43 0 22 -68 27 -355 27
l-262 0 -24 -26 c-13 -14 -46 -37 -74 -51 -64 -33 -128 -76 -185 -126 -93 -81
-232 -128 -384 -129 -76 -1 -91 1 -103 17 -12 17 -9 23 24 58 56 58 173 132
245 156 56 18 279 51 350 51 15 0 39 5 54 10 21 8 25 13 15 23 -9 9 -102 13
-339 17 l-327 5 -3 23 -3 22 330 0 c326 0 362 3 333 32 -6 6 -67 17 -137 24
-160 17 -229 34 -340 88 -137 67 -220 150 -169 170 29 11 144 6 222 -10 98
-20 157 -48 263 -125 46 -33 114 -76 151 -96 37 -19 70 -43 73 -53 8 -26 43
-30 330 -37 256 -6 315 -3 315 17 0 18 -44 28 -171 41 -211 20 -355 79 -474
192 -26 25 -45 52 -43 59 6 18 161 23 249 8 75 -13 183 -70 259 -138 58 -51
139 -102 162 -102 10 0 37 -17 59 -37 l42 -38 279 -4 c274 -3 328 0 328 19 0
18 -36 28 -145 39 -239 25 -384 80 -492 185 -35 34 -63 67 -63 73 0 34 176 26
299 -12 87 -28 141 -60 224 -132 60 -53 112 -83 144 -83 25 0 82 -36 90 -58 4
-9 11 -20 17 -24 6 -4 136 -8 289 -8 263 0 277 1 277 19 0 16 -11 19 -90 25
-119 9 -228 37 -320 83 -111 56 -231 169 -199 188 21 13 146 5 223 -15 77 -20
167 -69 202 -111 11 -13 57 -43 102 -66 l82 -43 0 170 0 170 -402 0 c-222 1
-448 3 -503 5 -55 2 -824 6 -1710 10 -885 3 -1657 7 -1715 10 -58 3 -796 7
-1640 10 -844 4 -2016 10 -2605 15 -1160 10 -2064 10 -3305 0z m606 -64 c18
-14 16 -17 -42 -74 -38 -37 -88 -73 -135 -96 -104 -51 -377 -128 -451 -126
-45 1 -58 -2 -58 -13 0 -8 7 -18 16 -21 21 -8 508 -8 557 0 28 5 42 14 52 34
10 19 31 33 72 48 33 12 108 55 169 96 127 85 188 117 263 140 61 18 216 22
226 6 9 -15 -31 -75 -73 -108 -93 -74 -214 -116 -446 -157 -232 -41 -208 -49
177 -55 305 -5 312 -5 309 -25 -2 -11 -6 -22 -9 -25 -2 -3 -145 -7 -316 -10
-283 -5 -312 -7 -315 -22 -4 -21 20 -25 178 -32 205 -9 339 -59 458 -170 45
-42 62 -65 60 -80 -3 -20 -9 -21 -123 -20 -110 0 -124 3 -170 27 -27 15 -56
27 -64 27 -17 0 -99 50 -171 104 -30 22 -91 59 -135 82 -49 25 -84 49 -90 63
l-10 23 -307 -4 c-273 -3 -332 -7 -317 -22 2 -3 76 -17 164 -31 209 -35 327
-73 408 -135 60 -46 117 -108 117 -129 0 -17 -55 -22 -148 -11 -144 16 -188
37 -402 190 -30 21 -82 49 -114 61 -33 13 -73 35 -90 49 l-31 26 -292 -6
c-262 -5 -317 -9 -302 -25 3 -2 59 -9 124 -14 167 -14 267 -36 360 -81 89 -43
153 -93 185 -145 34 -55 23 -65 -67 -65 -178 0 -264 30 -388 134 -47 40 -115
84 -165 108 -47 23 -97 52 -112 66 l-27 25 -313 -7 c-286 -6 -345 -12 -325
-33 4 -3 78 -10 165 -14 265 -13 389 -59 495 -184 31 -37 57 -75 57 -83 0 -23
-154 -9 -263 23 -106 31 -166 60 -268 131 -42 30 -108 70 -147 89 -78 38 -86
50 -80 124 3 38 7 46 38 62 19 10 51 24 70 30 19 7 98 56 175 108 77 52 162
103 190 114 57 22 250 35 274 18 20 -13 -2 -45 -74 -108 -132 -114 -260 -166
-453 -183 -142 -13 -165 -17 -159 -33 3 -9 75 -11 298 -10 162 2 304 5 316 8
12 3 25 14 28 25 4 13 37 35 88 60 45 21 115 64 156 95 137 104 233 140 409
151 116 8 120 5 71 -57 -32 -40 -129 -108 -221 -155 -53 -27 -224 -67 -338
-79 -70 -7 -104 -20 -94 -37 5 -7 94 -8 293 -3 l286 7 32 28 c17 15 49 33 70
40 68 23 136 62 199 115 117 99 203 139 339 158 71 10 142 6 161 -7z m2334
-14 c71 -20 138 -60 245 -146 43 -34 103 -70 155 -92 47 -19 96 -46 110 -58
25 -23 30 -24 312 -30 278 -6 327 -2 280 23 -10 6 -59 15 -108 21 -124 15
-260 48 -317 77 -88 44 -183 110 -215 149 -53 63 -47 68 71 61 56 -4 128 -13
159 -22 78 -20 180 -73 253 -130 33 -26 99 -67 147 -91 54 -27 89 -51 93 -64
3 -11 16 -22 28 -25 12 -3 155 -7 317 -8 257 -2 295 0 295 13 0 12 -22 17
-110 23 -210 15 -352 67 -481 175 -74 63 -109 106 -99 122 10 16 174 12 240
-5 64 -17 137 -58 275 -155 47 -33 110 -69 140 -81 94 -35 100 -41 100 -108 0
-66 -4 -72 -80 -107 -27 -12 -96 -55 -154 -94 -120 -81 -193 -114 -315 -141
-104 -22 -211 -26 -211 -6 0 8 26 45 58 82 104 124 239 173 499 183 141 5 182
13 154 31 -7 5 -153 12 -323 16 l-309 7 -27 -24 c-15 -14 -65 -43 -112 -66
-50 -24 -118 -68 -165 -108 -123 -104 -210 -134 -388 -134 -90 0 -101 10 -67
65 78 126 296 214 569 229 92 5 111 9 97 23 -4 4 -138 10 -299 13 l-292 6 -30
-25 c-17 -14 -62 -38 -100 -54 -40 -15 -111 -57 -165 -98 -107 -79 -190 -122
-268 -138 -67 -14 -219 -14 -227 -1 -4 6 24 41 62 79 107 107 216 149 490 191
76 11 139 23 142 25 15 16 -44 20 -319 23 l-308 4 -7 -22 c-4 -14 -29 -32 -71
-50 -35 -16 -105 -59 -156 -96 -51 -37 -118 -78 -148 -91 -30 -14 -73 -34 -94
-45 -55 -30 -272 -40 -282 -14 -23 60 175 205 329 241 35 8 129 19 207 24 77
4 146 13 152 19 28 28 -8 32 -290 33 -158 1 -300 4 -317 8 -21 4 -31 13 -33
29 l-3 22 298 1 c164 1 309 4 323 8 24 7 24 8 5 18 -11 6 -81 21 -155 33 -239
39 -391 102 -468 196 -54 65 -47 74 56 74 141 0 197 -21 393 -149 66 -44 147
-89 181 -102 47 -17 64 -29 71 -49 10 -25 16 -28 85 -34 112 -9 515 -7 531 3
26 16 0 32 -48 30 -26 -1 -51 0 -57 3 -5 3 -56 17 -114 32 -227 58 -314 96
-398 171 -63 57 -80 84 -61 97 21 14 195 1 269 -20z m-1295 -2 c3 -5 1 -10 -4
-10 -6 0 -11 5 -11 10 0 6 2 10 4 10 3 0 8 -4 11 -10z m-75 -10 c24 -13 43
-72 35 -108 -4 -20 0 -36 13 -53 30 -36 49 -13 54 66 3 44 10 70 22 84 39 43
121 16 193 -62 51 -56 63 -78 65 -122 2 -56 -28 -80 -104 -81 -47 -1 -65 -6
-75 -20 -27 -37 -11 -56 62 -69 118 -22 142 -97 61 -192 -41 -47 -90 -73 -139
-73 -53 0 -76 25 -87 94 -5 33 -16 66 -23 74 -12 11 -16 9 -25 -15 -6 -15 -13
-49 -17 -75 -7 -57 -32 -78 -88 -78 -49 0 -85 19 -130 69 -44 49 -64 108 -48
139 14 27 54 48 106 57 77 14 93 36 54 71 -15 14 -36 19 -76 19 -48 0 -58 4
-79 28 -29 34 -29 49 -5 103 45 100 169 177 231 144z m-5107 -15 c97 -17 177
-54 301 -139 56 -38 120 -72 151 -81 60 -18 101 -46 110 -75 6 -19 16 -20 288
-19 155 0 299 3 320 7 74 14 42 27 -92 39 -172 16 -263 39 -396 103 -102 49
-215 135 -215 163 0 14 205 2 292 -17 77 -17 204 -78 284 -137 31 -22 87 -55
124 -71 73 -32 90 -55 90 -119 0 -53 -18 -79 -67 -101 -100 -42 -131 -60 -221
-128 -118 -88 -182 -110 -344 -117 -87 -4 -118 -3 -118 6 0 21 42 70 99 115
114 89 223 127 427 151 139 16 184 29 167 46 -6 6 -134 9 -322 7 l-313 -3 -20
-29 c-12 -15 -41 -37 -66 -47 -25 -11 -89 -49 -143 -85 -54 -35 -129 -78 -168
-93 -140 -58 -337 -88 -349 -54 -8 26 94 108 199 160 111 55 168 72 319 98
114 19 130 24 130 36 0 10 -528 13 -580 3 -23 -5 -35 -15 -41 -34 -7 -20 -29
-36 -89 -64 -43 -21 -109 -60 -147 -88 -90 -66 -131 -86 -217 -108 -100 -25
-251 -37 -261 -19 -10 15 48 70 135 129 119 81 209 111 398 135 96 12 135 25
120 41 -4 3 -138 5 -300 5 l-293 -1 -20 -24 c-11 -14 -40 -34 -65 -46 -25 -12
-85 -53 -135 -90 -107 -80 -129 -92 -231 -125 -56 -18 -110 -27 -196 -32 -147
-8 -150 -1 -39 94 130 113 205 142 441 169 127 15 176 31 156 51 -4 5 -151 6
-327 5 -312 -4 -319 -3 -319 16 0 27 32 30 365 32 252 0 313 6 293 25 -3 3
-68 13 -144 21 -77 8 -168 22 -203 30 -125 28 -302 130 -347 199 -71 108 270
46 484 -89 48 -29 123 -72 167 -94 44 -22 91 -52 104 -66 l24 -26 251 0 c275
0 356 6 356 25 0 20 -21 24 -173 35 -164 12 -233 27 -317 70 -89 45 -229 177
-214 201 8 14 129 10 212 -7 96 -19 177 -58 278 -130 43 -31 115 -73 161 -94
58 -27 86 -46 95 -64 l11 -26 267 0 c286 0 360 5 360 25 0 19 -22 24 -158 36
-144 12 -250 37 -339 79 -88 40 -215 163 -198 190 9 14 116 12 208 -5z m10575
-6 c6 -31 -102 -134 -186 -177 -98 -51 -179 -70 -353 -86 -134 -12 -175 -24
-153 -46 5 -5 143 -12 314 -16 l305 -7 13 27 c9 20 37 39 105 72 50 25 136 76
191 113 71 50 118 75 170 89 131 39 254 53 285 33 20 -13 3 -38 -73 -109 -128
-119 -201 -147 -437 -166 -162 -13 -213 -26 -191 -48 5 -5 143 -12 306 -15
l297 -6 32 30 c18 17 66 48 107 68 41 20 118 63 170 96 133 81 285 132 400
133 73 1 85 -1 88 -16 13 -64 -199 -200 -368 -237 -25 -6 -110 -17 -189 -25
-79 -9 -146 -18 -149 -21 -22 -21 39 -27 342 -32 l326 -6 0 -23 0 -22 -330 5
c-294 5 -330 4 -330 -9 0 -22 18 -27 155 -44 241 -29 333 -66 456 -182 44 -41
79 -79 79 -85 0 -6 -39 -8 -117 -4 -183 9 -285 46 -427 156 -43 34 -104 75
-135 92 -31 17 -65 42 -76 54 -20 23 -22 23 -317 28 -287 5 -327 2 -301 -24 5
-5 58 -16 118 -24 133 -19 239 -46 308 -81 110 -56 247 -170 232 -194 -5 -8
-26 -10 -69 -5 -206 21 -271 43 -408 138 -51 35 -126 81 -165 101 -53 26 -74
43 -79 60 -4 17 -15 27 -32 30 -59 11 -580 18 -586 8 -10 -16 3 -20 162 -51
205 -40 372 -117 451 -207 52 -59 44 -68 -51 -61 -139 9 -332 83 -439 168 -20
16 -73 47 -116 69 -51 25 -84 48 -91 64 l-11 24 -276 7 c-251 7 -359 4 -374
-10 -15 -16 31 -29 141 -41 175 -20 258 -40 347 -85 85 -42 211 -152 211 -183
0 -18 -7 -19 -117 -13 -170 9 -230 31 -363 133 -41 31 -116 76 -166 100 -50
23 -94 50 -98 59 -9 25 -7 100 3 128 7 18 27 31 73 49 35 14 95 47 133 75 79
57 153 97 235 125 57 20 324 48 336 35 12 -12 -69 -91 -131 -129 -141 -87
-300 -134 -482 -144 -110 -7 -145 -15 -129 -31 4 -4 148 -10 319 -13 336 -6
320 -8 352 44 6 9 45 29 88 45 43 16 117 56 165 89 143 97 207 124 336 142 95
13 160 8 164 -11z m-9356 -6 c37 -33 8 -83 -48 -83 -48 0 -62 30 -34 70 24 34
54 38 82 13z m333 -6 c8 -13 18 -46 21 -73 9 -69 20 -86 52 -82 23 3 30 12 47
62 13 37 30 66 47 79 25 18 31 19 69 8 51 -16 124 -82 139 -127 25 -74 -14
-126 -102 -139 -26 -4 -52 -13 -58 -20 -19 -23 6 -53 53 -66 95 -26 118 -45
109 -94 -4 -28 -69 -112 -114 -148 -81 -65 -153 -29 -150 74 1 57 -11 89 -33
89 -25 0 -45 -42 -45 -97 0 -48 -3 -54 -30 -68 -44 -23 -82 -18 -133 16 -88
58 -134 138 -108 188 10 19 40 31 114 46 20 4 27 11 27 28 0 31 -18 47 -51 47
-101 0 -137 72 -80 161 75 117 187 174 226 116z m90 -7 c0 -13 -5 -25 -12 -27
-13 -5 -27 32 -18 47 11 18 30 5 30 -20z m7103 3 c-4 -33 -24 -41 -33 -14 -8
25 1 41 21 41 11 0 14 -8 12 -27z m185 -4 c70 -46 137 -141 137 -193 0 -33
-46 -70 -95 -75 -34 -4 -52 -12 -62 -28 -13 -19 -12 -24 6 -42 13 -13 34 -21
56 -21 68 0 97 -69 56 -136 -23 -37 -96 -99 -136 -114 -35 -13 -75 -5 -104 21
-16 15 -21 32 -21 72 0 63 -10 80 -41 75 -22 -3 -24 -8 -29 -74 -6 -83 -26
-114 -72 -114 -42 0 -80 23 -126 75 -95 108 -93 177 4 192 60 9 94 30 94 58 0
25 -8 29 -77 40 -95 15 -123 104 -60 186 42 55 114 94 157 84 34 -8 70 -54 70
-92 0 -12 11 -35 24 -50 l25 -28 21 21 c14 14 24 41 29 77 14 100 60 122 144
66z m287 9 c22 -24 27 -63 8 -74 -17 -11 -69 -6 -85 8 -19 15 -16 65 5 77 27
16 50 13 72 -11z m-7142 0 c19 -19 14 -46 -12 -63 -29 -19 -54 -10 -62 21 -11
43 42 74 74 42z m6270 0 c19 -19 14 -56 -9 -68 -44 -24 -94 44 -51 69 23 14
45 14 60 -1z m-10288 -49 c0 -16 -4 -29 -10 -29 -12 0 -24 45 -15 60 11 18 25
1 25 -31z m14294 -17 c-4 -17 -10 -29 -15 -26 -11 6 -12 58 -2 67 13 14 23
-10 17 -41z m-14136 12 c86 -43 171 -156 158 -209 -6 -23 -59 -45 -109 -45
-25 0 -57 -23 -57 -41 0 -18 41 -49 65 -49 36 0 82 -26 90 -51 24 -76 -89
-209 -179 -209 -34 0 -72 49 -85 112 -13 58 -26 78 -51 78 -23 0 -40 -41 -40
-95 0 -61 -20 -79 -82 -73 -65 7 -121 47 -153 111 -14 28 -25 59 -25 69 0 31
45 68 82 68 38 0 78 24 78 46 0 17 -28 30 -84 39 -44 7 -86 44 -86 76 0 70 77
152 167 179 36 11 46 11 68 -4 22 -15 25 -23 25 -78 0 -88 41 -126 84 -79 15
16 17 30 11 84 -6 52 -4 67 10 80 23 24 53 21 113 -9z m14067 -8 c13 -19 15
-38 9 -85 -8 -70 3 -91 47 -91 37 0 49 24 49 98 0 69 13 86 65 84 43 -2 90
-25 133 -66 93 -86 79 -183 -27 -200 -53 -8 -81 -22 -81 -41 0 -21 41 -45 78
-45 39 0 82 -38 82 -72 -1 -62 -63 -144 -132 -172 -47 -20 -78 -20 -106 0 -18
12 -22 25 -22 68 0 65 -27 108 -56 90 -18 -11 -24 -25 -44 -102 -14 -56 -41
-82 -83 -82 -74 0 -177 105 -177 180 0 47 24 70 87 81 50 10 63 21 63 56 0 28
-13 35 -78 44 -29 4 -60 13 -68 19 -48 41 41 182 151 238 55 29 91 28 110 -2z
m-7381 -225 c3 -5 -1 -12 -10 -15 -27 -10 -44 -7 -44 9 0 16 45 21 54 6z m601
-2 c11 -16 -1 -22 -30 -15 -14 4 -23 11 -20 16 8 13 42 13 50 -1z m-3551 -18
c8 -13 -21 -34 -39 -27 -25 9 -18 36 9 36 14 0 27 -4 30 -9z m6512 -2 c3 -6 1
-16 -5 -22 -13 -13 -65 8 -56 23 8 13 52 13 61 -1z m-7136 -7 c0 -14 -11 -21
-26 -15 -21 8 -17 23 6 23 11 0 20 -4 20 -8z m7740 -7 c0 -8 -6 -15 -14 -15
-20 0 -29 17 -14 23 22 9 28 7 28 -8z m-11299 -6 c24 -13 16 -29 -16 -29 -29
0 -43 19 -24 31 18 11 17 11 40 -2z m629 -34 c0 -21 -49 -19 -57 1 -3 9 0 20
8 24 17 11 49 -6 49 -25z m14254 19 c28 -11 18 -34 -13 -34 -36 0 -48 15 -24
29 22 13 18 12 37 5z m-609 -14 c8 -14 -13 -40 -32 -40 -7 0 -16 7 -20 16 -10
26 38 47 52 24z m-9971 -221 c30 -14 38 -41 19 -68 -17 -25 -50 -27 -75 -4
-24 22 -23 49 4 67 27 19 22 19 52 5z m3121 -9 c8 -24 -1 -40 -21 -40 -8 0
-14 10 -14 23 0 40 24 51 35 17z m-3549 -14 c7 -29 -1 -46 -21 -46 -21 0 -26
15 -15 44 12 33 28 33 36 2z m6707 9 c24 -17 15 -49 -19 -71 -22 -15 -26 -15
-49 0 -27 18 -33 54 -13 74 16 16 59 15 81 -3z m407 -31 c0 -29 -12 -37 -34
-21 -14 10 -15 18 -6 41 9 23 13 26 25 16 8 -7 15 -23 15 -36z m-7539 26 c37
-20 15 -87 -27 -78 -9 2 -23 13 -31 25 -13 19 -12 24 6 42 24 24 26 24 52 11z
m7979 -15 c17 -20 5 -61 -19 -68 -23 -6 -61 18 -61 38 0 37 56 58 80 30z
m-11132 -41 c-4 -35 -32 -39 -36 -6 -4 27 17 57 30 44 5 -5 8 -22 6 -38z
m14287 -24 c0 -18 -6 -35 -13 -38 -17 -5 -32 39 -20 61 14 28 33 15 33 -23z"/>
<path d="M10181 5274 c-12 -15 -21 -37 -21 -50 0 -29 36 -64 66 -64 31 0 74
37 74 64 0 36 -37 76 -70 76 -19 0 -36 -9 -49 -26z"/>
<path d="M6621 5249 c-12 -12 -20 -28 -17 -36 3 -8 6 -19 6 -24 0 -21 42 -49
73 -49 65 0 95 55 57 103 -27 35 -85 37 -119 6z"/>
<path d="M13729 5249 c-28 -28 -22 -76 12 -102 24 -17 31 -18 63 -7 39 13 56
35 56 74 0 52 -90 76 -131 35z"/>
<path d="M3062 5224 c-31 -22 -30 -77 3 -109 32 -33 68 -32 94 1 29 37 27 78
-5 103 -32 25 -61 27 -92 5z"/>
<path d="M17332 5204 c-48 -34 -14 -134 47 -134 57 0 95 95 53 133 -23 21 -71
22 -100 1z"/>
<path d="M9235 4700 c-330 -4 -1021 -10 -1535 -14 -1218 -9 -7304 -9 -7527 0
l-173 7 0 -85 0 -86 218 -7 c220 -8 7918 1 8092 9 275 13 2290 17 3300 7 624
-6 1623 -16 2220 -21 597 -6 1544 -15 2105 -20 561 -6 1484 -14 2050 -20 567
-5 1302 -12 1634 -15 332 -3 659 -3 727 1 l124 7 0 83 0 84 -217 0 c-352 0
-3109 19 -5153 35 -1983 15 -2519 20 -3935 35 -922 10 -1013 10 -1930 0z"/>
<path d="M9492 4478 c2 -6 40 -24 84 -38 236 -80 422 -225 503 -392 70 -144
84 -216 85 -418 1 -210 -12 -274 -85 -417 -27 -52 -49 -105 -49 -118 0 -38 39
-72 103 -90 32 -9 67 -25 77 -35 20 -20 20 -20 40 0 10 10 45 26 77 35 64 18
103 52 103 90 0 13 -22 66 -49 118 -73 143 -86 207 -85 417 1 202 16 278 84
417 84 172 268 315 503 393 43 14 79 30 80 35 1 6 -273 11 -736 13 -566 2
-738 -1 -735 -10z"/>
<path d="M2612 4463 c-44 -3 -65 -8 -69 -19 -7 -20 12 -41 47 -47 41 -9 88
-55 104 -102 l14 -40 274 -1 c352 -2 559 5 563 20 2 6 6 23 9 38 8 36 60 86
94 90 23 3 27 8 27 33 l0 30 -500 1 c-275 0 -528 -1 -563 -3z"/>
<path d="M8894 4443 c3 -16 10 -64 15 -108 5 -44 14 -91 19 -105 14 -38 -2
-376 -21 -425 -60 -159 -132 -288 -193 -349 -16 -15 -51 -40 -79 -53 -63 -32
-211 -170 -339 -317 -43 -50 -75 -75 -124 -99 -114 -56 -231 -187 -268 -301
-9 -28 -34 -91 -56 -139 -33 -73 -40 -99 -39 -148 1 -61 -10 -75 -30 -37 -16
31 -5 100 32 196 39 103 35 116 -54 166 -36 20 -95 61 -132 90 -69 57 -175
108 -265 127 -40 8 -93 8 -216 -1 -148 -12 -298 -9 -364 6 l-25 5 0 -93 c0
-81 -3 -98 -25 -135 -24 -39 -102 -113 -120 -113 -27 0 -15 28 34 79 30 32 58
71 62 87 4 16 11 35 17 41 26 34 4 118 -49 188 -12 17 -32 62 -45 100 -29 92
-47 128 -104 200 -54 70 -81 119 -125 232 -17 46 -35 85 -40 88 -5 3 1 27 15
53 13 26 40 83 61 126 31 67 53 96 140 182 56 56 114 104 128 108 59 15 129
127 130 207 1 59 -8 68 -45 46 -42 -24 -46 -22 -41 18 2 19 0 35 -5 35 -4 0
-32 -35 -61 -77 -29 -43 -73 -99 -100 -124 -26 -25 -71 -89 -100 -141 -63
-112 -109 -170 -176 -224 -106 -85 -166 -164 -166 -221 0 -35 103 -454 125
-506 7 -18 23 -45 35 -60 12 -15 20 -30 18 -32 -2 -2 -24 9 -48 25 -62 41 -92
44 -185 20 -90 -23 -143 -54 -152 -89 -7 -28 17 -51 53 -51 31 0 182 -115 190
-144 3 -13 0 -42 -6 -65 -14 -52 -35 -56 -27 -5 7 40 -10 91 -37 113 -15 13
-19 13 -27 0 -5 -8 -9 -26 -9 -40 0 -15 -12 -37 -28 -52 -39 -37 -46 -34 -22
10 24 45 25 62 6 108 -10 24 -29 41 -63 59 -27 13 -71 51 -100 84 -59 68 -113
103 -196 127 -63 18 -296 45 -302 35 -2 -4 3 -26 11 -49 8 -24 12 -46 9 -49
-9 -10 -30 20 -59 88 -16 36 -33 74 -38 85 -5 11 -30 44 -56 73 -38 43 -60 58
-115 78 -37 13 -96 42 -129 64 -34 22 -65 40 -70 40 -4 0 -26 25 -48 56 -39
52 -81 82 -88 63 -2 -5 6 -21 17 -35 44 -56 9 -62 -40 -6 -44 50 -65 61 -124
61 -82 1 -176 -68 -161 -117 4 -11 29 -50 56 -87 29 -39 57 -93 70 -133 12
-37 42 -107 66 -157 28 -55 48 -115 55 -155 7 -46 21 -83 48 -125 21 -33 52
-83 69 -111 33 -52 64 -74 106 -74 13 0 52 -19 87 -42 35 -22 93 -54 129 -70
173 -78 231 -113 303 -185 40 -40 83 -92 97 -116 54 -93 158 -235 207 -284 56
-54 168 -123 201 -123 11 0 26 -7 33 -17 8 -9 29 -23 48 -30 25 -11 31 -17 21
-23 -26 -16 48 -63 129 -83 103 -25 261 -27 322 -4 68 25 180 38 236 28 163
-32 234 -43 370 -56 100 -9 168 -21 200 -34 26 -11 118 -34 203 -53 141 -30
169 -33 310 -31 85 1 194 6 241 12 132 15 314 79 444 155 63 37 136 72 170 80
49 13 69 25 108 65 83 87 50 114 -79 64 -10 -3 -6 11 11 43 30 58 49 199 39
284 -3 31 -28 108 -57 175 -27 66 -56 140 -64 164 -15 52 -17 226 -3 302 16
84 79 178 216 319 68 71 128 139 133 153 9 24 -7 184 -28 272 -13 51 -2 99 47
212 22 48 45 113 51 143 7 30 21 85 32 121 23 77 24 144 5 217 -18 66 -58 146
-71 143 -5 -2 -16 -23 -23 -47 -7 -23 -16 -45 -21 -48 -5 -3 -25 19 -45 49
-40 60 -62 72 -52 28z m-4304 -910 c0 -20 -18 -15 -30 6 -15 28 -12 33 10 19
11 -7 20 -18 20 -25z m201 -295 c34 -68 57 -95 85 -102 14 -4 53 -34 85 -67
69 -70 76 -104 33 -144 -44 -41 -58 -33 -23 14 30 41 14 67 -46 73 -27 4 -59
16 -80 32 -29 22 -35 33 -35 64 0 23 -9 51 -24 72 -27 40 -43 100 -27 100 6 0
20 -19 32 -42z m648 -358 c113 -44 210 -128 227 -197 10 -37 -11 -51 -84 -58
-37 -3 -104 -13 -149 -21 -46 -9 -93 -13 -105 -9 -20 6 -138 56 -207 89 -45
21 -73 71 -75 132 -1 47 3 59 22 74 20 17 38 18 170 15 120 -3 158 -8 201 -25z"/>
<path d="M4852 3083 c4 -23 58 -31 58 -10 0 15 -20 27 -47 27 -8 0 -13 -7 -11
-17z"/>
<path d="M5107 2878 c-30 -24 -39 -66 -21 -104 13 -27 32 -42 78 -65 34 -16
85 -43 115 -59 59 -33 103 -38 158 -15 19 8 59 16 87 16 83 2 111 11 114 38 5
31 -78 110 -160 151 -67 33 -131 39 -198 19 -31 -10 -42 -8 -78 10 -47 24 -71
26 -95 9z m267 -54 c9 -3 16 -15 16 -25 0 -16 3 -17 19 -7 29 18 51 -5 51 -53
0 -46 -21 -69 -62 -69 -62 0 -139 79 -122 125 11 27 63 42 98 29z m156 -79 c0
-2 3 -12 6 -22 6 -15 3 -14 -15 5 -12 12 -26 22 -32 22 -6 0 -7 5 -4 10 6 9
45 -4 45 -15z"/>
<path d="M5340 2793 c1 -15 39 -58 45 -51 8 8 -24 58 -36 58 -5 0 -9 -3 -9 -7z"/>
<path d="M5290 2770 c0 -5 7 -10 15 -10 8 0 15 5 15 10 0 6 -7 10 -15 10 -8 0
-15 -4 -15 -10z"/>
<path d="M5416 2771 c-4 -5 -2 -12 3 -15 5 -4 12 -2 15 3 4 5 2 12 -3 15 -5 4
-12 2 -15 -3z"/>
<path d="M5330 2721 c0 -6 5 -13 10 -16 6 -3 10 1 10 9 0 9 -4 16 -10 16 -5 0
-10 -4 -10 -9z"/>
<path d="M5380 2711 c0 -6 5 -13 10 -16 6 -3 10 1 10 9 0 9 -4 16 -10 16 -5 0
-10 -4 -10 -9z"/>
<path d="M5425 2710 c3 -5 8 -10 11 -10 2 0 4 5 4 10 0 6 -5 10 -11 10 -5 0
-7 -4 -4 -10z"/>
<path d="M11400 4438 c-54 -87 -76 -241 -45 -314 8 -20 19 -63 24 -95 6 -33
32 -115 59 -182 58 -144 64 -170 51 -223 -16 -69 -38 -246 -31 -263 3 -9 58
-72 122 -141 206 -222 226 -256 241 -421 15 -158 6 -202 -77 -394 -29 -67 -45
-122 -49 -165 -9 -86 9 -213 40 -275 13 -27 23 -51 21 -53 -2 -2 -27 4 -55 14
-41 13 -54 14 -66 4 -13 -11 -13 -16 3 -42 24 -43 93 -97 133 -105 46 -9 97
-33 207 -97 120 -70 310 -134 442 -148 52 -6 163 -11 245 -12 125 -1 168 3
255 23 185 41 214 49 260 66 25 9 115 23 205 31 88 7 196 21 240 31 97 20 244
20 305 0 126 -42 203 -43 380 -6 58 12 114 53 105 76 -2 8 3 17 13 20 9 4 30
17 45 30 16 13 37 23 48 23 35 0 133 63 194 125 54 54 183 232 215 295 23 46
144 161 207 196 34 19 101 52 150 73 49 21 116 55 148 76 33 21 80 42 104 47
49 9 84 36 108 83 9 17 35 59 58 95 32 48 46 82 54 129 6 37 32 110 60 170 27
58 57 129 66 158 9 29 27 67 41 85 55 76 84 123 84 138 0 35 -113 110 -165
109 -36 0 -97 -27 -113 -50 -23 -33 -50 -59 -62 -59 -17 0 -11 26 11 54 12 15
19 29 16 32 -13 14 -51 -12 -82 -55 -40 -56 -152 -130 -251 -166 -57 -21 -79
-36 -127 -88 -31 -34 -60 -71 -63 -82 -13 -47 -69 -155 -80 -155 -10 0 -10 8
-2 33 24 78 33 71 -78 63 -219 -16 -312 -51 -402 -153 -35 -40 -73 -72 -99
-84 -73 -31 -98 -97 -64 -163 25 -47 22 -53 -10 -27 -13 10 -29 38 -34 63 -13
50 -29 54 -59 15 -15 -21 -20 -40 -18 -79 3 -61 -14 -55 -29 10 -9 40 1 92 18
92 5 0 35 21 68 45 33 25 79 51 103 57 24 6 47 19 53 30 24 45 -97 113 -223
125 -59 6 -66 3 -154 -53 l-29 -19 28 38 c15 20 34 52 42 71 22 52 125 471
125 508 0 48 -57 126 -148 203 -96 82 -128 123 -195 243 -31 57 -73 116 -104
146 -28 28 -74 86 -103 129 -53 79 -77 91 -65 31 7 -39 4 -40 -30 -18 -42 27
-59 12 -52 -47 11 -88 82 -199 128 -199 11 0 64 -45 129 -110 93 -93 115 -122
145 -188 20 -42 46 -98 58 -123 22 -44 22 -46 5 -75 -10 -16 -25 -51 -34 -79
-24 -73 -61 -143 -109 -205 -67 -87 -90 -130 -113 -205 -12 -38 -37 -95 -57
-125 -53 -82 -59 -114 -34 -186 15 -43 35 -74 76 -116 50 -50 61 -78 32 -78
-26 0 -109 85 -128 131 -23 52 -31 136 -18 182 l8 28 -48 -8 c-50 -8 -171 -9
-438 -2 l-160 4 -79 -34 c-43 -19 -115 -62 -160 -96 -45 -34 -102 -72 -126
-85 -60 -30 -80 -49 -80 -74 0 -12 16 -66 35 -121 39 -112 42 -140 19 -173
-23 -33 -31 -20 -26 42 4 47 -1 65 -36 143 -22 48 -47 111 -56 139 -37 114
-152 243 -275 308 -50 26 -86 54 -123 98 -53 62 -149 159 -243 248 -27 26 -73
59 -100 73 -63 31 -97 64 -150 147 -43 66 -114 222 -134 295 -6 22 -11 99 -12
170 0 72 -4 139 -8 150 -5 12 -3 33 5 54 8 18 18 70 23 115 5 45 13 94 16 109
11 43 -11 33 -51 -23 -20 -27 -40 -50 -44 -50 -5 0 -16 23 -25 50 -9 28 -19
50 -21 50 -2 0 -13 -15 -24 -32z m4530 -905 c-1 -11 -26 -43 -34 -43 -10 0 -7
25 6 38 13 13 28 16 28 5z m-200 -297 c0 -7 -13 -38 -30 -69 -16 -31 -30 -70
-30 -86 0 -46 -55 -92 -112 -93 -34 -1 -68 -22 -68 -43 0 -7 10 -24 21 -39 29
-37 18 -42 -20 -11 -41 35 -43 86 -5 118 15 12 43 39 62 60 19 20 43 37 53 37
20 0 67 52 85 95 18 44 44 63 44 31z m-443 -354 c63 10 77 10 108 -5 35 -17
35 -17 35 -81 0 -58 -3 -69 -30 -99 -16 -19 -45 -40 -62 -46 -18 -7 -60 -25
-93 -41 -82 -39 -128 -45 -216 -27 -41 9 -101 19 -134 22 -80 9 -98 20 -90 52
29 116 245 246 369 222 24 -5 70 -4 113 3z"/>
<path d="M15576 3061 c-21 -23 -7 -36 30 -27 27 7 32 31 8 40 -21 8 -18 9 -38
-13z"/>
<path d="M15280 2849 c-39 -18 -51 -20 -88 -10 -98 25 -172 7 -272 -68 -119
-89 -117 -129 6 -138 38 -2 86 -11 107 -19 66 -25 115 -18 191 26 38 22 88 49
111 59 48 21 65 45 65 91 0 32 -37 80 -62 80 -7 0 -33 -10 -58 -21z m-93 -61
c46 -38 -31 -138 -106 -138 -59 0 -95 75 -55 114 19 19 26 20 42 4 9 -9 12 -7
12 9 0 32 73 40 107 11z m-214 -60 c-12 -6 -24 -20 -27 -31 -3 -12 -8 -19 -11
-15 -3 3 -1 17 4 32 7 18 18 26 33 25 l23 0 -22 -11z"/>
<path d="M15098 2755 c-22 -29 -22 -35 -4 -35 12 0 46 40 46 55 0 14 -27 2
-42 -20z"/>
<path d="M15155 2751 c-6 -11 9 -23 19 -14 9 9 7 23 -3 23 -6 0 -12 -4 -16 -9z"/>
<path d="M15040 2739 c0 -5 5 -7 10 -4 6 3 10 8 10 11 0 2 -4 4 -10 4 -5 0
-10 -5 -10 -11z"/>
<path d="M15125 2701 c-6 -11 9 -23 19 -14 9 9 7 23 -3 23 -6 0 -12 -4 -16 -9z"/>
<path d="M15030 2690 c0 -5 5 -10 10 -10 6 0 10 5 10 10 0 6 -4 10 -10 10 -5
0 -10 -4 -10 -10z"/>
<path d="M15075 2691 c-3 -5 -1 -12 5 -16 5 -3 10 1 10 9 0 18 -6 21 -15 7z"/>
<path d="M16805 4421 c-9 -30 5 -51 35 -51 35 0 86 -56 95 -104 l7 -34 131 -6
c73 -3 261 -8 418 -12 l287 -6 25 55 c25 55 64 88 118 101 30 7 45 34 29 50
-13 13 -388 24 -832 25 -291 1 -307 0 -313 -18z"/>
<path d="M5045 4409 c-9 -14 98 -173 133 -198 15 -10 63 -38 107 -61 44 -23
88 -50 99 -59 29 -25 121 -226 151 -326 14 -49 39 -119 55 -155 15 -36 36 -86
45 -112 9 -26 34 -74 55 -107 49 -75 94 -179 110 -252 9 -42 22 -66 52 -98 38
-40 41 -41 62 -26 45 32 116 64 181 82 37 10 70 23 72 30 3 7 -6 27 -20 45
-13 18 -48 73 -77 122 -29 49 -71 110 -94 137 -42 49 -128 165 -208 279 -25
36 -66 88 -92 116 -25 29 -46 55 -46 60 0 4 -11 22 -25 40 -14 18 -25 36 -25
39 0 4 -19 38 -41 76 -37 62 -41 75 -36 116 4 42 2 49 -26 75 -35 31 -40 33
-69 17 -35 -19 -66 -3 -78 40 -15 57 -78 111 -130 111 -34 0 -40 -3 -40 -21 0
-19 -1 -19 -32 4 -41 31 -74 41 -83 26z"/>
<path d="M15358 4375 c-35 -23 -36 -24 -41 -5 -7 26 -46 26 -97 0 -31 -16 -45
-33 -67 -81 l-28 -60 -55 5 c-79 8 -100 -11 -100 -91 0 -50 -5 -67 -40 -123
-22 -36 -40 -71 -40 -77 0 -7 -4 -13 -8 -13 -5 0 -17 -17 -28 -37 -10 -21 -39
-60 -64 -88 -25 -27 -80 -99 -123 -160 -88 -126 -114 -160 -178 -236 -25 -29
-70 -94 -99 -144 -29 -49 -61 -101 -71 -114 -11 -13 -19 -29 -19 -35 0 -7 36
-23 80 -35 44 -13 106 -39 137 -57 30 -19 59 -34 64 -34 5 0 24 17 43 38 24
26 40 56 51 101 19 77 62 174 114 255 21 34 44 79 51 101 7 22 25 67 40 100
15 33 37 94 49 136 35 125 99 272 147 336 14 18 55 47 99 68 42 21 93 51 115
66 41 30 140 167 140 194 0 22 -30 18 -72 -10z"/>
<path d="M945 4347 c-29 -28 -45 -52 -45 -68 0 -44 -15 -54 -77 -54 l-58 0 -8
-40 c-5 -22 -13 -59 -19 -83 -11 -45 -117 -215 -201 -321 -28 -36 -64 -88 -81
-117 -31 -52 -87 -130 -181 -249 -70 -90 -166 -251 -159 -268 3 -8 42 -27 87
-41 45 -14 102 -39 127 -56 l45 -30 32 33 c21 21 48 74 83 162 47 119 104 246
166 366 13 25 34 88 48 140 44 170 96 288 148 337 14 12 43 33 66 45 79 43
180 128 231 193 28 37 51 71 51 75 0 15 -84 10 -107 -6 -19 -13 -21 -13 -26 5
-4 15 -14 20 -41 20 -28 0 -45 -9 -81 -43z"/>
<path d="M7410 4369 c0 -12 79 -147 90 -154 5 -3 16 -28 25 -56 10 -28 40 -81
68 -117 132 -175 275 -423 301 -527 27 -109 30 -183 8 -246 -21 -60 -179 -276
-246 -337 -20 -18 -36 -38 -36 -45 0 -39 73 -92 174 -127 71 -24 86 -18 117
47 15 31 64 88 134 158 190 188 226 267 162 363 -15 24 -32 66 -37 95 -7 37
-18 59 -37 75 -16 13 -51 44 -80 68 -38 33 -62 65 -90 122 -21 42 -74 133
-118 202 -77 120 -80 127 -86 198 -7 86 -31 122 -68 103 -22 -12 -20 -16 -36
63 -6 30 -87 116 -108 116 -8 0 -17 -5 -19 -12 -3 -8 -16 -7 -46 5 -49 20 -72
22 -72 6z"/>
<path d="M13000 4366 c-19 -7 -43 -17 -52 -21 -13 -5 -18 -3 -18 9 0 19 -8 20
-36 3 -45 -25 -94 -99 -94 -141 0 -29 -17 -43 -32 -28 -31 31 -68 -39 -68
-127 0 -37 -10 -60 -61 -140 -34 -53 -70 -108 -80 -123 -11 -15 -34 -60 -53
-100 -31 -69 -93 -141 -163 -189 -28 -19 -53 -66 -53 -100 0 -14 -14 -47 -32
-73 -37 -56 -41 -112 -13 -166 31 -59 120 -164 209 -245 54 -49 87 -87 91
-105 3 -15 19 -40 35 -55 l30 -29 57 18 c105 33 173 83 173 128 0 15 -4 28 -9
28 -28 0 -235 270 -263 342 -22 59 -23 159 -3 247 26 109 165 355 303 535 28
35 55 82 62 103 7 21 22 54 35 73 65 102 85 138 85 153 0 20 -4 20 -50 3z"/>
<path d="M19310 4318 c0 -25 100 -148 153 -187 29 -21 63 -49 77 -61 14 -12
46 -33 72 -46 50 -25 71 -50 111 -130 26 -51 76 -201 96 -286 6 -25 43 -113
82 -195 39 -81 93 -206 120 -277 46 -123 85 -191 115 -203 7 -2 29 7 49 22 19
15 74 40 123 55 103 32 108 42 61 121 -68 112 -102 161 -234 337 -28 37 -63
90 -79 117 -16 28 -48 75 -71 105 -56 73 -161 234 -191 291 -13 26 -28 75 -33
109 -6 35 -13 65 -15 68 -3 2 -31 5 -63 6 l-58 1 -15 49 c-22 67 -76 116 -130
116 -34 0 -40 -3 -40 -22 0 -20 -1 -20 -20 -3 -25 23 -110 34 -110 13z"/>
<path d="M9831 4280 c48 -65 62 -102 62 -165 0 -106 -62 -193 -211 -294 -89
-60 -184 -157 -212 -216 -16 -34 -25 -74 -28 -123 -5 -80 6 -117 44 -153 l24
-22 0 45 c0 33 7 56 28 85 29 43 103 111 161 148 78 49 175 182 213 293 17 52
22 89 22 162 0 87 -3 101 -33 162 -19 41 -45 76 -64 90 l-32 22 26 -34z"/>
<path d="M10596 4267 c-92 -120 -99 -303 -17 -466 43 -84 120 -176 188 -223
79 -54 152 -126 169 -165 8 -18 14 -49 14 -69 l0 -37 25 23 c35 33 48 82 43
160 -9 126 -80 220 -264 348 -190 134 -240 278 -144 417 35 51 24 62 -14 12z"/>
<path d="M9817 4190 c-20 -56 -52 -79 -165 -120 -67 -24 -112 -66 -112 -104 0
-34 19 -46 75 -46 140 0 247 135 237 298 -3 36 -16 26 -35 -28z"/>
<path d="M10604 4214 c-9 -37 23 -146 59 -200 38 -58 108 -94 183 -94 55 0 74
12 74 46 0 42 -45 79 -137 114 -98 37 -137 70 -147 125 -8 41 -23 46 -32 9z"/>
<path d="M2905 4207 c-86 -31 -116 -50 -159 -97 -70 -78 -85 -149 -40 -194 22
-22 36 -26 81 -26 76 0 110 34 148 150 23 70 36 92 72 127 25 23 42 47 38 53
-10 16 -75 10 -140 -13z"/>
<path d="M3083 4209 c-43 -28 -83 -109 -83 -171 0 -95 54 -165 119 -154 96 15
147 114 106 207 -16 38 -85 131 -100 136 -5 1 -24 -7 -42 -18z"/>
<path d="M3185 4222 c-3 -3 13 -18 34 -33 39 -29 74 -90 107 -183 25 -72 60
-107 115 -113 38 -4 50 -1 73 18 26 23 45 76 46 126 0 34 -61 95 -131 133 -45
24 -85 36 -150 45 -49 6 -91 10 -94 7z"/>
<path d="M3390 4225 c0 -3 33 -21 73 -39 84 -39 134 -88 196 -195 25 -42 56
-80 74 -92 81 -49 171 4 152 90 -9 44 -88 126 -148 156 -75 36 -347 99 -347
80z"/>
<path d="M2381 4209 c-174 -34 -295 -113 -321 -210 -37 -136 130 -157 211 -26
60 97 79 123 119 164 23 22 53 43 68 46 15 3 36 13 47 21 19 14 17 15 -30 15
-27 -1 -70 -5 -94 -10z"/>
<path d="M2650 4200 c-164 -46 -241 -93 -280 -171 -36 -70 -23 -113 44 -139
62 -23 151 38 232 160 53 80 97 124 147 145 20 8 37 17 37 20 0 12 -121 1
-180 -15z"/>
<path d="M3710 4206 c0 -2 26 -16 57 -31 84 -38 117 -67 193 -170 76 -103 104
-121 165 -104 101 28 47 174 -89 238 -65 30 -326 84 -326 67z"/>
<path d="M2078 4180 c-128 -32 -204 -77 -249 -148 -52 -82 -27 -152 54 -152
46 0 66 19 108 101 35 70 112 157 164 185 19 10 35 22 35 26 0 12 -26 9 -112
-12z"/>
<path d="M4059 4183 c32 -6 95 -71 163 -170 32 -45 73 -93 91 -107 80 -61 158
-4 113 82 -16 31 -77 90 -120 116 -37 24 -224 86 -250 85 -18 -2 -18 -2 3 -6z"/>
<path d="M16930 4170 c-115 -24 -185 -53 -244 -97 -120 -93 -115 -223 10 -223
55 0 90 29 134 112 39 74 135 174 176 184 16 4 43 16 59 26 l30 18 -40 -1
c-22 0 -78 -9 -125 -19z"/>
<path d="M17190 4178 c-82 -11 -152 -43 -212 -97 -44 -39 -48 -47 -48 -87 0
-114 74 -173 160 -129 36 18 61 61 90 150 19 57 33 80 77 122 61 60 62 60 -67
41z"/>
<path d="M17339 4163 c-111 -122 -117 -242 -17 -303 114 -69 203 54 156 214
-13 41 -77 116 -101 116 -7 0 -25 -12 -38 -27z"/>
<path d="M17440 4184 c0 -4 20 -29 44 -54 36 -36 50 -62 72 -130 35 -111 80
-160 145 -160 55 0 109 31 110 62 2 45 -3 73 -22 109 -27 53 -112 125 -177
149 -60 23 -172 39 -172 24z"/>
<path d="M16645 4164 c-214 -37 -319 -103 -341 -211 -13 -67 76 -111 139 -70
15 9 50 50 80 89 68 93 125 144 193 174 86 38 68 43 -71 18z"/>
<path d="M17670 4171 c0 -5 12 -12 26 -15 37 -10 108 -79 155 -153 86 -136
168 -190 244 -159 19 8 40 26 47 40 27 60 -46 170 -144 218 -108 53 -328 99
-328 69z"/>
<path d="M17980 4172 c0 -5 23 -19 50 -30 61 -25 107 -75 175 -185 56 -90 100
-127 152 -127 47 0 69 14 82 51 24 70 -44 176 -143 223 -96 46 -316 93 -316
68z"/>
<path d="M16293 4126 c-50 -18 -113 -46 -140 -62 -97 -60 -144 -161 -91 -198
55 -39 100 -10 202 128 77 104 116 144 156 159 9 3 5 6 -10 6 -14 0 -66 -15
-117 -33z"/>
<path d="M18310 4142 c0 -4 16 -16 36 -27 52 -28 125 -112 167 -193 42 -80 67
-102 112 -102 78 0 99 83 42 163 -55 77 -115 113 -243 147 -83 21 -114 25
-114 12z"/>
<path d="M9964 4042 c0 -48 -9 -131 -19 -184 -24 -137 -18 -217 23 -301 18
-37 37 -67 41 -67 4 0 15 69 24 153 21 201 10 315 -45 460 -6 15 -13 27 -17
27 -3 0 -6 -39 -7 -88z"/>
<path d="M10475 4113 c-59 -146 -71 -261 -48 -470 9 -84 20 -153 24 -153 4 0
23 30 41 67 41 84 47 163 22 300 -10 54 -18 137 -18 185 -1 86 -7 106 -21 71z"/>
<path d="M1519 3844 c-39 -47 164 -134 312 -134 26 0 51 -5 54 -10 5 -8 11 -7
20 0 11 9 16 5 22 -21 12 -46 33 -49 33 -5 0 42 17 48 26 9 13 -61 23 -70 23
-20 l1 47 44 0 c37 0 45 -4 50 -22 5 -22 6 -22 20 -3 14 20 30 20 1010 23 917
2 996 1 996 -14 0 -12 3 -14 13 -6 6 5 27 7 45 5 28 -5 32 -9 32 -35 0 -39 24
-32 28 9 3 28 6 30 43 29 36 -1 39 -3 39 -29 0 -77 -59 -337 -76 -337 -3 0 -2
20 2 45 9 62 -9 58 -30 -7 -25 -80 -31 -128 -15 -128 8 -1 1 -8 -14 -16 -24
-13 -27 -20 -22 -44 5 -23 3 -28 -12 -26 -15 1 -18 -6 -16 -36 2 -27 -2 -38
-12 -38 -12 0 -85 -99 -85 -116 0 -3 -12 -21 -27 -40 l-26 -35 -14 32 c-11 26
-15 29 -28 19 -20 -16 -19 0 1 28 9 13 13 26 9 30 -3 4 -10 0 -15 -8 -37 -66
-151 -210 -228 -286 -89 -89 -285 -234 -318 -234 -8 0 -14 10 -14 23 0 45 -11
47 -239 47 -231 0 -263 -6 -269 -48 -2 -12 -7 -22 -11 -22 -15 0 -126 72 -206
135 -162 126 -340 356 -424 548 -36 84 -111 362 -111 415 0 12 -4 24 -10 27
-13 8 -13 -8 2 -116 12 -93 8 -116 -17 -83 -14 19 -14 18 -15 -3 0 -30 17 -73
30 -73 5 0 10 7 10 16 0 33 19 0 50 -84 17 -48 47 -118 66 -155 18 -38 34 -70
34 -71 0 -1 -10 -2 -21 -2 -32 1 -48 -29 -27 -51 16 -16 19 -16 36 0 10 9 21
17 24 17 4 0 24 -27 47 -59 l40 -59 -23 -16 c-13 -8 -36 -18 -51 -22 -24 -6
-26 -4 -23 22 2 24 -1 30 -20 32 -18 3 -22 9 -20 30 3 22 -2 27 -27 33 -16 4
-24 7 -17 8 21 2 14 21 -33 92 -30 46 -50 67 -59 63 -9 -4 -21 6 -31 25 -17
33 -10 42 11 14 20 -28 27 -8 9 27 -11 21 -21 30 -31 26 -11 -4 -22 9 -38 47
-31 68 -91 256 -107 332 -14 68 -29 94 -29 50 0 -82 84 -343 156 -486 87 -174
180 -297 330 -437 131 -122 254 -210 392 -279 107 -54 112 -58 112 -88 0 -42
16 -55 65 -55 50 0 59 -7 39 -28 -11 -10 -14 -25 -9 -53 4 -21 7 -78 8 -126 1
-76 -2 -94 -23 -133 -14 -24 -44 -57 -67 -73 -34 -23 -43 -34 -43 -58 l0 -29
118 0 c241 0 451 12 456 27 9 23 -3 38 -46 58 -77 37 -83 54 -81 236 l2 159
-105 0 c-68 0 -103 4 -99 10 4 6 59 10 133 10 70 0 133 4 140 9 8 5 17 23 21
42 6 30 18 40 125 102 287 164 455 314 592 527 141 218 213 407 247 648 l13
87 92 7 c111 9 191 31 226 63 30 28 33 47 10 69 -14 14 -172 16 -1588 16
-1435 0 -1575 -1 -1587 -16z m2454 -985 c-19 -20 -43 -19 -43 1 0 7 18 13 55
19 5 0 0 -9 -12 -20z m-1601 -74 c0 -5 -5 -11 -11 -13 -6 -2 -11 4 -11 13 0 9
5 15 11 13 6 -2 11 -8 11 -13z m976 -350 c2 -27 1 -59 -3 -72 l-5 -23 -205 0
-205 0 0 64 c0 40 5 68 13 75 14 11 318 20 372 11 28 -5 30 -9 33 -55z"/>
<path d="M15774 3806 c-15 -60 89 -110 253 -123 48 -3 86 -11 88 -17 1 -6 12
-67 24 -136 38 -217 118 -417 241 -600 27 -41 50 -78 50 -81 0 -4 48 -57 106
-118 120 -125 224 -207 381 -300 180 -106 180 -106 187 -144 7 -40 22 -47 107
-47 31 0 92 -3 135 -7 l79 -8 -115 -5 -115 -5 1 -40 c0 -22 4 -83 9 -136 7
-85 5 -100 -13 -141 -17 -38 -30 -52 -72 -73 -41 -21 -51 -30 -48 -48 3 -21 9
-22 118 -28 63 -4 192 -8 285 -10 l170 -4 3 27 c3 21 -4 32 -32 50 -43 30 -72
65 -92 114 -13 31 -15 60 -9 159 7 120 7 121 -16 132 -21 10 -15 12 39 12 58
1 63 3 72 27 6 14 10 36 10 50 0 13 6 24 13 24 25 0 225 109 307 167 187 133
354 307 453 470 81 133 164 340 202 503 17 75 20 134 5 125 -5 -3 -10 -16 -10
-29 0 -34 -55 -224 -96 -331 -31 -80 -40 -95 -59 -95 -14 0 -26 -9 -34 -26
-15 -34 -7 -42 20 -18 l22 19 -17 -32 c-9 -19 -24 -33 -35 -33 -18 0 -108
-136 -97 -148 3 -3 -4 -10 -17 -17 -14 -7 -21 -18 -19 -32 2 -16 -3 -22 -20
-25 -18 -2 -23 -9 -21 -31 3 -38 -15 -36 -96 10 -2 2 2 10 9 18 9 11 16 13 24
5 27 -27 74 8 60 44 -8 20 -13 20 -38 -1 -20 -18 -20 -18 -5 7 9 14 19 31 23
38 6 10 13 10 33 -3 22 -15 27 -15 40 -2 21 21 0 61 -28 52 -25 -8 -24 -2 5
48 14 23 43 92 66 152 23 61 44 112 46 114 2 3 10 -4 18 -14 12 -17 14 -16 24
15 7 18 12 42 12 54 -1 21 -1 21 -15 2 -25 -33 -29 -10 -17 83 7 48 12 96 12
106 0 39 -16 0 -31 -78 -49 -242 -78 -328 -153 -460 -130 -228 -302 -410 -509
-536 -70 -42 -87 -45 -87 -11 0 35 -35 41 -260 47 -236 7 -250 4 -250 -43 0
-13 -4 -24 -8 -24 -16 0 -147 83 -209 132 -89 71 -222 215 -294 320 -35 51
-65 86 -67 79 -2 -7 1 -18 7 -24 16 -16 14 -24 -9 -30 -41 -11 -32 -67 11 -67
20 0 26 -15 10 -24 -14 -9 -77 69 -129 158 -26 43 -54 81 -63 83 -14 4 -16 12
-12 39 5 30 3 34 -16 34 -20 0 -22 4 -16 30 6 26 3 31 -22 41 -15 6 -22 13
-15 16 17 7 15 41 -8 117 -25 78 -46 90 -35 19 4 -27 4 -45 1 -42 -13 13 -48
147 -62 234 -20 134 -21 130 26 130 37 0 40 -2 46 -32 8 -41 24 -43 24 -4 0
25 5 29 33 34 17 3 36 1 41 -4 5 -5 14 -2 20 6 10 13 104 14 741 4 1049 -15
1277 -21 1283 -37 5 -17 22 -15 22 3 0 11 12 15 45 15 l45 0 1 -47 c0 -50 10
-41 23 20 9 39 26 33 26 -9 0 -44 21 -41 33 5 6 24 11 30 20 22 8 -6 18 -6 27
-1 8 6 39 10 69 10 94 0 233 43 284 88 24 21 21 49 -6 56 -27 6 -1172 22
-2379 32 l-807 6 -7 -26z m2375 -1095 c-3 -6 -10 -7 -18 -2 -7 5 -10 14 -6 21
9 14 29 -2 24 -19z m-591 -299 c6 -9 12 -40 12 -69 l0 -53 -209 0 -208 0 -7
31 c-8 43 -8 104 2 113 4 4 95 5 202 1 161 -6 197 -10 208 -23z"/>
<path d="M1 3454 c1 -371 -2 -368 64 -64 47 219 49 266 8 323 -17 22 -40 48
-52 55 l-21 14 1 -328z"/>
<path d="M2970 3692 l-262 -2 6 -31 c3 -18 6 -67 6 -110 l0 -78 393 5 c215 3
398 7 405 10 8 2 12 32 12 103 l0 99 -67 7 c-38 3 -105 5 -150 3 -45 -2 -199
-4 -343 -6z"/>
<path d="M2047 3674 c-7 -8 4 -44 14 -44 12 0 12 37 0 44 -4 3 -11 3 -14 0z"/>
<path d="M4176 3663 c-12 -12 -6 -33 9 -33 8 0 15 6 15 14 0 17 -14 28 -24 19z"/>
<path d="M4130 3646 c0 -9 5 -16 10 -16 6 0 10 4 10 9 0 6 -4 13 -10 16 -5 3
-10 -1 -10 -9z"/>
<path d="M4276 3644 c-7 -19 2 -37 15 -29 12 8 12 45 0 45 -5 0 -12 -7 -15
-16z"/>
<path d="M16973 3654 c-9 -4 -13 -36 -13 -109 l0 -103 143 -6 c78 -3 262 -8
410 -11 l267 -5 0 94 c0 52 2 101 6 109 4 12 -32 15 -233 21 -131 3 -312 8
-403 11 -91 3 -171 2 -177 -1z"/>
<path d="M2100 3636 c0 -8 5 -18 10 -21 6 -3 10 3 10 14 0 12 -4 21 -10 21 -5
0 -10 -6 -10 -14z"/>
<path d="M20451 3637 c-6 -8 -18 -31 -27 -52 -19 -45 -15 -92 21 -235 l23 -95
1 198 c1 108 -1 197 -3 197 -2 0 -9 -6 -15 -13z"/>
<path d="M16285 3630 c-7 -12 2 -30 16 -30 12 0 12 27 0 35 -5 3 -12 1 -16 -5z"/>
<path d="M16180 3611 c0 -20 17 -37 27 -28 7 8 -7 47 -18 47 -5 0 -9 -9 -9
-19z"/>
<path d="M16337 3624 c-4 -4 -7 -14 -7 -23 0 -11 3 -12 11 -4 6 6 10 16 7 23
-2 6 -7 8 -11 4z"/>
<path d="M1944 3607 c-4 -10 -2 -23 3 -28 14 -14 24 13 13 32 -7 11 -10 10
-16 -4z"/>
<path d="M18434 3605 c-4 -9 -2 -21 3 -26 7 -7 12 -3 16 10 6 25 -11 39 -19
16z"/>
<path d="M4174 3596 c-8 -22 3 -33 18 -18 9 9 9 15 0 24 -9 9 -13 7 -18 -6z"/>
<path d="M1422 3579 c-18 -12 -39 -34 -48 -50 -8 -16 -32 -40 -54 -54 -21 -14
-44 -34 -50 -45 -6 -11 -16 -20 -22 -20 -20 0 -143 -64 -194 -101 -83 -61
-130 -129 -89 -129 24 0 18 -11 -41 -75 -31 -33 -53 -51 -49 -40 13 38 17 82
9 88 -18 11 -273 -23 -325 -43 -33 -12 -82 -44 -124 -82 -38 -34 -100 -83
-136 -110 -37 -26 -70 -55 -73 -64 -15 -40 -6 -76 29 -111 42 -42 39 -53 -7
-27 -19 11 -41 37 -53 61 -22 47 -34 52 -60 23 -14 -15 -16 -29 -12 -65 7 -50
-6 -54 -24 -8 -22 58 33 130 147 194 55 31 79 64 68 94 -7 17 -95 59 -171 81
-44 13 -60 14 -83 4 -64 -27 -60 23 -58 -743 l3 -696 78 35 c43 19 104 51 135
72 31 21 89 55 127 76 94 51 145 102 283 286 190 254 227 287 426 375 60 27
136 66 169 88 38 24 79 42 111 47 58 9 91 40 101 94 4 18 24 55 45 80 44 53
46 58 55 138 4 37 22 89 50 147 24 49 55 121 69 160 32 88 50 123 72 142 24
19 53 89 47 108 -18 51 -98 91 -180 91 -70 0 -108 -20 -123 -65 -6 -19 -16
-35 -21 -35 -14 0 -11 34 6 56 15 20 20 44 8 44 -5 0 -23 -10 -41 -21z m268
-36 c0 -5 -12 -16 -25 -26 -19 -14 -25 -15 -25 -4 0 8 10 19 23 25 28 14 27
13 27 5z m-190 -304 c0 -5 -11 -27 -25 -47 -14 -20 -25 -51 -25 -69 0 -70 -33
-97 -144 -115 -32 -5 -42 -32 -27 -73 7 -20 10 -39 7 -42 -9 -9 -46 61 -46 88
0 29 45 76 99 104 30 15 141 138 141 156 0 5 5 9 10 9 6 0 10 -5 10 -11z
m-297 -369 c53 -59 26 -140 -60 -179 -26 -12 -79 -39 -117 -58 -58 -31 -82
-37 -145 -40 -99 -5 -285 26 -289 47 -4 22 53 105 114 166 67 67 127 88 244
86 47 -1 99 2 115 8 52 16 107 5 138 -30z"/>
<path d="M1359 3071 c-13 -10 -21 -22 -18 -26 11 -11 74 11 74 25 0 23 -29 23
-56 1z"/>
<path d="M1107 2883 c-4 -4 -56 -10 -117 -14 -110 -7 -196 -28 -237 -58 -27
-19 -113 -131 -113 -147 0 -16 18 -22 92 -29 35 -3 84 -11 109 -16 32 -7 59
-7 87 1 59 15 251 120 264 143 27 50 -49 157 -85 120z m-146 -89 c24 -22 24
-56 0 -78 -25 -23 -149 -35 -162 -15 -8 12 -10 12 -18 0 -7 -11 -11 -9 -21 8
-6 12 -10 32 -7 44 3 21 4 20 15 -6 15 -34 34 -26 26 11 l-5 27 20 -24 c20
-22 23 -22 25 6 1 7 5 13 11 12 5 0 13 9 17 22 7 18 14 21 44 16 20 -4 45 -14
55 -23z m-223 -91 c-2 -10 -14 -19 -26 -21 -23 -4 -23 -3 -5 16 23 25 35 27
31 5z"/>
<path d="M880 2790 c0 -5 4 -10 9 -10 6 0 13 5 16 10 3 6 -1 10 -9 10 -9 0
-16 -4 -16 -10z"/>
<path d="M926 2792 c-3 -6 -1 -14 5 -17 15 -10 25 3 12 16 -7 7 -13 7 -17 1z"/>
<path d="M860 2760 c0 -5 5 -10 11 -10 5 0 7 5 4 10 -3 6 -8 10 -11 10 -2 0
-4 -4 -4 -10z"/>
<path d="M900 2760 c0 -5 5 -10 11 -10 5 0 7 5 4 10 -3 6 -8 10 -11 10 -2 0
-4 -4 -4 -10z"/>
<path d="M940 2735 c0 -8 5 -15 10 -15 6 0 10 7 10 15 0 8 -4 15 -10 15 -5 0
-10 -7 -10 -15z"/>
<path d="M830 2710 c0 -5 5 -10 10 -10 6 0 10 5 10 10 0 6 -4 10 -10 10 -5 0
-10 -4 -10 -10z"/>
<path d="M2050 3586 c0 -8 3 -22 6 -31 9 -23 23 0 17 26 -6 22 -23 26 -23 5z"/>
<path d="M4125 3543 c-11 -96 -44 -235 -80 -342 -39 -118 -31 -125 15 -15 51
123 109 414 82 414 -5 0 -13 -26 -17 -57z"/>
<path d="M4220 3570 c0 -16 5 -30 10 -30 6 0 10 14 10 30 0 17 -4 30 -10 30
-5 0 -10 -13 -10 -30z"/>
<path d="M4273 3570 c-15 -34 -20 -119 -8 -122 11 -4 27 75 22 117 l-3 30 -11
-25z"/>
<path d="M18380 3569 c0 -11 5 -17 10 -14 6 3 10 13 10 21 0 8 -4 14 -10 14
-5 0 -10 -9 -10 -21z"/>
<path d="M2000 3566 c0 -15 18 -31 26 -23 7 7 -7 37 -17 37 -5 0 -9 -6 -9 -14z"/>
<path d="M16242 3545 c2 -22 8 -39 13 -38 17 4 17 37 0 58 -14 19 -15 18 -13
-20z"/>
<path d="M16290 3561 c0 -11 5 -23 10 -26 6 -3 10 3 10 14 0 11 -4 23 -10 26
-5 3 -10 -3 -10 -14z"/>
<path d="M16336 3558 c-18 -41 47 -321 106 -454 33 -77 29 -44 -12 83 -35 108
-48 167 -78 338 -6 34 -11 45 -16 33z"/>
<path d="M16195 3495 c6 -65 17 -96 30 -83 9 9 -11 128 -25 141 -10 10 -11 -2
-5 -58z"/>
<path d="M18540 3534 c0 -14 4 -23 10 -19 6 3 10 15 10 26 0 10 -4 19 -10 19
-5 0 -10 -12 -10 -26z"/>
<path d="M1962 3510 c2 -19 8 -34 13 -33 17 3 17 27 0 48 -15 19 -15 18 -13
-15z"/>
<path d="M4164 3525 c-7 -17 4 -37 17 -30 12 8 12 45 -1 45 -6 0 -13 -7 -16
-15z"/>
<path d="M18430 3509 c0 -17 4 -28 10 -24 6 3 10 17 10 31 0 13 -4 24 -10 24
-5 0 -10 -14 -10 -31z"/>
<path d="M18857 3529 c-63 -15 -116 -47 -123 -74 -9 -37 1 -64 45 -124 22 -29
53 -91 70 -136 17 -46 48 -119 70 -163 27 -53 44 -106 54 -165 13 -76 21 -94
56 -138 23 -29 41 -58 41 -66 0 -8 7 -30 16 -48 16 -34 42 -49 104 -59 19 -4
58 -22 87 -41 28 -19 121 -68 205 -109 89 -44 173 -92 201 -116 26 -23 107
-121 180 -219 156 -208 212 -266 310 -316 39 -21 90 -50 112 -65 22 -15 73
-44 113 -64 l72 -36 -2 707 -3 708 -51 -2 c-53 -2 -205 -61 -212 -83 -11 -32
12 -60 82 -104 97 -61 136 -105 136 -154 0 -21 -7 -47 -16 -58 -14 -18 -15
-16 -9 27 4 36 2 51 -13 69 -21 26 -52 22 -52 -8 0 -22 -56 -77 -90 -87 -22
-7 -20 -3 18 38 65 71 55 111 -47 186 -36 27 -95 74 -131 106 -100 90 -169
114 -373 130 -88 7 -98 -1 -79 -61 14 -45 5 -41 -52 25 -49 59 -55 71 -31 71
31 0 13 34 -48 94 -45 44 -89 74 -158 109 -80 39 -112 62 -187 137 -50 50 -98
90 -107 90 -19 0 -19 -3 5 -42 11 -18 20 -39 20 -45 0 -25 -20 -13 -33 20 -8
17 -23 39 -33 48 -24 21 -98 30 -147 18z m-12 -61 c14 -6 25 -17 25 -25 0 -19
-12 -16 -39 12 -26 28 -24 30 14 13z m268 -410 c24 -24 65 -58 91 -76 72 -51
83 -96 37 -153 -27 -33 -35 -19 -15 24 17 36 14 65 -8 71 -7 2 -41 12 -76 22
-70 19 -76 27 -87 99 -4 27 -15 62 -26 76 -10 15 -19 35 -19 45 0 11 10 3 30
-24 16 -23 49 -60 73 -84z m332 -243 c44 -11 86 -14 124 -9 58 6 114 -7 181
-41 58 -30 194 -205 174 -225 -15 -14 -242 -43 -303 -38 -71 5 -271 101 -313
150 -51 59 -36 126 37 166 26 15 22 15 100 -3z"/>
<path d="M19097 3013 c-13 -12 -7 -31 11 -36 9 -2 25 -8 35 -12 26 -11 22 20
-5 39 -25 18 -32 19 -41 9z"/>
<path d="M19338 2783 c-25 -29 -32 -80 -14 -107 22 -35 237 -146 284 -147 20
-1 78 4 127 10 50 6 97 11 105 11 8 0 21 4 29 9 17 11 6 32 -59 110 -64 77
-121 100 -275 112 -60 5 -126 12 -145 15 -27 4 -39 1 -52 -13z m308 -68 c4 -8
12 -15 20 -15 9 0 14 -11 14 -27 l0 -28 20 25 20 25 0 -27 c0 -34 15 -37 24
-6 4 16 9 19 16 12 7 -7 7 -20 -1 -42 -11 -33 -24 -41 -32 -19 -4 9 -8 9 -15
-2 -15 -20 -137 -6 -163 20 -28 28 -24 65 9 83 35 20 81 20 88 1z m159 -123
c-19 -4 -37 16 -28 31 3 4 14 0 25 -10 18 -16 19 -18 3 -21z"/>
<path d="M19610 2705 c0 -8 5 -15 10 -15 6 0 10 7 10 15 0 8 -4 15 -10 15 -5
0 -10 -7 -10 -15z"/>
<path d="M19560 2695 c0 -9 5 -15 11 -13 6 2 11 8 11 13 0 5 -5 11 -11 13 -6
2 -11 -4 -11 -13z"/>
<path d="M19635 2670 c-3 -5 -1 -10 4 -10 6 0 11 5 11 10 0 6 -2 10 -4 10 -3
0 -8 -4 -11 -10z"/>
<path d="M19550 2650 c0 -5 5 -10 10 -10 6 0 10 5 10 10 0 6 -4 10 -10 10 -5
0 -10 -4 -10 -10z"/>
<path d="M18476 3504 c-4 -9 -4 -19 -2 -21 8 -8 26 8 26 23 0 19 -16 18 -24
-2z"/>
<path d="M2017 3504 c-8 -14 8 -74 28 -99 14 -19 14 -19 14 5 0 33 -33 107
-42 94z"/>
<path d="M2066 3501 c-4 -5 -1 -22 5 -37 7 -21 12 -25 18 -15 9 14 3 48 -10
56 -4 3 -10 1 -13 -4z"/>
<path d="M16292 3489 c1 -12 9 -24 16 -27 9 -3 13 3 10 19 -1 12 -9 24 -16 27
-9 3 -13 -3 -10 -19z"/>
<path d="M4210 3469 c0 -17 4 -28 10 -24 6 3 10 17 10 31 0 13 -4 24 -10 24
-5 0 -10 -14 -10 -31z"/>
<path d="M18521 3454 c-8 -18 -9 -30 -2 -37 7 -7 14 -1 21 18 14 37 -3 54 -19
19z"/>
<path d="M16250 3446 c0 -27 15 -42 25 -26 8 13 -3 50 -16 50 -5 0 -9 -11 -9
-24z"/>
<path d="M2854 3453 c-105 -4 -128 -18 -128 -80 0 -28 7 -42 33 -65 l34 -30
341 7 c315 7 343 9 368 27 50 35 50 104 1 128 -22 11 -89 15 -293 15 -146 1
-306 0 -356 -2z"/>
<path d="M4156 3453 c-12 -12 -6 -43 9 -43 8 0 15 9 15 19 0 21 -13 34 -24 24z"/>
<path d="M18415 3437 c-4 -8 -5 -26 -3 -39 4 -23 4 -23 18 5 10 21 11 30 2 39
-8 8 -13 7 -17 -5z"/>
<path d="M1981 3416 c15 -32 32 -34 27 -4 -2 13 -11 24 -21 26 -15 3 -16 0 -6
-22z"/>
<path d="M18459 3413 c-18 -47 -22 -83 -11 -83 6 0 18 23 27 52 18 61 18 58 5
58 -6 0 -15 -12 -21 -27z"/>
<path d="M16304 3416 c-8 -21 3 -49 16 -41 5 3 10 15 10 25 0 25 -18 36 -26
16z"/>
<path d="M4185 3390 c-8 -26 4 -48 16 -29 12 19 11 49 0 49 -5 0 -12 -9 -16
-20z"/>
<path d="M16985 3398 c-28 -16 -35 -28 -35 -64 0 -24 9 -40 35 -63 36 -31 36
-31 154 -31 65 0 219 -3 344 -7 l225 -6 31 31 c22 22 31 40 31 64 0 63 -16 72
-132 79 -183 12 -631 10 -653 -3z"/>
<path d="M16270 3363 c0 -23 17 -49 26 -41 9 10 -4 58 -16 58 -6 0 -10 -8 -10
-17z"/>
<path d="M18495 3359 c-9 -29 4 -38 21 -15 18 25 18 36 0 36 -8 0 -18 -9 -21
-21z"/>
<path d="M2000 3357 c0 -19 26 -52 32 -41 8 13 -9 54 -22 54 -5 0 -10 -6 -10
-13z"/>
<path d="M2063 3325 c6 -39 22 -64 33 -53 8 9 -15 76 -28 84 -8 5 -9 -5 -5
-31z"/>
<path d="M4131 3347 c-16 -20 -6 -56 10 -40 6 6 9 21 7 33 -3 21 -4 22 -17 7z"/>
<path d="M4160 3306 c-5 -15 -10 -34 -10 -42 0 -26 23 -10 32 21 10 39 -8 57
-22 21z"/>
<path d="M16332 3299 c1 -12 9 -24 16 -27 9 -3 13 3 10 19 -1 12 -9 24 -16 27
-9 3 -13 -3 -10 -19z"/>
<path d="M16302 3266 c2 -22 9 -41 16 -44 17 -5 15 40 -3 64 -14 18 -15 17
-13 -20z"/>
<path d="M18417 3262 c-19 -48 -21 -62 -8 -62 13 0 33 55 29 82 -3 19 -6 17
-21 -20z"/>
<path d="M18477 3293 c-4 -3 -7 -15 -7 -26 0 -16 3 -17 15 -7 8 7 15 19 15 26
0 15 -12 19 -23 7z"/>
<path d="M2030 3273 c0 -5 6 -18 14 -29 17 -22 35 -11 20 13 -12 19 -34 29
-34 16z"/>
<path d="M2134 3249 c9 -44 43 -119 55 -119 12 0 2 38 -27 104 -24 53 -37 60
-28 15z"/>
<path d="M4100 3250 c-9 -16 -8 -22 5 -26 9 -4 15 -18 15 -35 0 -35 17 -38 26
-4 6 24 -14 85 -28 85 -4 0 -12 -9 -18 -20z"/>
<path d="M2842 3238 c-19 -19 -14 -38 12 -48 30 -11 38 -56 66 -365 11 -121
23 -228 26 -237 7 -24 64 -30 226 -26 89 2 141 7 149 15 7 7 16 61 20 120 34
425 46 493 84 493 16 0 19 17 9 43 -5 13 -46 16 -293 16 -212 1 -290 -2 -299
-11z"/>
<path d="M2100 3228 c0 -19 46 -114 59 -122 17 -11 13 8 -13 67 -23 54 -46 81
-46 55z"/>
<path d="M16344 3204 c-14 -30 -15 -39 -3 -62 l13 -27 4 30 c2 16 11 34 19 40
13 9 13 16 4 33 -6 12 -14 22 -16 22 -2 0 -12 -16 -21 -36z"/>
<path d="M18441 3202 c-14 -27 -14 -32 3 -32 18 0 30 30 17 43 -6 6 -13 1 -20
-11z"/>
<path d="M17065 3198 c-21 -12 -19 -45 3 -53 32 -10 41 -48 62 -282 32 -357
28 -333 56 -344 14 -5 97 -9 184 -9 155 0 160 1 173 23 9 14 19 84 26 187 17
222 38 389 52 406 6 8 18 14 25 14 8 0 14 10 14 25 0 20 -6 25 -32 29 -59 9
-547 12 -563 4z"/>
<path d="M18354 3199 c-19 -24 -54 -129 -43 -129 13 0 61 105 57 127 -2 14 -5
14 -14 2z"/>
<path d="M4074 3176 c-8 -22 3 -33 18 -18 9 9 9 15 0 24 -9 9 -13 7 -18 -6z"/>
<path d="M18362 3123 c-33 -64 -40 -89 -22 -78 17 11 61 106 58 123 -3 11 -16
-7 -36 -45z"/>
<path d="M16380 3141 c0 -12 26 -32 33 -25 9 10 -4 34 -19 34 -8 0 -14 -4 -14
-9z"/>
<path d="M4046 3111 c-20 -22 -21 -41 -1 -41 19 0 19 -21 0 -46 -12 -16 -14
-16 -15 -3 0 20 -41 33 -51 17 -10 -17 1 -70 18 -88 12 -13 16 -12 33 10 11
14 22 33 26 44 3 10 17 34 30 54 28 40 27 52 -3 63 -15 5 -26 2 -37 -10z"/>
<path d="M2206 3084 c-3 -8 -10 -12 -16 -9 -13 8 -13 -11 1 -36 11 -22 34 -15
25 7 -3 8 1 14 9 14 17 0 17 2 9 24 -8 20 -20 20 -28 0z"/>
<path d="M9163 3085 c-43 -18 -73 -69 -73 -121 0 -57 51 -104 110 -104 81 0
145 100 108 169 -29 54 -94 79 -145 56z"/>
<path d="M11215 3086 c-51 -22 -70 -52 -70 -108 0 -44 4 -53 37 -84 51 -46
102 -47 153 -3 29 26 35 38 35 73 0 53 -31 103 -75 122 -41 17 -42 17 -80 0z"/>
<path d="M16398 3083 c-23 -6 -23 -34 0 -64 10 -13 24 -38 31 -56 16 -41 43
-64 59 -54 16 10 28 86 15 94 -18 11 -52 -4 -46 -21 3 -11 -3 -9 -16 7 -25 27
-27 41 -6 41 18 0 19 14 5 41 -11 19 -13 20 -42 12z"/>
<path d="M18268 3023 c-10 -13 -10 -17 0 -20 6 -3 12 -14 12 -25 0 -22 18 -20
33 4 7 11 4 21 -11 36 -19 19 -22 19 -34 5z"/>
<path d="M9414 2947 c-63 -57 -55 -155 16 -192 37 -19 54 -19 97 2 88 41 97
151 17 204 -44 29 -88 25 -130 -14z"/>
<path d="M10922 2963 c-57 -28 -77 -94 -48 -152 29 -56 104 -83 155 -56 80 41
80 162 1 209 -35 20 -66 20 -108 -1z"/>
<path d="M10120 2952 c0 -30 -74 -174 -119 -230 -24 -30 -63 -67 -89 -83 -42
-26 -54 -29 -133 -29 -103 0 -154 16 -224 70 -74 57 -105 53 -119 -16 -9 -40
8 -57 94 -98 61 -29 72 -31 180 -31 99 0 122 4 167 24 61 27 152 118 212 211
23 35 41 59 41 54 0 -24 -42 -225 -56 -266 -9 -27 -24 -54 -34 -61 -9 -6 -39
-47 -64 -89 -59 -98 -116 -156 -186 -190 -67 -34 -114 -35 -228 -8 -128 31
-205 35 -296 16 -89 -18 -178 -21 -207 -6 -10 6 -28 29 -40 51 -11 23 -23 39
-26 36 -9 -10 26 -111 60 -172 59 -104 183 -173 332 -182 204 -13 398 90 530
281 22 32 41 53 43 47 2 -6 -14 -48 -37 -94 -64 -132 -310 -444 -414 -528 -41
-32 -56 -39 -79 -34 -15 4 -51 0 -80 -8 -117 -32 -178 -40 -261 -33 -148 14
-221 4 -347 -46 -60 -24 -86 -29 -137 -26 -34 1 -64 0 -68 -3 -7 -8 116 -82
186 -111 44 -18 74 -22 164 -22 109 -1 111 -1 195 41 47 23 124 67 172 98 97
64 149 73 88 17 -95 -89 -342 -222 -509 -273 -79 -25 -127 -31 -310 -44 -238
-16 -264 -21 -366 -72 -80 -39 -129 -77 -242 -187 -80 -77 -103 -113 -65 -102
63 18 108 26 187 31 172 12 359 56 466 111 26 13 82 50 125 82 83 63 194 122
318 172 90 35 274 137 391 216 47 31 88 54 92 51 12 -12 -40 -58 -167 -145
-159 -110 -282 -231 -333 -329 -53 -102 -86 -270 -56 -289 6 -3 25 7 42 23 18
17 61 52 97 78 138 103 193 173 273 353 41 90 72 143 120 202 36 44 71 97 77
117 7 21 36 63 65 93 28 30 85 93 125 140 117 136 170 192 170 182 0 -5 -28
-58 -62 -118 -191 -338 -225 -550 -117 -740 33 -59 109 -134 165 -162 36 -18
137 -52 156 -52 18 0 6 26 -21 45 -51 34 -69 79 -86 225 -9 74 -27 172 -40
219 -12 48 -33 124 -45 171 -33 121 -23 167 75 362 42 83 81 173 86 199 6 27
26 85 46 131 94 222 159 448 182 637 12 93 6 111 -35 111 -16 0 -24 -6 -24
-18z"/>
<path d="M10281 2957 c-8 -10 -8 -36 -1 -93 27 -214 81 -396 189 -639 22 -49
44 -110 50 -135 6 -25 42 -103 81 -175 76 -141 110 -233 110 -299 0 -22 -16
-104 -35 -181 -25 -96 -39 -182 -46 -275 -12 -158 -28 -210 -75 -246 -45 -34
-44 -48 3 -39 174 32 305 169 333 347 12 79 1 167 -33 278 -28 89 -65 164
-159 323 -39 65 -68 120 -66 123 3 2 71 -69 151 -159 80 -89 160 -173 176
-185 17 -12 34 -35 37 -50 12 -48 36 -85 97 -152 43 -48 73 -95 114 -180 91
-192 144 -259 281 -361 53 -40 110 -84 125 -98 37 -34 45 -19 36 68 -20 188
-155 364 -409 532 -110 74 -190 142 -178 154 3 3 34 -14 69 -38 149 -102 259
-161 529 -281 58 -26 130 -64 160 -86 162 -115 191 -132 284 -165 106 -38 292
-75 384 -76 32 0 89 -8 127 -19 39 -10 71 -16 73 -15 10 9 -26 50 -100 117
-121 108 -166 142 -233 175 -105 52 -151 62 -369 78 -217 16 -242 20 -366 62
-161 55 -412 196 -484 272 -50 53 -2 39 104 -31 196 -127 312 -163 445 -139
63 11 200 74 250 116 l30 24 -85 1 c-61 0 -97 6 -126 19 -107 49 -151 56 -328
53 -113 -2 -172 1 -182 8 -7 7 -17 9 -22 6 -6 -3 -32 1 -58 9 -27 8 -70 15
-96 15 -38 0 -54 6 -95 38 -83 66 -278 295 -376 444 -48 71 -105 188 -93 188
3 0 33 -37 69 -83 77 -98 130 -144 223 -192 185 -94 405 -84 544 26 57 45 116
149 125 221 l6 43 -21 -37 c-11 -21 -30 -43 -42 -49 -30 -16 -108 -14 -207 6
-97 20 -162 17 -291 -14 -120 -29 -165 -27 -236 10 -70 35 -139 107 -194 200
-22 37 -47 69 -55 73 -9 3 -22 20 -30 38 -12 30 -65 264 -65 289 0 6 22 -23
49 -63 61 -90 145 -172 208 -201 41 -18 66 -22 164 -22 116 0 117 0 195 40 78
40 79 41 78 79 -3 76 -45 84 -125 22 -64 -50 -117 -66 -218 -66 -79 0 -91 3
-133 29 -26 16 -65 53 -89 83 -45 56 -119 200 -119 230 0 22 -42 25 -59 5z"/>
<path d="M2284 2936 c-8 -20 13 -56 32 -56 23 0 28 29 9 50 -21 24 -34 25 -41
6z"/>
<path d="M4300 2869 c-62 -33 -97 -65 -87 -76 4 -3 24 1 44 11 126 60 318 0
395 -124 20 -33 38 -50 51 -50 17 0 19 5 13 31 -3 17 -6 50 -6 73 0 41 -1 42
-83 93 -131 82 -231 95 -327 42z"/>
<path d="M1785 2868 c-53 -8 -183 -68 -210 -98 -21 -23 -33 -130 -16 -130 7 0
47 30 89 66 125 110 219 136 341 95 35 -12 65 -20 68 -17 5 5 -73 59 -102 70
-38 15 -120 22 -170 14z"/>
<path d="M15978 2857 c-26 -8 -83 -36 -128 -62 l-80 -49 0 -50 c0 -28 -3 -61
-6 -73 -5 -18 -2 -23 14 -23 13 0 29 15 46 45 28 47 113 112 175 133 56 20
181 15 226 -8 21 -11 41 -17 44 -14 11 10 -15 36 -72 72 -67 41 -139 51 -219
29z"/>
<path d="M9175 2777 c-19 -19 -37 -46 -40 -60 -10 -40 2 -76 40 -114 27 -27
40 -33 77 -33 23 1 53 6 66 14 35 19 62 67 62 110 0 31 -7 45 -39 77 -34 34
-44 39 -86 39 -40 0 -52 -5 -80 -33z"/>
<path d="M11122 2776 c-34 -31 -37 -39 -37 -86 0 -47 3 -55 37 -86 32 -28 45
-34 84 -34 39 0 51 5 79 33 19 19 37 46 40 60 10 40 -2 76 -40 114 -28 28 -40
33 -79 33 -39 0 -52 -6 -84 -34z"/>
<path d="M18570 2791 c-43 -14 -106 -49 -121 -67 -13 -16 -12 -17 11 -10 104
32 130 37 173 32 72 -8 146 -46 230 -120 42 -36 81 -66 88 -66 8 0 10 16 5 58
-7 68 -29 90 -134 142 -56 28 -80 34 -147 36 -44 2 -91 0 -105 -5z"/>
<path d="M4756 2724 c-31 -82 49 -187 145 -187 46 0 89 26 89 53 0 24 -22 36
-80 43 -38 5 -52 13 -90 57 -49 55 -55 58 -64 34z"/>
<path d="M1455 2694 c-29 -54 -60 -74 -114 -74 -49 0 -71 -13 -71 -41 0 -52
86 -65 161 -26 72 38 106 106 79 158 -16 29 -33 23 -55 -17z"/>
<path d="M15660 2661 c-36 -43 -47 -49 -91 -55 -66 -9 -79 -15 -79 -35 0 -33
43 -61 91 -61 97 0 175 101 143 184 -10 25 -20 20 -64 -33z"/>
<path d="M4324 2651 c-94 -69 -134 -131 -134 -206 0 -34 44 -135 58 -135 6 0
8 27 5 63 -6 78 23 140 83 175 53 31 104 25 269 -33 72 -24 142 -45 156 -45
15 0 32 -6 38 -14 7 -8 52 -94 102 -191 57 -114 89 -188 89 -209 0 -18 -12
-52 -28 -77 -33 -52 -57 -108 -49 -115 6 -7 93 37 174 88 34 22 67 37 72 34 5
-3 24 -41 41 -83 31 -74 32 -81 28 -188 -6 -140 -17 -163 -143 -286 -107 -105
-164 -183 -226 -313 -48 -99 -65 -196 -36 -196 11 0 20 15 27 43 42 165 139
281 257 308 72 17 120 -10 166 -92 35 -62 47 -62 47 -1 0 51 -12 73 -52 93
-42 21 -42 39 -2 39 39 0 59 -15 107 -82 61 -86 112 -192 127 -260 6 -32 16
-58 21 -58 26 0 32 155 10 258 -8 35 -40 116 -72 180 -31 65 -55 121 -52 125
8 13 73 -1 111 -24 18 -10 41 -19 52 -19 55 0 201 -166 240 -272 21 -58 40
-76 40 -39 0 11 -7 51 -15 89 -28 135 -125 259 -284 364 -131 86 -152 112
-187 235 -47 161 -99 237 -350 515 -31 34 -63 105 -64 140 0 32 -5 35 -89 65
-35 12 -81 34 -102 48 -22 14 -59 30 -82 34 -23 5 -74 23 -114 40 -99 43 -183
44 -239 2z"/>
<path d="M1718 2636 c-37 -13 -92 -28 -123 -31 -44 -6 -67 -16 -104 -45 -56
-44 -94 -65 -137 -74 -28 -6 -33 -12 -38 -51 -9 -58 -63 -139 -171 -255 -95
-102 -166 -194 -195 -250 -10 -19 -27 -77 -38 -128 -11 -51 -25 -99 -32 -106
-6 -8 -43 -33 -82 -57 -196 -116 -374 -361 -366 -503 l3 -51 43 88 c74 152
215 271 336 284 24 3 46 1 49 -4 4 -6 -5 -25 -20 -44 -35 -46 -88 -162 -104
-229 -15 -61 -19 -258 -6 -304 12 -41 27 -16 27 44 0 56 22 143 51 205 27 58
109 148 149 165 33 14 56 5 28 -11 -36 -20 -46 -40 -53 -104 -4 -37 -5 -69 -2
-71 2 -2 23 25 46 61 61 93 132 126 199 91 37 -20 114 -101 151 -161 37 -59
71 -162 71 -215 0 -22 4 -42 10 -45 32 -19 24 211 -9 295 -33 81 -111 179
-205 259 -173 147 -212 268 -142 441 33 81 71 130 99 130 21 0 102 -54 153
-102 15 -13 24 -16 29 -8 12 19 -4 93 -30 139 -14 23 -25 55 -25 69 0 14 20
61 44 106 24 45 56 115 70 156 37 105 44 116 79 128 18 5 70 24 117 42 174 65
262 75 340 37 61 -31 75 -60 75 -159 0 -49 2 -88 6 -88 17 0 34 72 34 147 0
74 -3 85 -30 124 -69 98 -177 129 -297 85z"/>
<path d="M15955 2632 c-28 -11 -61 -24 -73 -31 -12 -6 -44 -16 -71 -21 -28 -5
-68 -21 -90 -35 -21 -14 -67 -36 -102 -48 -84 -30 -89 -33 -89 -65 0 -32 -32
-106 -59 -136 -257 -288 -300 -351 -346 -511 -34 -119 -62 -157 -169 -228
-186 -124 -279 -255 -292 -411 -8 -91 4 -97 32 -13 9 28 31 75 49 102 36 57
148 165 171 165 8 0 40 11 70 25 59 27 104 32 104 13 0 -7 -20 -53 -45 -103
-75 -148 -102 -299 -74 -411 15 -58 32 -51 42 17 14 103 140 322 192 335 58
14 82 -13 32 -36 -47 -22 -63 -57 -51 -111 l10 -44 27 51 c38 75 77 104 138
104 116 0 222 -100 285 -269 18 -47 37 -87 42 -89 19 -6 22 32 6 86 -40 140
-150 309 -278 426 -57 52 -103 105 -121 138 -29 51 -30 58 -30 178 0 117 2
129 29 188 16 34 33 62 39 62 5 0 44 -22 86 -48 82 -52 150 -86 157 -79 6 6
-24 74 -53 118 -30 46 -33 98 -9 149 9 19 51 102 94 185 l77 149 60 12 c33 7
109 29 168 48 143 47 202 48 252 5 53 -47 68 -83 68 -163 0 -68 0 -69 18 -48
10 13 25 45 34 73 15 43 15 57 5 95 -14 50 -80 130 -134 163 -49 31 -139 36
-201 13z"/>
<path d="M18996 2634 c-14 -35 -5 -83 19 -112 53 -64 172 -94 208 -54 37 40
10 72 -60 72 -47 0 -76 19 -109 71 -25 41 -48 50 -58 23z"/>
<path d="M10228 2580 c-4 -14 -9 -88 -12 -165 -6 -174 -23 -240 -121 -484 -41
-102 -79 -210 -86 -240 -14 -68 -6 -163 17 -198 l17 -27 12 46 c6 26 35 81 63
123 52 77 93 183 107 278 4 26 9 46 12 44 2 -3 12 -41 23 -84 24 -101 60 -183
109 -248 49 -65 61 -88 61 -119 0 -41 19 -40 36 1 12 28 15 59 12 118 -5 81
-32 163 -109 330 -91 198 -117 301 -128 506 -4 79 -10 133 -13 119z"/>
<path d="M18570 2557 c-27 -14 -59 -43 -80 -72 -33 -47 -35 -54 -35 -130 0
-79 16 -134 42 -142 9 -3 9 5 1 34 -14 51 -5 129 19 161 37 49 80 67 163 66
65 -1 94 -8 225 -58 82 -31 155 -62 162 -69 7 -7 26 -49 42 -93 15 -44 49
-119 75 -166 50 -93 56 -126 27 -166 -27 -39 -45 -106 -36 -139 6 -24 8 -26
18 -12 23 30 141 109 163 109 28 0 63 -44 101 -125 23 -50 28 -73 28 -140 0
-108 -24 -159 -112 -239 -233 -213 -275 -276 -287 -434 -7 -87 -1 -162 13
-162 4 0 12 34 18 76 14 100 61 191 138 270 79 81 123 96 188 65 33 -16 58
-40 92 -89 l47 -67 -4 69 c-4 64 -7 71 -38 98 -29 24 -31 28 -14 28 29 0 98
-52 135 -103 53 -71 79 -148 95 -275 10 -86 28 -47 32 71 6 164 -31 297 -112
403 -20 26 -33 51 -30 56 4 6 25 8 51 4 122 -16 275 -143 338 -280 39 -84 60
-92 49 -18 -24 171 -189 375 -396 492 -32 17 -61 36 -64 41 -3 6 -14 49 -24
98 -28 138 -64 194 -259 406 -94 102 -151 195 -151 246 0 24 -5 28 -51 39 -33
8 -70 28 -103 54 -69 57 -68 56 -140 67 -34 4 -82 17 -107 28 -63 29 -160 28
-219 -2z"/>
<path d="M4757 2444 c-4 -4 -7 -58 -7 -119 0 -87 -3 -115 -15 -125 -9 -7 -50
-13 -102 -14 -74 -1 -96 -6 -138 -28 -55 -29 -109 -81 -120 -115 -8 -30 1 -29
53 7 103 69 267 37 316 -63 18 -37 18 -42 1 -155 -21 -141 -43 -205 -91 -261
-58 -67 -102 -84 -219 -87 -181 -4 -307 -54 -420 -168 -66 -67 -141 -183 -133
-207 2 -6 29 22 60 62 55 73 121 131 185 163 92 46 264 57 320 21 l24 -16 -31
-54 c-56 -99 -90 -170 -90 -192 0 -17 15 -6 78 56 84 83 133 111 161 94 26
-16 43 -100 44 -213 0 -116 -12 -175 -49 -229 -14 -20 -20 -37 -14 -39 32 -11
82 82 117 217 18 70 26 138 32 251 l7 155 62 131 c90 189 106 269 98 490 -6
194 -14 241 -61 356 -32 77 -50 99 -68 82z"/>
<path d="M1456 2403 c-53 -104 -82 -328 -74 -577 5 -154 16 -196 103 -381 l38
-80 8 -180 c5 -99 15 -205 23 -235 28 -106 76 -213 90 -199 2 2 -5 38 -16 79
-16 61 -18 93 -13 175 8 120 32 234 51 242 31 12 156 -89 201 -163 11 -17 12
-16 12 14 1 41 -68 222 -84 222 -7 0 -25 -10 -40 -22 -18 -14 -26 -17 -23 -7
10 29 85 72 136 77 68 6 187 -22 271 -64 74 -37 171 -130 213 -204 13 -22 26
-40 31 -40 34 0 -57 154 -138 235 -122 121 -221 163 -425 179 -81 7 -158 19
-175 27 -34 16 -70 82 -111 204 -35 106 -39 232 -8 285 49 84 183 110 298 57
32 -15 62 -25 65 -21 10 10 -98 103 -152 131 -48 24 -58 25 -146 20 l-94 -7 8
63 c9 70 10 83 7 150 -2 39 -5 47 -22 47 -11 0 -25 -12 -34 -27z"/>
<path d="M15692 2408 c-10 -13 -24 -46 -62 -153 -11 -31 -22 -107 -29 -200
-18 -243 6 -368 115 -589 l66 -134 8 -149 c10 -161 31 -262 78 -364 29 -64 66
-108 79 -95 4 4 2 15 -5 24 -56 76 -83 225 -64 347 15 96 25 115 61 115 20 0
50 -18 104 -65 42 -36 81 -74 87 -85 6 -11 15 -20 20 -20 21 0 7 40 -50 143
-33 59 -60 114 -60 121 0 20 54 36 121 36 165 0 300 -72 415 -222 25 -32 48
-57 51 -54 13 12 -52 118 -110 181 -121 133 -252 191 -457 204 -102 6 -120 10
-158 34 -51 33 -95 91 -121 161 -25 66 -56 255 -48 288 19 73 95 117 200 118
71 0 112 -14 154 -53 32 -29 39 -15 16 30 -40 78 -175 140 -284 130 -79 -7
-83 0 -89 141 -5 113 -14 139 -38 110z"/>
<path d="M18994 2314 c-6 -35 0 -129 13 -188 l6 -28 -90 7 c-80 6 -96 4 -139
-14 -65 -29 -164 -109 -164 -132 0 -4 27 3 60 17 116 47 245 24 296 -54 54
-80 34 -244 -51 -412 -41 -83 -55 -88 -250 -100 -110 -6 -152 -13 -195 -31
-144 -60 -278 -179 -333 -296 -16 -35 -27 -67 -23 -70 3 -4 7 -4 9 -2 2 2 25
35 51 72 54 76 127 139 201 172 61 27 180 55 235 55 48 0 119 -31 151 -67 l24
-26 -36 21 c-20 12 -41 22 -46 22 -6 0 -27 -43 -47 -95 -50 -133 -48 -189 4
-103 31 50 118 118 156 121 24 2 30 -3 40 -34 17 -49 34 -177 34 -247 0 -51
-10 -112 -26 -164 -10 -33 15 -18 35 19 47 94 62 172 70 358 l7 180 56 126
c32 69 64 152 73 184 31 120 13 487 -31 628 -37 118 -76 153 -90 81z"/>
<path d="M2552 1834 c-26 -18 -52 -65 -52 -94 0 -92 123 -143 192 -81 29 26
33 35 33 81 0 46 -4 55 -33 81 -37 34 -102 40 -140 13z"/>
<path d="M3613 1820 c-52 -23 -68 -53 -59 -114 14 -93 110 -127 180 -65 105
92 6 238 -121 179z"/>
<path d="M2392 1778 c-7 -7 -12 -24 -12 -38 0 -32 17 -50 45 -50 25 0 55 29
55 52 0 36 -62 62 -88 36z"/>
<path d="M16755 1757 c-41 -41 -46 -84 -16 -133 19 -31 74 -64 108 -64 38 0
82 38 93 80 22 83 -17 138 -106 148 -39 4 -47 1 -79 -31z"/>
<path d="M17804 1759 c-80 -84 9 -216 121 -179 47 16 75 53 75 102 0 32 -7 47
-34 74 -29 29 -41 34 -83 34 -42 0 -54 -5 -79 -31z"/>
<path d="M3072 1770 c-303 -5 -311 -6 -312 -46 0 -35 24 -37 373 -31 188 3
350 8 360 12 20 8 23 45 5 63 -7 7 -36 11 -72 10 -34 -1 -193 -5 -354 -8z"/>
<path d="M3810 1760 c-11 -11 -20 -24 -20 -28 0 -21 29 -44 54 -44 48 0 63 49
24 76 -29 20 -34 20 -58 -4z"/>
<path d="M10225 1667 c-8 -110 -1 -171 18 -164 15 5 13 245 -2 260 -5 5 -12
-30 -16 -96z"/>
<path d="M16622 1718 c-17 -17 -15 -53 3 -68 19 -16 61 -5 74 19 22 39 -44 82
-77 49z"/>
<path d="M16997 1723 c-14 -13 -7 -53 11 -62 29 -16 684 -36 710 -22 24 13 29
43 10 59 -8 6 -152 15 -343 21 -387 13 -380 13 -388 4z"/>
<path d="M18036 1709 c-13 -19 -13 -25 0 -50 20 -39 66 -41 83 -3 25 56 -48
102 -83 53z"/>
<path d="M3299 1675 c-3 -2 -96 -5 -208 -5 -112 -1 -215 -6 -228 -11 -23 -8
-24 -11 -11 -30 7 -12 31 -27 51 -34 64 -22 81 -45 101 -137 l6 -28 103 0 c56
0 108 4 115 9 7 4 24 31 37 58 25 56 64 88 127 107 33 9 44 17 46 35 2 13 -2
28 -10 32 -14 9 -121 12 -129 4z"/>
<path d="M17064 1616 c-12 -31 2 -48 54 -65 64 -22 98 -52 123 -108 10 -23 27
-46 38 -52 11 -6 64 -11 119 -11 l100 0 6 45 c9 57 46 101 97 116 44 14 64 32
56 53 -6 15 -71 20 -409 32 -154 5 -179 4 -184 -10z"/>
<path d="M10193 1439 c-40 -26 -66 -88 -57 -137 8 -45 24 -69 61 -93 42 -28
78 -24 119 14 28 26 37 42 41 78 7 58 -17 111 -62 139 -41 25 -62 25 -102 -1z"/>
<path d="M3035 1391 l-110 -6 0 -35 0 -35 172 3 c95 2 192 6 215 10 39 7 43
10 43 37 l0 30 -105 1 c-58 0 -154 -2 -215 -5z"/>
<path d="M17148 1344 c-17 -17 -8 -52 15 -58 12 -3 106 -11 209 -17 149 -9
191 -9 203 1 21 17 19 57 -2 64 -31 9 -418 19 -425 10z"/>
<path d="M3053 1293 c-15 -3 -25 -14 -29 -31 -4 -15 -23 -49 -42 -76 -27 -37
-37 -61 -40 -102 -6 -67 5 -97 60 -168 l43 -57 77 3 c75 3 78 4 118 43 87 85
102 170 46 276 -18 35 -36 76 -40 92 -6 27 -7 27 -89 26 -45 -1 -92 -4 -104
-6z"/>
<path d="M17270 1246 c-5 -5 -10 -16 -10 -23 0 -7 -16 -44 -35 -82 -59 -115
-43 -195 56 -287 29 -27 44 -32 107 -38 61 -5 74 -4 86 11 8 10 31 37 50 61
63 77 63 166 -3 258 -22 31 -41 65 -41 75 0 13 -10 19 -42 23 -91 11 -158 12
-168 2z"/>
<path d="M3073 830 c-30 -12 -29 -23 6 -62 26 -29 32 -31 57 -23 38 14 63 57
45 79 -15 18 -72 20 -108 6z"/>
<path d="M17330 767 c0 -34 19 -47 67 -47 33 0 45 5 53 21 20 37 6 49 -60 49
-56 0 -60 -2 -60 -23z"/>
</g>
</svg>
