<?xml version="1.0" standalone="no"?>
<!DOCTYPE svg PUBLIC "-//W3C//DTD SVG 20010904//EN"
 "http://www.w3.org/TR/2001/REC-SVG-20010904/DTD/svg10.dtd">
<svg version="1.0" xmlns="http://www.w3.org/2000/svg"
 width="2047.000000pt" height="582.000000pt" viewBox="0 0 2047.000000 582.000000"
 preserveAspectRatio="xMidYMid meet">

<g transform="translate(0.000000,582.000000) scale(0.100000,-0.100000)"
fill="#000000" stroke="none">
<path d="M15912 5077 c-62 -66 -110 -240 -122 -440 l-8 -149 -67 -136 c-93
-188 -118 -286 -117 -462 0 -228 18 -320 86 -460 6 -14 18 -25 26 -25 12 0 16
23 20 116 6 143 10 149 89 142 109 -10 244 52 284 130 23 45 16 59 -16 30 -42
-39 -83 -53 -154 -53 -105 1 -181 45 -200 118 -8 33 23 222 48 288 26 70 70
128 121 161 38 24 56 28 158 34 205 13 336 71 457 204 58 63 123 169 110 181
-3 3 -26 -22 -51 -54 -115 -150 -250 -222 -415 -222 -67 0 -121 16 -121 36 0
7 27 62 60 121 57 103 71 143 50 143 -5 0 -14 -9 -20 -20 -6 -11 -45 -49 -87
-85 -64 -54 -83 -65 -108 -63 -43 4 -58 53 -59 193 0 119 18 202 54 248 36 45
21 66 -18 24z"/>
<path d="M17342 5088 c-7 -7 -12 -22 -12 -35 0 -21 4 -23 60 -23 66 0 80 12
60 49 -8 16 -20 21 -53 21 -24 0 -48 -5 -55 -12z"/>
<path d="M18874 5083 c16 -53 26 -114 26 -165 0 -70 -17 -198 -34 -247 -10
-31 -16 -36 -40 -34 -38 3 -125 71 -156 121 -52 86 -54 30 -4 -103 20 -52 41
-95 47 -95 5 0 26 10 46 22 l36 21 -24 -26 c-32 -36 -103 -67 -151 -67 -55 0
-174 28 -235 55 -74 33 -147 96 -201 172 -26 37 -49 70 -51 72 -2 2 -6 2 -9
-2 -4 -3 7 -35 23 -70 55 -117 189 -236 333 -296 43 -18 85 -25 195 -31 195
-12 209 -17 250 -100 85 -168 105 -332 51 -412 -51 -78 -180 -101 -296 -54
-33 14 -60 21 -60 17 0 -23 99 -103 164 -132 43 -18 59 -20 139 -14 l90 7 -6
-28 c-23 -104 -19 -224 7 -224 64 0 116 255 116 569 0 143 -13 195 -88 360
l-56 126 -7 180 c-8 186 -23 264 -70 358 -20 37 -45 52 -35 20z"/>
<path d="M3076 5049 c-14 -17 -26 -35 -26 -40 0 -25 106 -39 128 -17 18 18 15
36 -13 63 -32 33 -58 31 -89 -6z"/>
<path d="M11625 5069 c-4 -5 -58 -48 -120 -95 -155 -116 -205 -178 -298 -374
-41 -85 -71 -132 -114 -180 -61 -67 -85 -104 -97 -152 -3 -15 -20 -38 -37 -50
-16 -12 -96 -96 -176 -185 -80 -90 -148 -161 -151 -159 -2 3 27 58 66 123 127
216 171 322 192 466 34 232 -110 441 -333 482 -47 9 -48 -5 -3 -39 47 -36 63
-88 75 -246 7 -93 21 -179 46 -275 19 -77 35 -159 35 -181 0 -66 -34 -158
-110 -299 -39 -71 -75 -150 -81 -175 -6 -25 -28 -85 -50 -135 -108 -243 -162
-425 -189 -639 -11 -87 -5 -106 36 -106 16 0 24 6 24 18 0 30 74 174 119 230
24 30 63 67 89 83 42 26 54 29 133 29 101 0 154 -16 218 -66 80 -62 122 -54
125 22 1 38 0 39 -78 79 -78 40 -79 40 -195 40 -98 0 -123 -4 -164 -22 -63
-29 -147 -111 -208 -201 -27 -40 -49 -69 -49 -63 0 25 53 259 65 289 8 18 21
35 30 38 8 4 33 36 55 73 55 93 124 165 194 200 71 37 116 39 236 10 129 -31
194 -34 291 -14 99 20 177 22 207 6 12 -6 31 -28 42 -49 l21 -37 -6 43 c-9 72
-68 176 -125 221 -139 110 -359 120 -544 26 -93 -48 -146 -94 -223 -192 -36
-46 -66 -83 -69 -83 -12 0 45 117 93 188 98 149 293 378 376 444 41 32 57 38
95 38 26 0 69 7 96 15 26 8 52 12 58 9 5 -3 15 -1 22 6 10 7 69 10 182 8 177
-3 221 4 328 53 29 13 65 19 126 19 l85 1 -30 24 c-50 42 -187 105 -250 116
-133 24 -249 -12 -445 -139 -106 -70 -154 -84 -104 -31 72 76 323 217 484 272
124 42 149 46 366 62 218 16 264 26 369 78 108 53 356 271 333 292 -2 1 -34
-5 -73 -15 -38 -11 -95 -19 -127 -19 -92 -1 -278 -38 -384 -76 -93 -33 -122
-50 -284 -165 -30 -22 -102 -60 -160 -86 -270 -120 -380 -179 -529 -281 -35
-24 -66 -41 -69 -38 -12 12 68 80 178 154 193 128 322 266 378 404 22 54 43
180 34 206 -5 14 -19 14 -27 0z"/>
<path d="M1617 5040 c-21 -35 -53 -126 -68 -190 -6 -25 -14 -124 -18 -220 -8
-175 -8 -175 -46 -255 -87 -185 -98 -227 -103 -381 -9 -310 43 -604 108 -604
17 0 20 8 22 48 3 66 2 79 -7 149 l-8 63 94 -7 c88 -5 98 -4 146 20 54 28 162
121 152 131 -3 4 -33 -6 -65 -21 -115 -53 -249 -27 -298 57 -31 53 -27 179 8
285 41 122 77 188 111 204 17 8 94 20 175 27 204 16 303 58 425 179 81 81 172
235 138 235 -5 0 -18 -18 -31 -40 -42 -74 -139 -167 -213 -204 -84 -42 -203
-70 -271 -64 -51 5 -126 48 -136 77 -3 10 5 7 23 -7 15 -12 33 -22 40 -22 16
0 85 181 84 222 0 30 -1 31 -12 14 -45 -74 -170 -175 -201 -163 -19 7 -43 120
-51 237 -6 89 4 175 30 243 11 28 -9 19 -28 -13z"/>
<path d="M8863 5053 c-15 -38 16 -177 58 -263 55 -110 167 -223 339 -342 127
-87 179 -133 167 -145 -4 -3 -45 20 -92 51 -117 79 -301 181 -391 216 -124 50
-235 109 -318 172 -43 32 -99 69 -125 82 -107 55 -294 99 -466 111 -79 5 -124
13 -187 31 -38 11 -15 -25 65 -102 113 -110 162 -148 242 -187 102 -51 128
-56 366 -72 183 -13 231 -19 310 -44 167 -51 414 -184 509 -273 61 -56 9 -47
-88 17 -48 31 -125 75 -172 98 -84 42 -86 42 -195 41 -90 0 -120 -4 -164 -22
-70 -29 -193 -103 -186 -111 4 -3 34 -4 68 -3 51 3 77 -2 137 -26 126 -50 199
-60 347 -46 83 7 144 -1 261 -33 29 -8 65 -12 80 -8 23 5 38 -2 79 -34 104
-84 350 -396 414 -528 23 -46 39 -88 37 -94 -2 -6 -21 15 -43 47 -132 191
-326 294 -530 281 -149 -9 -273 -78 -332 -182 -34 -61 -69 -162 -60 -172 3 -3
15 13 26 36 12 22 30 45 40 51 29 15 118 12 207 -6 91 -19 168 -15 296 16 114
27 161 26 228 -7 70 -35 127 -93 186 -191 25 -42 55 -83 64 -89 10 -7 25 -34
34 -61 14 -41 56 -242 56 -266 0 -5 -18 19 -41 54 -60 93 -151 184 -212 211
-45 20 -68 24 -167 24 -108 0 -119 -2 -180 -31 -86 -41 -103 -58 -94 -98 14
-69 45 -73 119 -16 70 54 121 70 224 70 79 0 91 -3 133 -29 26 -16 65 -53 89
-83 45 -56 119 -200 119 -230 0 -12 8 -18 24 -18 41 0 47 18 35 111 -23 189
-88 415 -182 637 -20 46 -40 104 -46 131 -5 26 -44 116 -86 199 -98 195 -108
241 -75 362 12 47 33 123 45 171 13 47 31 145 40 219 17 146 35 191 86 225 27
19 39 45 21 45 -19 0 -120 -34 -156 -52 -56 -28 -132 -103 -165 -162 -108
-190 -74 -402 117 -740 34 -60 62 -113 62 -118 0 -10 -53 46 -170 182 -40 47
-97 110 -125 140 -29 30 -58 72 -65 93 -6 20 -41 73 -77 117 -48 59 -79 112
-120 202 -82 185 -132 248 -288 365 -44 33 -86 68 -94 77 -17 21 -30 20 -38
-1z"/>
<path d="M4576 5033 c35 -54 44 -81 55 -162 11 -82 1 -208 -22 -268 -21 -57
-74 -37 -181 68 -63 62 -78 73 -78 56 0 -22 34 -93 90 -192 l31 -54 -24 -16
c-56 -36 -228 -25 -320 21 -64 32 -130 90 -185 163 -31 40 -58 68 -60 62 -8
-24 67 -140 133 -207 113 -114 239 -164 420 -168 117 -3 161 -20 219 -87 48
-56 70 -120 91 -261 17 -113 17 -118 -1 -155 -23 -46 -67 -77 -134 -93 -67
-16 -129 -6 -182 30 -52 36 -61 37 -53 8 11 -35 65 -87 120 -116 42 -22 64
-27 138 -28 51 -1 93 -7 102 -14 11 -9 15 -42 17 -128 3 -105 5 -117 21 -117
13 0 27 22 52 83 47 115 55 162 61 356 8 221 -8 301 -98 490 l-62 131 -7 155
c-6 113 -14 181 -32 251 -35 133 -80 219 -115 219 -12 0 -11 -5 4 -27z"/>
<path d="M19085 5004 c-3 -20 -3 -76 1 -126 12 -158 54 -221 287 -434 88 -80
112 -131 112 -239 0 -67 -5 -90 -28 -140 -38 -81 -73 -125 -101 -125 -22 0
-140 79 -163 109 -10 14 -12 12 -18 -12 -9 -33 9 -100 36 -139 29 -40 23 -73
-27 -166 -26 -47 -60 -122 -75 -166 -16 -44 -35 -86 -42 -93 -7 -7 -80 -38
-162 -69 -131 -50 -160 -57 -225 -58 -83 -1 -126 17 -163 66 -24 32 -33 110
-19 161 8 29 8 37 -1 34 -26 -8 -42 -63 -42 -142 0 -76 2 -83 35 -130 48 -66
105 -94 190 -94 44 -1 79 6 109 20 25 11 73 24 107 28 72 11 71 10 140 67 33
26 70 46 103 54 46 11 51 15 51 39 0 51 57 144 151 246 195 212 231 268 259
406 10 49 21 92 24 98 3 5 32 24 64 41 207 117 372 321 396 492 11 74 -10 66
-49 -18 -63 -137 -216 -264 -338 -280 -26 -4 -47 -2 -51 4 -3 5 10 30 30 56
81 106 118 239 112 403 -4 118 -22 157 -32 71 -16 -127 -42 -204 -95 -275 -37
-51 -106 -103 -135 -103 -17 0 -15 4 14 28 31 27 34 34 38 98 l4 69 -47 -67
c-34 -49 -59 -73 -92 -89 -65 -31 -109 -16 -188 65 -77 79 -124 170 -138 270
-6 42 -14 76 -18 76 -4 0 -10 -16 -14 -36z"/>
<path d="M17365 5003 c-40 -3 -57 -11 -84 -36 -59 -56 -91 -115 -91 -170 0
-46 8 -69 80 -217 6 -11 22 -14 71 -12 107 5 139 12 139 31 0 10 19 44 41 75
66 92 66 181 3 258 -19 24 -42 51 -50 61 -7 9 -24 16 -36 15 -13 -1 -45 -3
-73 -5z"/>
<path d="M1407 4984 c-4 -4 -7 -24 -7 -45 0 -52 -34 -155 -71 -214 -37 -60
-114 -141 -151 -161 -67 -35 -138 -2 -199 91 -23 36 -44 63 -46 61 -3 -2 -2
-34 2 -71 7 -64 17 -84 53 -104 28 -16 5 -25 -28 -11 -40 17 -122 107 -149
165 -29 62 -51 149 -51 205 0 60 -15 85 -27 44 -13 -46 -9 -243 6 -304 16 -67
69 -183 104 -229 15 -19 24 -38 20 -44 -3 -5 -25 -7 -49 -4 -121 13 -262 132
-336 284 l-43 88 -3 -51 c-8 -142 170 -387 366 -503 39 -24 76 -49 82 -57 7
-7 21 -55 32 -106 11 -51 28 -109 38 -128 29 -56 100 -148 195 -250 108 -116
162 -197 171 -255 5 -39 10 -45 38 -51 43 -9 81 -30 137 -74 37 -29 60 -39
104 -45 31 -3 88 -18 128 -32 55 -19 83 -24 121 -19 64 7 132 49 171 105 27
39 30 50 30 124 0 75 -17 147 -34 147 -4 0 -6 -39 -6 -87 0 -100 -14 -129 -75
-160 -78 -38 -166 -28 -340 37 -47 18 -99 37 -117 42 -35 12 -42 23 -79 128
-14 41 -46 111 -70 156 -24 45 -44 92 -44 106 0 14 11 46 25 69 26 46 42 120
30 139 -5 8 -14 5 -29 -8 -51 -48 -132 -102 -153 -102 -28 0 -66 49 -99 130
-70 173 -31 294 142 441 94 80 172 178 205 259 34 86 40 327 6 294z"/>
<path d="M3002 4904 c-55 -71 -66 -101 -60 -168 3 -41 13 -65 40 -102 19 -27
38 -61 41 -75 8 -32 35 -39 143 -39 72 0 74 1 80 28 4 15 22 56 40 91 56 106
41 191 -46 276 -40 39 -43 40 -118 43 l-77 3 -43 -57z"/>
<path d="M14971 4896 c-28 -112 -1 -263 74 -411 25 -49 45 -96 45 -102 0 -20
-45 -15 -104 12 -30 14 -62 25 -70 25 -23 0 -135 108 -171 165 -18 28 -40 74
-49 102 -28 84 -40 78 -32 -13 13 -156 106 -287 292 -411 107 -71 135 -109
169 -228 46 -160 89 -223 346 -511 27 -30 59 -104 59 -136 0 -32 5 -35 89 -65
35 -12 81 -34 102 -48 22 -14 61 -30 87 -35 26 -5 74 -21 107 -36 80 -37 182
-40 237 -6 57 36 124 115 138 166 10 38 10 52 -5 95 -9 28 -24 60 -34 73 -18
21 -18 20 -18 -48 0 -80 -15 -116 -68 -163 -50 -43 -109 -42 -252 5 -59 19
-135 41 -168 48 l-60 12 -77 149 c-43 83 -85 166 -94 185 -24 51 -21 103 9
149 29 44 59 112 53 118 -7 7 -75 -27 -157 -79 -42 -26 -81 -48 -86 -48 -6 0
-23 28 -39 63 -27 58 -29 70 -29 187 0 120 1 127 30 178 18 33 64 86 121 138
128 117 238 286 278 426 16 54 13 92 -6 86 -5 -2 -24 -42 -42 -89 -63 -169
-169 -269 -285 -269 -61 0 -100 29 -138 104 l-27 51 -10 -44 c-12 -54 4 -89
51 -111 50 -23 26 -50 -32 -36 -52 13 -178 232 -192 335 -10 68 -27 75 -42 17z"/>
<path d="M5500 4853 c-15 -69 -66 -175 -127 -261 -48 -67 -68 -82 -107 -82
-40 0 -40 18 2 39 40 20 52 42 52 93 0 61 -12 61 -47 -1 -46 -82 -94 -109
-166 -92 -118 27 -215 143 -257 309 -7 27 -16 42 -27 42 -29 0 -12 -97 36
-196 62 -130 119 -208 226 -313 126 -123 137 -146 143 -286 4 -107 3 -114 -28
-188 -17 -42 -36 -80 -41 -83 -5 -3 -38 12 -72 34 -81 51 -168 95 -174 88 -8
-7 16 -63 49 -115 16 -25 28 -59 28 -77 0 -21 -32 -95 -89 -209 -50 -97 -95
-183 -102 -191 -6 -8 -23 -14 -38 -14 -14 0 -84 -21 -156 -45 -165 -58 -216
-64 -269 -33 -60 35 -89 97 -83 176 3 35 1 62 -5 62 -14 0 -58 -101 -58 -135
0 -75 40 -137 134 -206 56 -42 140 -41 239 2 40 17 91 35 114 40 23 4 60 20
82 34 21 14 67 36 102 48 84 30 89 33 89 65 1 35 33 106 64 140 251 278 303
354 350 515 35 123 56 149 187 235 159 105 256 229 284 364 8 38 15 78 15 89
0 37 -19 19 -40 -39 -39 -106 -185 -272 -240 -272 -11 0 -34 -9 -52 -19 -38
-23 -103 -37 -111 -24 -3 4 21 60 52 125 32 64 64 145 72 180 22 103 16 258
-10 258 -5 0 -15 -26 -21 -57z"/>
<path d="M10197 4611 c-58 -38 -78 -103 -51 -170 16 -41 65 -81 99 -81 31 0
82 39 100 77 27 57 16 119 -29 160 -41 38 -77 42 -119 14z"/>
<path d="M17319 4550 c-163 -11 -181 -15 -177 -48 l3 -27 200 3 c234 3 245 4
245 35 0 50 -20 53 -271 37z"/>
<path d="M2924 4497 c-3 -9 -4 -26 -2 -39 3 -23 6 -23 158 -31 85 -4 182 -6
215 -5 59 3 60 3 60 33 0 27 -4 30 -40 36 -22 4 -118 10 -212 14 -152 7 -173
6 -179 -8z"/>
<path d="M17273 4425 c-12 -8 -26 -30 -32 -48 -16 -47 -61 -87 -123 -108 -44
-14 -54 -22 -56 -43 -2 -16 2 -28 11 -32 25 -9 570 15 581 26 17 17 -6 42 -52
58 -53 17 -89 60 -98 117 l-6 45 -102 0 c-74 0 -107 -4 -123 -15z"/>
<path d="M3004 4363 c-20 -93 -37 -116 -101 -138 -20 -7 -44 -22 -51 -34 -13
-19 -12 -22 10 -30 14 -5 105 -10 204 -10 98 -1 211 -4 251 -7 97 -9 125 -1
121 33 -2 22 -11 29 -46 40 -63 18 -102 50 -127 106 -13 27 -30 54 -37 58 -7
5 -59 9 -115 9 l-103 0 -6 -27z"/>
<path d="M10026 4327 c-23 -35 -31 -130 -17 -198 7 -30 45 -138 86 -240 100
-248 115 -309 122 -494 3 -82 9 -156 13 -163 4 -8 10 53 13 135 9 200 33 295
126 498 78 168 104 249 109 330 3 59 0 90 -12 118 -17 41 -36 42 -36 1 0 -31
-12 -54 -61 -119 -49 -65 -85 -147 -109 -248 -11 -43 -21 -81 -23 -84 -3 -2
-8 18 -12 44 -14 95 -55 201 -107 278 -28 42 -57 97 -63 123 l-12 46 -17 -27z"/>
<path d="M10225 4289 c-10 -44 4 -244 16 -232 15 15 17 255 2 260 -6 2 -14
-10 -18 -28z"/>
<path d="M12490 4289 c-193 -15 -375 -72 -545 -173 -91 -53 -126 -69 -180 -81
-37 -8 -104 -62 -127 -103 -16 -26 -16 -31 -3 -42 12 -10 25 -9 66 4 28 10 53
16 55 14 2 -2 -8 -26 -21 -53 -31 -62 -49 -189 -40 -275 4 -43 20 -98 49 -165
83 -192 92 -236 77 -394 -15 -165 -35 -199 -241 -421 -64 -69 -119 -132 -122
-141 -7 -17 15 -194 31 -263 13 -53 7 -79 -51 -223 -27 -67 -53 -148 -58 -179
-5 -31 -17 -76 -26 -100 -31 -80 -1 -256 55 -325 l18 -23 17 52 c10 29 21 52
26 52 4 0 24 -22 44 -50 40 -56 62 -66 51 -23 -3 15 -11 64 -16 109 -5 45 -15
97 -23 115 -8 21 -10 42 -5 54 4 11 8 79 8 150 1 72 6 148 12 170 20 73 91
229 134 295 53 83 87 116 150 147 27 14 73 47 100 73 94 89 190 186 243 248
37 44 73 72 123 98 123 65 238 194 275 308 9 28 34 91 56 139 35 78 40 96 36
143 -5 62 3 75 26 42 23 -33 20 -61 -19 -173 -19 -55 -35 -109 -35 -121 0 -25
20 -44 80 -74 24 -13 81 -51 126 -85 45 -34 117 -77 160 -96 l79 -34 160 4
c267 7 388 6 438 -2 l48 -8 -8 28 c-13 46 -5 130 18 182 19 46 102 131 128
131 29 0 18 -28 -32 -78 -41 -42 -61 -73 -76 -116 -25 -72 -19 -104 34 -186
20 -30 45 -86 57 -125 23 -75 46 -118 113 -205 48 -62 85 -132 109 -205 9 -27
24 -63 34 -79 17 -29 17 -31 -5 -75 -12 -25 -38 -81 -58 -123 -30 -66 -52 -95
-145 -188 -65 -65 -118 -110 -129 -110 -46 0 -117 -111 -128 -199 -7 -59 10
-74 52 -47 34 22 37 21 30 -18 -12 -60 12 -48 65 31 29 43 75 101 103 129 31
30 73 89 104 146 67 120 99 161 195 243 91 77 148 155 148 203 0 37 -103 456
-125 508 -8 19 -27 51 -42 71 l-28 38 29 -19 c88 -56 95 -59 154 -53 83 8 160
36 199 73 29 27 33 36 24 52 -6 11 -29 24 -53 30 -24 6 -70 32 -103 57 -33 24
-63 45 -68 45 -17 0 -27 52 -18 92 15 65 32 71 29 10 -2 -39 3 -58 18 -79 30
-39 46 -35 59 15 5 25 21 53 34 63 32 26 35 20 10 -27 -34 -66 -9 -132 64
-163 26 -12 64 -44 99 -84 90 -102 183 -137 402 -153 111 -8 102 -15 78 64 -8
24 -8 32 2 32 11 0 67 -108 80 -155 3 -11 32 -48 63 -82 48 -52 70 -67 127
-88 99 -36 211 -110 251 -166 31 -43 69 -69 82 -55 3 3 -4 17 -16 32 -22 28
-28 54 -11 54 12 0 39 -26 62 -59 16 -23 77 -50 113 -50 52 -1 165 74 165 109
0 15 -29 62 -84 138 -14 18 -32 56 -41 85 -9 29 -39 100 -66 158 -28 60 -54
133 -60 170 -8 47 -22 81 -54 129 -23 36 -49 79 -58 95 -24 47 -59 74 -108 83
-24 5 -71 26 -104 47 -32 21 -99 55 -148 76 -49 21 -116 54 -150 73 -63 35
-184 150 -207 196 -32 63 -161 241 -215 295 -61 62 -159 125 -194 125 -11 0
-32 10 -48 23 -15 13 -36 26 -45 30 -10 3 -15 12 -13 20 9 23 -47 64 -105 76
-177 37 -254 36 -380 -6 -61 -20 -208 -20 -305 0 -44 10 -152 24 -240 31 -90
8 -180 22 -205 31 -43 16 -69 23 -262 66 -107 24 -263 31 -428 18z m2753
-1078 c34 -16 77 -35 95 -42 17 -6 46 -27 62 -46 27 -30 30 -41 30 -99 0 -64
0 -64 -35 -81 -31 -15 -44 -15 -110 -4 -41 7 -79 9 -85 6 -22 -13 -108 -6
-162 15 -117 44 -215 129 -233 203 -9 34 9 42 120 56 50 6 104 15 120 21 49
16 130 4 198 -29z m268 -297 c-11 -15 -21 -32 -21 -39 0 -21 34 -42 68 -43 57
-1 112 -47 112 -93 0 -16 14 -55 30 -86 17 -31 30 -62 30 -70 0 -26 -24 -7
-47 37 -29 55 -61 90 -83 90 -9 0 -33 17 -52 38 -19 20 -47 47 -62 59 -38 32
-36 83 5 118 38 31 49 26 20 -11z m407 -605 c7 -12 11 -23 8 -26 -8 -9 -36 17
-36 33 0 20 13 17 28 -7z"/>
<path d="M15035 3206 c-17 -7 -63 -15 -103 -18 -129 -9 -132 -49 -12 -139 99
-74 180 -95 271 -68 33 10 45 9 88 -10 27 -11 55 -21 61 -21 23 0 60 49 60 80
0 46 -17 70 -65 91 -23 10 -73 37 -111 59 -75 44 -131 51 -189 26z m105 -53
c34 -20 64 -71 59 -98 -9 -46 -119 -57 -119 -12 0 16 -3 18 -12 9 -7 -7 -15
-12 -19 -12 -18 0 -39 34 -39 61 0 61 69 88 130 52z m-190 -37 c0 -7 10 -18
23 -24 l22 -11 -23 0 c-15 -1 -26 7 -32 25 -13 32 -12 37 0 29 6 -3 10 -12 10
-19z"/>
<path d="M15075 3141 c-3 -5 -1 -12 5 -16 5 -3 10 1 10 9 0 18 -6 21 -15 7z"/>
<path d="M15030 3130 c0 -5 5 -10 10 -10 6 0 10 5 10 10 0 6 -4 10 -10 10 -5
0 -10 -4 -10 -10z"/>
<path d="M15126 3132 c-3 -6 -1 -14 5 -17 15 -10 25 3 12 16 -7 7 -13 7 -17 1z"/>
<path d="M15080 3093 c1 -13 38 -53 49 -53 15 0 14 6 -5 35 -15 23 -44 35 -44
18z"/>
<path d="M15040 3080 c0 -5 5 -10 11 -10 5 0 7 5 4 10 -3 6 -8 10 -11 10 -2 0
-4 -4 -4 -10z"/>
<path d="M15156 3082 c-3 -6 -1 -14 5 -17 15 -10 25 3 12 16 -7 7 -13 7 -17 1z"/>
<path d="M15566 2781 c-3 -4 3 -16 13 -25 19 -18 51 -12 51 9 0 21 -53 35 -64
16z"/>
<path d="M7705 4284 c-101 -15 -338 -68 -378 -85 -32 -13 -100 -25 -200 -34
-136 -13 -207 -24 -370 -56 -56 -10 -168 3 -236 28 -61 23 -219 21 -322 -4
-81 -20 -155 -67 -129 -83 10 -6 4 -12 -21 -23 -19 -7 -40 -21 -48 -30 -7 -10
-22 -17 -33 -17 -33 0 -145 -69 -201 -123 -49 -49 -153 -191 -207 -284 -14
-24 -57 -76 -97 -116 -72 -72 -130 -107 -303 -185 -36 -16 -94 -48 -129 -70
-35 -23 -74 -42 -87 -42 -42 0 -73 -22 -106 -74 -17 -28 -48 -78 -69 -111 -27
-42 -41 -79 -48 -125 -7 -40 -27 -100 -55 -155 -24 -49 -54 -120 -66 -157 -13
-40 -41 -94 -70 -133 -27 -37 -52 -76 -56 -87 -15 -49 79 -118 161 -117 59 0
80 11 124 62 49 55 84 49 40 -7 -11 -14 -19 -30 -17 -35 7 -19 49 11 88 63 22
31 44 56 48 56 5 0 36 18 70 40 33 22 92 51 129 64 55 20 77 35 115 78 26 29
51 62 56 73 5 11 22 49 38 85 29 68 50 98 59 88 3 -3 -1 -25 -9 -49 -8 -23
-13 -45 -11 -49 6 -10 239 17 302 35 83 24 137 59 196 127 29 33 73 71 100 84
34 18 53 35 63 59 19 46 18 63 -6 108 -24 44 -17 47 22 10 16 -15 28 -37 28
-52 0 -14 4 -32 9 -40 23 -37 74 53 64 113 -8 51 13 47 27 -5 6 -23 9 -52 6
-65 -8 -29 -159 -144 -190 -144 -36 0 -60 -23 -53 -51 9 -35 62 -66 152 -89
93 -24 123 -21 185 20 24 16 46 27 48 25 2 -2 -6 -17 -18 -32 -12 -15 -28 -42
-35 -60 -22 -52 -125 -471 -125 -506 0 -57 60 -136 166 -221 67 -54 113 -112
176 -224 29 -52 74 -116 100 -141 27 -25 71 -81 100 -123 29 -43 57 -78 61
-78 5 0 7 16 5 35 -5 40 -1 42 41 18 37 -22 46 -13 45 46 -1 80 -71 192 -130
207 -14 4 -72 52 -128 108 -87 86 -109 115 -140 182 -21 43 -48 100 -61 126
-14 26 -20 50 -15 53 5 3 23 42 40 88 44 113 71 162 125 232 57 72 75 108 104
200 13 39 33 84 45 100 53 70 75 154 49 188 -6 6 -13 25 -17 41 -4 16 -32 55
-62 87 -49 51 -61 79 -34 79 18 0 96 -74 120 -113 22 -37 25 -54 25 -135 l0
-93 25 5 c66 15 216 18 364 6 123 -9 176 -9 216 -1 90 19 196 70 265 127 37
29 96 70 132 90 89 50 93 63 54 166 -37 96 -48 165 -32 196 20 38 31 24 30
-37 -1 -49 6 -75 39 -148 22 -48 47 -111 56 -139 37 -114 154 -245 268 -301
49 -24 81 -49 124 -99 128 -147 276 -285 339 -317 28 -13 63 -38 79 -53 61
-61 133 -190 193 -349 19 -49 35 -387 21 -425 -5 -14 -14 -61 -19 -105 -5 -44
-12 -92 -15 -107 -10 -45 12 -33 52 27 20 30 40 52 45 49 5 -3 15 -26 22 -52
8 -26 18 -47 23 -47 13 0 53 85 70 147 19 73 18 140 -5 217 -11 36 -25 91 -32
121 -6 30 -29 95 -51 143 -49 113 -60 161 -47 212 21 88 37 248 28 272 -5 14
-65 82 -133 153 -137 141 -200 235 -216 319 -14 76 -12 250 3 302 8 24 37 98
64 164 29 67 54 144 57 175 10 85 -9 226 -39 284 -17 32 -21 46 -11 43 129
-50 162 -23 79 64 -39 40 -59 52 -108 65 -34 8 -107 43 -170 80 -129 76 -313
140 -439 154 -102 11 -341 20 -381 14z m-2268 -1069 c43 -8 108 -17 145 -20
73 -7 94 -21 84 -58 -10 -42 -66 -107 -121 -142 -101 -65 -143 -76 -307 -80
-132 -3 -150 -2 -170 15 -19 15 -23 27 -22 74 2 61 30 111 75 132 44 21 184
82 199 87 24 9 35 8 117 -8z m-443 -320 c43 -40 36 -74 -33 -144 -32 -33 -71
-63 -85 -67 -28 -7 -51 -34 -85 -101 -12 -24 -26 -43 -32 -43 -16 0 0 60 27
100 15 21 24 49 24 72 0 31 6 42 35 64 21 16 53 28 80 32 60 6 76 32 46 73
-35 47 -21 55 23 14z m-404 -608 c0 -7 -9 -18 -20 -25 -22 -14 -25 -9 -10 19
12 21 30 26 30 6z"/>
<path d="M5279 3170 c-30 -16 -81 -43 -115 -59 -47 -23 -65 -38 -78 -65 -15
-32 -15 -39 -2 -70 20 -48 53 -55 116 -26 41 19 53 21 81 11 93 -32 209 5 309
98 39 37 51 54 48 72 -3 27 -31 36 -114 38 -28 0 -68 8 -87 16 -55 23 -99 18
-158 -15z m165 -36 c21 -20 21 -88 0 -105 -12 -10 -20 -10 -35 -1 -16 10 -19
9 -19 -7 0 -24 -30 -35 -70 -26 -43 9 -55 37 -34 80 30 63 120 97 158 59z m87
-52 c-12 -23 -38 -35 -46 -22 -3 5 3 11 14 15 11 3 22 13 25 22 4 9 9 13 12
10 3 -3 1 -14 -5 -25z"/>
<path d="M5386 3121 c-4 -7 -5 -15 -2 -18 9 -9 19 4 14 18 -4 11 -6 11 -12 0z"/>
<path d="M5336 3111 c-4 -7 -5 -15 -2 -18 9 -9 19 4 14 18 -4 11 -6 11 -12 0z"/>
<path d="M5425 3110 c-3 -5 -1 -10 4 -10 6 0 11 5 11 10 0 6 -2 10 -4 10 -3 0
-8 -4 -11 -10z"/>
<path d="M5355 3054 c-9 -14 -14 -29 -10 -32 6 -7 44 36 45 51 0 16 -19 6 -35
-19z"/>
<path d="M5416 3061 c-4 -5 -2 -12 3 -15 5 -4 12 -2 15 3 4 5 2 12 -3 15 -5 4
-12 2 -15 -3z"/>
<path d="M5290 3050 c0 -5 7 -10 15 -10 8 0 15 5 15 10 0 6 -7 10 -15 10 -8 0
-15 -4 -15 -10z"/>
<path d="M4853 2745 c-3 -9 -3 -18 0 -22 11 -10 57 7 57 22 0 20 -49 20 -57 0z"/>
<path d="M16791 4243 c-41 -21 -71 -67 -71 -111 0 -26 9 -43 35 -69 32 -32 40
-35 79 -31 55 7 103 39 111 77 10 49 -12 109 -48 131 -39 24 -62 25 -106 3z"/>
<path d="M17845 4240 c-73 -30 -94 -124 -41 -179 25 -26 37 -31 79 -31 42 0
54 5 83 34 58 58 42 141 -32 172 -37 16 -59 17 -89 4z"/>
<path d="M20385 4187 c-44 -23 -94 -51 -110 -63 -17 -12 -63 -38 -102 -59 -98
-50 -154 -108 -310 -316 -73 -98 -154 -196 -180 -219 -28 -24 -112 -72 -201
-116 -84 -41 -177 -90 -205 -109 -29 -19 -68 -37 -87 -41 -62 -10 -88 -25
-104 -59 -9 -18 -16 -40 -16 -48 0 -8 -18 -37 -41 -66 -35 -44 -43 -62 -56
-138 -10 -59 -27 -112 -54 -165 -22 -44 -53 -117 -70 -163 -17 -45 -48 -107
-70 -136 -44 -60 -54 -87 -45 -125 10 -39 102 -78 184 -77 70 1 95 15 119 71
13 32 33 44 33 20 0 -7 -9 -28 -20 -46 -24 -39 -24 -42 -5 -42 9 0 57 40 107
90 75 75 107 98 187 137 132 66 272 203 206 203 -24 0 -18 12 31 71 57 66 66
70 52 25 -19 -60 -9 -68 79 -61 204 16 273 40 373 130 36 32 95 79 131 106
102 75 112 115 47 186 -38 41 -40 45 -18 38 34 -10 90 -65 90 -87 0 -30 31
-34 52 -8 15 18 17 33 13 69 -6 43 -5 45 9 27 9 -11 16 -37 16 -58 0 -49 -39
-93 -136 -154 -70 -44 -93 -72 -82 -104 6 -18 152 -79 207 -86 39 -5 52 -3 56
7 3 8 4 328 3 711 l-3 697 -80 -42z m-580 -883 c60 -9 114 -20 119 -24 20 -20
-116 -195 -174 -225 -67 -34 -123 -47 -181 -41 -38 5 -80 1 -127 -9 -76 -18
-93 -14 -139 28 -34 30 -31 93 5 135 24 29 131 89 237 134 51 22 121 22 260 2z
m-551 -335 c27 -50 16 -81 -46 -126 -64 -47 -130 -111 -168 -165 -20 -27 -30
-35 -30 -24 0 10 9 30 19 45 11 14 22 49 26 76 4 28 11 57 16 65 7 15 99 50
131 50 9 0 21 7 29 16 13 16 12 19 -16 88 -14 33 18 13 39 -25z m-384 -592 c0
-12 -39 -37 -57 -37 -8 0 41 50 50 50 4 0 7 -6 7 -13z"/>
<path d="M19590 3290 c-49 -10 -248 -118 -266 -145 -19 -29 -10 -86 17 -111
18 -16 26 -17 78 -6 31 7 87 12 123 12 101 0 194 32 245 86 24 24 55 62 70 85
33 50 27 55 -77 64 -41 4 -93 10 -115 14 -22 4 -56 4 -75 1z m215 -80 c-19
-21 -37 -18 -28 5 3 8 14 15 26 15 19 0 19 -1 2 -20z m-91 -2 c5 -10 7 -10 12
0 10 20 21 14 33 -20 8 -22 8 -35 1 -42 -7 -7 -12 -4 -16 12 -9 31 -24 28 -24
-5 l0 -28 -20 25 -20 25 0 -27 c0 -17 -5 -28 -14 -28 -8 0 -16 -7 -20 -15 -7
-19 -49 -19 -86 0 -33 17 -39 48 -17 79 22 30 160 48 171 24z"/>
<path d="M19550 3170 c0 -5 5 -10 10 -10 6 0 10 5 10 10 0 6 -4 10 -10 10 -5
0 -10 -4 -10 -10z"/>
<path d="M19635 3150 c3 -5 8 -10 11 -10 2 0 4 5 4 10 0 6 -5 10 -11 10 -5 0
-7 -4 -4 -10z"/>
<path d="M19560 3125 c0 -9 5 -15 11 -13 6 2 11 8 11 13 0 5 -5 11 -11 13 -6
2 -11 -4 -11 -13z"/>
<path d="M19610 3115 c0 -8 5 -15 10 -15 6 0 10 7 10 15 0 8 -4 15 -10 15 -5
0 -10 -7 -10 -15z"/>
<path d="M19118 2847 c-29 -11 -36 -31 -18 -42 15 -9 60 22 60 40 0 17 -4 17
-42 2z"/>
<path d="M3591 4185 c-22 -19 -32 -38 -37 -71 -9 -62 6 -91 61 -115 127 -56
224 89 119 180 -45 40 -99 42 -143 6z"/>
<path d="M2563 4175 c-33 -14 -63 -59 -63 -95 0 -29 26 -76 52 -94 38 -27 103
-21 140 13 29 26 33 35 33 81 0 46 -4 55 -33 81 -36 33 -77 37 -129 14z"/>
<path d="M17265 4178 c-126 -4 -240 -12 -252 -18 -24 -10 -32 -53 -13 -65 17
-10 714 16 728 27 6 6 12 19 12 29 0 42 -30 44 -475 27z"/>
<path d="M18036 4161 c-13 -25 -13 -31 0 -50 35 -49 108 -3 83 53 -17 38 -63
36 -83 -3z"/>
<path d="M16622 4168 c-16 -16 -15 -53 2 -68 21 -17 56 -9 73 17 13 19 12 24
-6 42 -24 24 -51 27 -69 9z"/>
<path d="M0 3460 l0 -699 26 -20 c14 -11 34 -23 45 -26 38 -12 231 60 243 90
11 30 -13 63 -68 94 -114 64 -169 136 -147 194 18 46 31 42 24 -8 -4 -36 -2
-50 12 -65 26 -29 38 -24 60 23 12 24 34 50 53 61 46 26 49 15 7 -27 -35 -35
-44 -71 -29 -111 3 -9 36 -38 73 -64 36 -27 98 -76 136 -110 42 -38 91 -70
124 -82 52 -20 307 -54 325 -43 8 6 4 50 -9 88 -4 11 18 -7 49 -40 59 -64 65
-75 41 -75 -41 0 6 -68 89 -129 51 -37 174 -101 194 -101 6 0 16 -9 22 -20 6
-11 29 -31 50 -45 22 -14 46 -38 54 -54 16 -30 82 -78 94 -67 3 4 -2 20 -11
35 -9 16 -17 36 -17 45 0 29 18 17 30 -19 15 -45 53 -65 123 -65 82 0 162 40
180 91 6 19 -23 89 -47 108 -22 19 -40 54 -72 142 -14 39 -45 111 -69 160 -28
58 -46 110 -50 147 -9 80 -11 85 -55 138 -21 25 -41 62 -45 80 -10 54 -43 85
-101 94 -32 5 -73 23 -111 47 -33 22 -109 61 -169 88 -199 88 -236 121 -426
375 -138 184 -189 235 -283 286 -38 21 -95 55 -126 76 -50 33 -124 70 -196 99
l-23 9 0 -700z m1025 -272 c39 -20 92 -47 118 -59 87 -39 113 -120 58 -181
-25 -28 -35 -32 -72 -31 -326 14 -344 18 -423 97 -61 61 -118 144 -114 166 4
21 171 49 278 46 76 -2 93 -6 155 -38z m254 -303 c-15 -41 -5 -68 27 -73 111
-18 144 -45 144 -115 0 -18 11 -49 25 -69 27 -39 31 -58 15 -58 -5 0 -10 4
-10 9 0 18 -111 141 -141 156 -54 28 -99 75 -99 104 0 27 37 97 46 88 3 -3 0
-22 -7 -42z m411 -607 c0 -4 -11 -2 -25 4 -14 6 -25 17 -25 25 0 11 6 10 25
-4 13 -10 25 -21 25 -25z"/>
<path d="M858 3205 c-3 -3 -45 -10 -94 -16 -105 -11 -124 -16 -124 -32 0 -19
96 -142 122 -155 56 -29 120 -44 208 -49 52 -2 110 -9 128 -15 26 -8 38 -6 57
6 30 20 52 85 37 113 -12 22 -203 127 -260 143 -41 11 -66 13 -74 5z m-121
-80 c9 -26 -4 -28 -26 -6 -21 21 -21 21 -1 21 11 0 23 -7 27 -15z m62 -6 c13
20 137 8 162 -15 41 -37 12 -90 -55 -101 -30 -5 -37 -2 -43 15 -5 11 -12 21
-18 21 -5 1 -10 7 -11 14 -2 28 -5 28 -25 6 l-20 -24 5 27 c8 37 -11 45 -26
11 -11 -26 -12 -27 -15 -6 -3 12 1 32 7 44 10 17 14 19 21 8 8 -12 10 -12 18
0z"/>
<path d="M830 3110 c0 -5 5 -10 10 -10 6 0 10 5 10 10 0 6 -4 10 -10 10 -5 0
-10 -4 -10 -10z"/>
<path d="M940 3085 c0 -8 5 -15 10 -15 6 0 10 7 10 15 0 8 -4 15 -10 15 -5 0
-10 -7 -10 -15z"/>
<path d="M860 3059 c0 -5 5 -7 10 -4 6 3 10 8 10 11 0 2 -4 4 -10 4 -5 0 -10
-5 -10 -11z"/>
<path d="M900 3059 c0 -5 5 -7 10 -4 6 3 10 8 10 11 0 2 -4 4 -10 4 -5 0 -10
-5 -10 -11z"/>
<path d="M925 3041 c-6 -11 9 -23 19 -14 9 9 7 23 -3 23 -6 0 -12 -4 -16 -9z"/>
<path d="M880 3030 c0 -5 7 -10 16 -10 8 0 12 5 9 10 -3 6 -10 10 -16 10 -5 0
-9 -4 -9 -10z"/>
<path d="M1342 2769 c3 -8 16 -21 31 -29 21 -12 29 -12 39 -2 16 16 3 28 -41
37 -26 6 -32 4 -29 -6z"/>
<path d="M3824 4130 c-39 -15 -40 -61 -2 -81 14 -8 25 -6 44 6 50 32 14 95
-42 75z"/>
<path d="M2392 4118 c-7 -7 -12 -24 -12 -38 0 -32 17 -50 45 -50 25 0 55 29
55 52 0 36 -62 62 -88 36z"/>
<path d="M2772 4117 c-18 -21 -6 -56 21 -61 50 -11 697 -12 707 -2 16 16 12
53 -7 61 -10 4 -173 9 -363 12 -308 5 -347 4 -358 -10z"/>
<path d="M17325 4079 c-126 -5 -236 -11 -242 -14 -7 -2 -13 -13 -13 -25 0 -14
15 -27 51 -45 41 -21 55 -35 71 -73 18 -41 20 -56 13 -141 -5 -53 -9 -114 -9
-136 l-1 -40 115 -5 115 -5 -79 -7 c-43 -5 -104 -8 -135 -8 -85 0 -100 -7
-107 -47 -7 -38 -7 -38 -187 -144 -157 -93 -261 -175 -381 -300 -58 -61 -106
-114 -106 -118 0 -3 -23 -40 -50 -81 -123 -183 -203 -383 -241 -600 -12 -69
-23 -130 -24 -136 -2 -6 -40 -14 -88 -17 -164 -13 -268 -63 -253 -123 l7 -26
807 6 c1207 10 2352 26 2379 32 27 7 30 35 6 56 -51 45 -190 88 -284 88 -30 0
-61 4 -69 10 -9 5 -19 5 -27 -1 -9 -8 -14 -2 -20 22 -12 46 -33 49 -33 5 0
-42 -17 -48 -26 -8 -13 60 -23 69 -23 20 l-1 -48 -45 0 c-33 0 -45 4 -45 15 0
18 -17 20 -22 3 -6 -16 -234 -22 -1283 -37 -637 -10 -731 -9 -741 4 -6 8 -15
11 -20 6 -5 -5 -24 -7 -41 -4 -28 5 -33 9 -33 34 0 39 -16 37 -24 -4 -6 -30
-9 -32 -46 -32 -47 0 -46 -4 -26 130 14 87 49 221 62 234 3 3 3 -15 -1 -41
-11 -72 10 -60 35 18 23 76 25 110 8 117 -7 3 0 10 15 16 25 10 28 15 22 41
-6 26 -4 30 16 30 19 0 21 4 16 34 -4 27 -2 35 12 39 9 2 37 40 63 83 52 89
115 167 129 158 16 -9 10 -24 -10 -24 -43 0 -52 -56 -11 -67 23 -6 25 -14 9
-30 -6 -6 -9 -17 -7 -24 2 -7 32 28 67 79 72 105 205 249 294 320 62 49 193
132 209 132 4 0 8 -11 8 -24 0 -47 14 -50 250 -43 225 6 260 12 260 47 0 34
17 31 87 -11 207 -126 379 -308 509 -536 75 -132 104 -218 153 -460 15 -78 31
-117 31 -78 0 10 -5 58 -12 106 -12 93 -8 116 17 83 14 -19 14 -19 15 2 0 12
-5 36 -12 54 -10 31 -12 32 -24 15 -8 -10 -16 -17 -18 -14 -2 2 -23 54 -46
114 -23 61 -52 129 -66 152 -29 50 -30 56 -5 48 28 -9 49 31 28 52 -13 13 -18
13 -40 -1 -23 -16 -25 -15 -39 6 -30 48 -32 54 -11 36 24 -22 29 -22 37 -2 14
36 -33 71 -60 44 -8 -8 -15 -6 -24 5 -7 8 -11 16 -9 18 81 46 99 48 96 10 -2
-22 3 -29 21 -31 17 -3 22 -9 20 -25 -2 -14 5 -25 19 -32 13 -7 20 -14 17 -17
-11 -12 79 -148 97 -148 11 0 26 -14 35 -32 l17 -33 -22 19 c-27 24 -35 16
-20 -18 8 -17 20 -26 34 -26 19 0 28 -15 59 -95 41 -107 96 -297 96 -331 0
-13 5 -26 10 -29 27 -17 2 122 -52 285 -110 338 -303 595 -608 813 -82 58
-282 167 -307 167 -7 0 -13 11 -13 24 0 14 -4 36 -10 50 -9 24 -14 26 -72 27
-54 0 -60 2 -39 12 23 11 23 12 16 132 -6 99 -4 128 9 159 20 49 49 84 92 114
28 18 35 29 32 50 -4 33 -1 33 -323 21z m245 -602 c0 -86 4 -85 -225 -89
l-200 -3 -3 29 c-2 17 -1 49 3 73 l6 43 210 0 209 0 0 -53z m576 -383 c-5 -14
-9 -15 -19 -5 -9 9 -9 14 3 21 18 11 24 6 16 -16z"/>
<path d="M2850 4001 c0 -24 9 -35 43 -58 23 -16 53 -49 67 -73 21 -39 24 -57
23 -133 -1 -48 -4 -105 -8 -126 -5 -28 -2 -43 9 -53 20 -21 11 -28 -39 -28
-49 0 -65 -13 -65 -55 0 -30 -5 -34 -112 -88 -246 -123 -501 -351 -644 -574
-107 -168 -234 -506 -234 -627 0 -45 15 -19 29 49 16 76 76 264 107 332 16 38
27 51 38 47 10 -4 20 5 31 26 18 35 11 55 -9 27 -21 -28 -28 -19 -11 14 10 19
22 29 31 25 9 -4 29 17 59 63 47 71 54 90 33 92 -7 1 1 4 17 8 25 6 30 11 27
33 -2 21 2 27 20 30 19 2 22 8 20 32 -3 26 -1 28 23 22 15 -4 38 -14 51 -22
l23 -16 -40 -59 c-23 -32 -43 -59 -47 -59 -3 0 -14 8 -24 17 -17 16 -20 16
-36 0 -21 -22 -5 -52 27 -51 11 0 21 -1 21 -2 0 -1 -16 -33 -34 -71 -19 -37
-49 -107 -66 -155 -31 -84 -50 -117 -50 -84 0 9 -5 16 -10 16 -13 0 -30 -43
-30 -73 1 -21 1 -22 15 -3 25 33 29 10 17 -83 -15 -108 -15 -124 -2 -116 6 3
10 15 10 27 0 53 75 331 111 415 84 192 262 422 424 548 80 63 191 135 206
135 4 0 9 -10 11 -22 6 -42 38 -48 269 -48 228 0 239 2 239 47 0 13 6 23 14
23 33 0 229 -145 318 -234 77 -76 191 -220 228 -286 5 -8 12 -12 15 -8 4 4 0
17 -9 30 -20 28 -21 44 -1 28 13 -10 17 -7 28 19 l14 32 26 -35 c15 -19 27
-37 27 -40 0 -17 73 -116 85 -116 10 0 14 -11 12 -37 -2 -31 1 -38 16 -37 15
2 17 -3 12 -26 -5 -24 -2 -31 22 -44 15 -8 22 -15 14 -16 -16 0 -10 -48 15
-128 21 -65 39 -69 30 -7 -4 25 -5 45 -2 45 17 0 76 -260 76 -337 0 -26 -3
-28 -39 -29 -37 -1 -40 1 -43 29 -4 41 -28 48 -28 9 0 -26 -4 -30 -32 -35 -18
-2 -39 0 -45 5 -10 8 -13 6 -13 -6 0 -15 -79 -16 -996 -14 -980 3 -996 3
-1010 23 -14 19 -15 19 -20 -3 -5 -18 -13 -22 -50 -22 l-44 0 -1 48 c0 49 -10
40 -23 -20 -9 -40 -26 -34 -26 8 0 44 -21 41 -33 -5 -6 -26 -11 -30 -22 -21
-9 7 -15 8 -20 0 -3 -5 -28 -10 -54 -10 -103 0 -241 -42 -294 -90 -27 -24 -29
-30 -18 -44 12 -15 152 -16 1587 -16 1416 0 1574 2 1588 16 58 57 -51 118
-236 132 l-92 7 -13 87 c-34 241 -106 430 -247 648 -137 213 -305 363 -592
527 -107 62 -119 72 -125 102 -4 19 -13 37 -21 42 -7 5 -70 9 -140 9 -74 0
-129 4 -133 10 -4 6 31 10 99 10 l105 0 -2 159 c-2 182 4 199 81 236 43 20 55
35 46 58 -5 15 -215 27 -456 27 l-118 0 0 -29z m494 -537 c10 -26 7 -122 -4
-129 -18 -11 -383 -5 -397 7 -8 6 -13 34 -13 74 l0 64 204 0 c177 0 205 -2
210 -16z m-972 -429 c0 -5 -5 -11 -11 -13 -6 -2 -11 4 -11 13 0 9 5 15 11 13
6 -2 11 -8 11 -13z m1604 -76 c18 -20 18 -20 -11 -13 -37 8 -39 10 -30 23 9
16 20 13 41 -10z"/>
<path d="M19083 3349 c-58 -28 -93 -72 -93 -114 0 -75 27 -86 64 -26 33 52 62
71 109 71 47 0 77 15 77 39 0 51 -83 67 -157 30z"/>
<path d="M15512 3287 c-25 -26 -28 -52 -8 -60 7 -3 35 -8 62 -12 42 -6 55 -14
96 -59 39 -42 49 -48 58 -36 14 22 12 77 -5 110 -38 74 -156 107 -203 57z"/>
<path d="M17183 3300 c-24 -10 -21 9 -53 -343 -21 -234 -30 -272 -62 -282 -21
-7 -24 -40 -5 -52 13 -8 537 -5 575 4 25 6 32 53 8 53 -7 0 -19 6 -25 14 -14
17 -35 184 -52 406 -7 103 -17 173 -26 188 -13 21 -18 22 -176 21 -89 0 -172
-4 -184 -9z"/>
<path d="M1286 3274 c-38 -38 -12 -74 55 -74 54 0 85 -20 114 -74 22 -40 39
-46 55 -17 27 52 -7 120 -79 158 -52 27 -122 31 -145 7z"/>
<path d="M4868 3280 c-68 -20 -118 -80 -118 -142 0 -66 16 -68 68 -10 40 46
53 54 92 59 58 7 80 19 80 43 0 36 -71 65 -122 50z"/>
<path d="M2973 3253 c-12 -2 -24 -12 -27 -21 -3 -9 -15 -116 -26 -237 -28
-309 -36 -354 -66 -365 -27 -11 -31 -32 -10 -49 9 -8 100 -11 299 -10 245 0
286 3 291 16 10 26 7 43 -9 43 -38 0 -50 68 -84 493 -4 59 -13 113 -20 120
-12 12 -300 20 -348 10z"/>
<path d="M18870 3199 c-76 -70 -165 -117 -235 -125 -46 -5 -70 0 -175 32 -23
7 -24 6 -11 -10 8 -10 38 -30 65 -44 45 -24 62 -27 146 -27 88 0 100 3 162 34
106 53 127 76 134 144 9 74 -2 74 -86 -4z"/>
<path d="M9175 3217 c-19 -19 -37 -46 -40 -60 -10 -40 2 -76 40 -114 28 -28
40 -33 80 -33 42 0 52 5 86 39 32 32 39 46 39 77 0 43 -27 91 -62 110 -13 8
-43 13 -66 14 -37 0 -50 -6 -77 -33z"/>
<path d="M11122 3216 c-34 -31 -37 -39 -37 -86 0 -47 3 -55 37 -86 32 -28 45
-34 84 -34 39 0 51 5 79 33 38 38 50 74 40 114 -3 14 -21 41 -40 60 -28 28
-40 33 -79 33 -39 0 -52 -6 -84 -34z"/>
<path d="M15764 3198 c3 -13 6 -46 6 -74 l0 -50 86 -52 c142 -84 240 -93 342
-29 84 52 105 97 27 57 -45 -23 -170 -28 -226 -8 -62 21 -147 86 -175 133 -17
30 -33 45 -46 45 -16 0 -19 -5 -14 -22z"/>
<path d="M4652 3140 c-77 -124 -269 -184 -395 -124 -20 10 -40 15 -43 11 -12
-11 24 -43 85 -76 100 -53 197 -40 328 42 82 51 83 52 83 93 0 23 3 56 6 73 6
26 4 31 -13 31 -13 0 -31 -17 -51 -50z"/>
<path d="M1551 3143 c2 -66 13 -87 64 -121 104 -68 229 -92 323 -61 40 13 126
68 119 75 -3 3 -33 -5 -68 -17 -122 -41 -216 -15 -341 95 -42 36 -81 66 -87
66 -6 0 -11 -17 -10 -37z"/>
<path d="M7784 3056 c-100 -37 -164 -85 -164 -123 0 -7 16 -27 36 -45 67 -61
225 -277 246 -337 22 -63 19 -137 -8 -246 -26 -104 -169 -352 -301 -527 -28
-36 -56 -84 -63 -105 -7 -21 -27 -60 -45 -88 -57 -88 -80 -133 -72 -141 4 -5
31 0 60 10 35 13 52 15 55 7 7 -22 35 -10 78 35 24 25 46 56 49 70 16 79 14
75 36 63 37 -19 61 17 68 103 6 71 9 78 86 198 44 69 97 160 118 202 28 57 52
89 90 122 29 24 64 55 80 68 19 16 30 38 37 75 5 29 22 71 37 95 64 96 28 175
-163 364 -63 62 -119 126 -127 146 -15 36 -50 78 -64 77 -5 0 -35 -10 -69 -23z"/>
<path d="M9424 3061 c-66 -40 -71 -132 -9 -188 41 -39 84 -43 129 -14 80 53
71 163 -17 204 -45 22 -65 21 -103 -2z"/>
<path d="M10955 3073 c-107 -28 -128 -171 -31 -217 43 -20 71 -20 106 0 79 47
79 168 0 209 -30 15 -40 16 -75 8z"/>
<path d="M12578 3053 c-15 -16 -30 -40 -33 -55 -4 -15 -41 -58 -92 -104 -88
-80 -177 -185 -208 -244 -28 -54 -24 -110 13 -166 18 -26 32 -59 32 -73 0 -34
25 -81 53 -100 70 -48 132 -120 163 -189 19 -40 42 -85 53 -100 10 -15 46 -70
80 -123 51 -80 61 -103 61 -140 0 -88 37 -158 68 -127 15 15 32 1 32 -28 0
-14 5 -35 11 -47 37 -69 119 -133 119 -92 0 18 4 19 38 1 15 -7 39 -16 55 -20
47 -11 39 12 -58 164 -13 19 -28 52 -35 73 -7 21 -34 68 -62 103 -138 180
-277 426 -303 535 -20 88 -19 188 3 247 28 72 235 342 263 342 5 0 9 13 9 28
0 43 -59 89 -158 123 -71 24 -73 24 -104 -8z"/>
<path d="M9125 2929 c-29 -26 -35 -38 -35 -73 0 -84 74 -149 144 -126 55 18
81 54 81 112 0 44 -4 53 -37 84 -51 46 -102 47 -153 3z"/>
<path d="M11182 2926 c-33 -31 -37 -40 -37 -84 0 -58 26 -94 81 -112 70 -23
144 42 144 126 0 35 -6 47 -35 73 -51 44 -102 43 -153 -3z"/>
<path d="M2288 2915 c-9 -19 -9 -28 0 -37 16 -16 57 23 49 46 -10 24 -36 19
-49 -9z"/>
<path d="M16451 2894 c-11 -14 -23 -35 -27 -47 -4 -12 -15 -33 -25 -46 -11
-13 -19 -32 -19 -41 0 -25 42 -34 58 -13 16 23 15 43 -3 43 -21 0 -19 14 6 41
13 16 19 18 16 7 -4 -10 2 -18 15 -22 28 -7 38 0 38 27 -1 67 -28 90 -59 51z"/>
<path d="M20114 2868 c-38 -44 -45 -57 -93 -184 -27 -71 -81 -196 -120 -277
-39 -82 -76 -170 -82 -195 -20 -85 -70 -235 -96 -286 -40 -80 -61 -105 -111
-130 -26 -13 -58 -34 -72 -46 -14 -12 -48 -40 -77 -61 -53 -39 -153 -162 -153
-187 0 -21 85 -10 110 13 19 17 20 17 20 -3 0 -19 6 -22 40 -22 54 0 108 49
130 116 l15 49 58 1 c32 1 60 4 63 6 2 3 9 33 15 68 5 34 20 83 33 109 30 57
135 218 191 291 23 30 55 78 71 105 16 28 51 80 79 117 132 176 166 225 234
337 47 79 42 89 -61 121 -49 15 -103 39 -122 54 -42 32 -47 32 -72 4z"/>
<path d="M3993 2868 c-14 -18 -23 -72 -14 -86 10 -16 51 -3 51 17 1 13 3 13
15 -3 19 -25 19 -46 0 -46 -20 0 -19 -23 3 -42 12 -11 24 -13 40 -7 27 10 27
15 0 59 -12 19 -31 53 -43 74 -23 44 -37 53 -52 34z"/>
<path d="M10208 2850 c-10 -11 -43 -26 -75 -35 -64 -18 -103 -52 -103 -90 0
-13 22 -66 49 -118 73 -143 86 -207 85 -417 -1 -202 -15 -274 -85 -418 -81
-167 -267 -312 -503 -392 -44 -14 -82 -32 -84 -38 -3 -9 168 -12 732 -10 483
2 736 6 735 13 0 6 -35 21 -77 36 -159 52 -314 149 -411 255 -60 66 -123 188
-153 299 -18 67 -22 108 -22 255 -1 210 12 274 85 417 27 52 49 105 49 118 0
38 -39 72 -103 90 -32 9 -67 25 -77 35 -23 23 -20 23 -42 0z"/>
<path d="M18280 2842 c0 -11 -6 -22 -12 -25 -10 -3 -10 -7 0 -20 12 -14 15
-14 34 5 15 15 18 25 11 36 -15 24 -33 26 -33 4z"/>
<path d="M14513 2795 c-29 -18 -89 -43 -133 -56 -44 -12 -80 -28 -80 -35 0 -6
8 -22 19 -35 10 -13 42 -64 71 -114 29 -49 74 -115 99 -144 64 -76 90 -110
178 -236 43 -60 98 -132 123 -160 25 -27 54 -67 64 -87 11 -21 23 -38 28 -38
4 0 8 -6 8 -12 0 -7 18 -42 40 -78 35 -56 40 -73 40 -123 0 -80 21 -99 100
-91 l55 5 28 -60 c22 -48 36 -65 67 -81 51 -26 90 -26 97 0 5 19 6 18 41 -5
42 -28 72 -32 72 -10 0 27 -99 164 -140 194 -22 15 -73 45 -115 66 -44 21 -85
50 -99 68 -48 64 -112 211 -147 336 -12 42 -34 103 -49 136 -15 33 -33 78 -40
100 -7 22 -30 67 -51 101 -52 81 -95 178 -114 255 -16 64 -70 140 -98 138 -6
-1 -36 -16 -64 -34z"/>
<path d="M5852 2779 c-30 -32 -43 -56 -52 -98 -16 -73 -61 -177 -110 -252 -21
-33 -46 -81 -55 -107 -9 -26 -30 -76 -45 -112 -16 -36 -41 -105 -55 -155 -30
-100 -122 -301 -151 -326 -11 -9 -55 -36 -99 -59 -44 -23 -92 -51 -107 -61
-35 -25 -142 -184 -133 -198 9 -15 42 -5 83 26 31 23 32 23 32 4 0 -18 6 -21
40 -21 52 0 115 54 130 111 12 43 43 59 78 40 29 -16 34 -14 69 17 28 26 30
33 26 75 -5 41 -1 54 36 116 22 38 41 72 41 76 0 3 11 21 25 39 14 18 25 36
25 40 0 5 21 31 46 60 26 28 67 80 92 116 80 114 166 230 208 279 23 27 65 88
94 137 29 49 64 104 77 122 14 18 23 38 20 45 -2 7 -35 20 -72 30 -65 18 -136
50 -181 82 -21 15 -24 14 -62 -26z"/>
<path d="M330 2770 c-25 -17 -82 -42 -127 -56 -45 -14 -84 -33 -87 -41 -7 -17
89 -178 159 -268 94 -119 150 -197 181 -249 17 -29 53 -81 81 -117 84 -106
190 -276 201 -321 6 -24 14 -61 19 -83 l8 -40 58 0 c62 0 77 -10 77 -54 0 -16
16 -40 45 -68 36 -34 53 -43 81 -43 27 0 37 5 41 20 5 18 7 18 26 5 23 -16
107 -21 107 -6 0 4 -23 38 -51 75 -51 65 -152 150 -231 193 -23 12 -52 33 -66
45 -52 49 -104 167 -148 337 -14 52 -35 115 -48 140 -62 120 -119 247 -166
366 -35 88 -62 141 -83 162 l-32 33 -45 -30z"/>
<path d="M2191 2781 c-14 -24 -14 -44 -2 -36 6 3 14 -3 20 -12 9 -16 12 -16
21 -3 14 21 12 30 -5 30 -8 0 -12 6 -9 14 9 22 -14 29 -25 7z"/>
<path d="M18330 2770 c0 -23 64 -135 68 -118 2 9 -8 39 -22 66 -25 50 -46 73
-46 52z"/>
<path d="M16442 2716 c-43 -96 -73 -201 -94 -322 -14 -86 -17 -129 -10 -136 7
-7 12 7 17 44 12 103 38 214 76 333 40 126 44 157 11 81z"/>
<path d="M18321 2693 c24 -66 49 -100 49 -68 0 27 -47 125 -59 125 -6 0 -2
-25 10 -57z"/>
<path d="M2152 2707 c-16 -18 -52 -99 -52 -116 0 -27 28 9 50 65 22 54 23 77
2 51z"/>
<path d="M4045 2619 c36 -107 69 -246 80 -341 4 -32 12 -58 17 -58 27 0 -31
291 -82 414 -46 110 -54 103 -15 -15z"/>
<path d="M16392 2698 c-16 -16 -15 -28 2 -28 16 0 29 27 17 34 -4 3 -13 0 -19
-6z"/>
<path d="M16341 2678 c-12 -23 -11 -32 3 -62 9 -20 19 -36 21 -36 2 0 10 10
16 22 9 17 9 24 -4 33 -8 6 -17 24 -19 40 l-4 30 -13 -27z"/>
<path d="M1 2366 l-1 -328 21 14 c12 7 35 33 52 55 41 57 39 104 -8 323 -66
304 -63 307 -64 -64z"/>
<path d="M2159 2646 c-22 -50 -35 -106 -25 -106 8 0 44 78 56 121 13 46 -9 35
-31 -15z"/>
<path d="M4072 2656 c1 -10 8 -17 13 -17 15 1 12 24 -3 29 -9 3 -13 -2 -10
-12z"/>
<path d="M4120 2631 c0 -17 -6 -31 -15 -35 -13 -4 -14 -10 -5 -26 6 -11 14
-20 18 -20 14 0 34 61 28 85 -9 34 -26 31 -26 -4z"/>
<path d="M18430 2642 c0 -5 6 -16 13 -27 16 -20 31 -7 21 19 -6 16 -34 23 -34
8z"/>
<path d="M18400 2608 c0 -7 9 -31 19 -53 18 -37 19 -38 20 -13 1 30 -18 78
-31 78 -4 0 -8 -6 -8 -12z"/>
<path d="M16307 2593 c-4 -3 -7 -22 -7 -42 1 -34 2 -35 15 -17 24 32 17 84 -8
59z"/>
<path d="M2040 2569 c-7 -11 -9 -23 -6 -26 8 -9 36 17 36 33 0 21 -18 17 -30
-7z"/>
<path d="M17213 2580 l-202 -5 -30 -29 c-22 -21 -31 -39 -31 -60 1 -73 16 -76
322 -75 364 2 466 9 484 33 24 34 18 84 -15 117 l-29 29 -149 -2 c-81 -1 -239
-5 -350 -8z"/>
<path d="M4150 2556 c0 -8 5 -27 10 -42 14 -36 32 -18 22 21 -9 31 -32 47 -32
21z"/>
<path d="M18472 2550 c1 -13 9 -25 16 -28 17 -5 15 23 -4 39 -14 11 -15 10
-12 -11z"/>
<path d="M20442 2463 c-35 -158 -36 -178 -18 -227 9 -25 24 -50 32 -56 12 -11
14 14 14 184 0 108 -1 196 -3 196 -2 0 -13 -44 -25 -97z"/>
<path d="M2069 2523 c-5 -15 -8 -36 -6 -47 3 -17 6 -14 20 16 20 43 21 58 7
58 -6 0 -15 -12 -21 -27z"/>
<path d="M16337 2543 c-4 -3 -7 -15 -7 -25 0 -26 24 -17 28 10 3 21 -8 29 -21
15z"/>
<path d="M2759 2512 c-41 -36 -46 -90 -12 -124 21 -21 28 -21 370 -22 275 -1
355 2 381 13 54 23 56 92 4 129 -25 18 -53 20 -368 27 l-341 7 -34 -30z"/>
<path d="M4124 2505 c-4 -9 0 -24 10 -33 15 -15 16 -14 16 10 0 32 -17 46 -26
23z"/>
<path d="M2011 2491 c-14 -26 -14 -44 1 -39 15 5 29 46 18 53 -5 3 -14 -3 -19
-14z"/>
<path d="M9477 2481 c-15 -18 -30 -44 -33 -57 -12 -48 2 -158 26 -209 28 -59
123 -156 212 -216 149 -101 211 -188 211 -294 0 -63 -14 -100 -62 -165 l-26
-34 32 22 c19 14 45 49 64 90 30 61 33 75 33 162 0 73 -5 110 -22 162 -38 111
-135 244 -213 293 -53 34 -131 103 -159 142 -15 22 -27 54 -30 86 l-5 51 -28
-33z"/>
<path d="M10950 2476 c0 -20 -6 -51 -14 -69 -17 -39 -90 -111 -169 -165 -186
-129 -291 -397 -227 -580 22 -62 67 -133 89 -140 7 -3 -1 16 -18 42 -97 140
-48 284 143 418 184 128 255 222 264 348 5 78 -8 127 -43 160 l-25 23 0 -37z"/>
<path d="M16274 2475 c-4 -14 -3 -29 0 -33 9 -8 26 18 26 41 0 26 -19 20 -26
-8z"/>
<path d="M18443 2463 c9 -45 26 -83 37 -83 13 0 13 -3 -5 58 -16 54 -42 74
-32 25z"/>
<path d="M18490 2481 c0 -21 13 -41 26 -41 17 0 17 5 4 31 -11 20 -30 26 -30
10z"/>
<path d="M4186 2461 c-9 -14 2 -51 15 -51 11 0 12 30 0 49 -6 9 -11 10 -15 2z"/>
<path d="M16304 2436 c-8 -21 3 -49 16 -41 5 3 10 15 10 25 0 25 -18 36 -26
16z"/>
<path d="M18412 2410 c2 -19 8 -34 13 -33 17 3 17 27 0 48 -15 19 -15 18 -13
-15z"/>
<path d="M1981 2404 c-10 -22 -9 -25 6 -22 10 2 19 13 21 26 5 30 -12 28 -27
-4z"/>
<path d="M2038 2405 c-21 -41 -30 -83 -19 -89 12 -8 44 76 39 100 -3 16 -7 14
-20 -11z"/>
<path d="M4152 2388 c2 -13 8 -23 13 -23 6 0 11 10 13 23 2 15 -2 22 -13 22
-11 0 -15 -7 -13 -22z"/>
<path d="M16207 2403 c-3 -5 -8 -39 -12 -78 -6 -64 -5 -68 9 -51 9 11 16 32
16 47 0 14 3 41 6 58 6 28 -7 44 -19 24z"/>
<path d="M16257 2404 c-10 -11 -8 -54 2 -54 14 0 25 40 14 51 -5 5 -12 6 -16
3z"/>
<path d="M18515 2400 c-3 -5 0 -22 8 -36 17 -33 31 -16 17 20 -10 28 -15 31
-25 16z"/>
<path d="M17315 2389 c-154 -3 -297 -7 -317 -8 l-38 -1 0 -104 c0 -88 3 -105
17 -110 13 -5 808 12 808 18 0 0 -1 49 -3 109 l-3 107 -92 -2 c-51 -1 -218 -5
-372 -9z"/>
<path d="M2071 2356 c-11 -28 -6 -51 8 -41 13 8 19 42 10 56 -6 10 -11 6 -18
-15z"/>
<path d="M4210 2351 c0 -17 5 -31 10 -31 6 0 10 11 10 24 0 14 -4 28 -10 31
-6 4 -10 -7 -10 -24z"/>
<path d="M4257 2373 c-8 -14 11 -125 24 -137 9 -8 10 5 5 59 -7 66 -18 97 -29
78z"/>
<path d="M16297 2353 c-4 -3 -7 -15 -7 -25 0 -26 24 -17 28 10 3 21 -8 29 -21
15z"/>
<path d="M1965 2337 c-4 -8 -5 -26 -3 -39 4 -23 4 -23 18 5 10 21 11 30 2 39
-8 8 -13 7 -17 -5z"/>
<path d="M2718 2242 c-3 -59 -4 -108 -4 -108 3 -5 732 -11 769 -7 l47 6 0 99
c0 70 -4 100 -12 102 -7 3 -189 7 -404 10 l-392 5 -4 -107z"/>
<path d="M18430 2311 c0 -17 5 -31 10 -31 6 0 10 11 10 24 0 14 -4 28 -10 31
-6 4 -10 -7 -10 -24z"/>
<path d="M18470 2333 c0 -5 4 -15 10 -23 11 -18 25 -7 17 15 -6 15 -27 21 -27
8z"/>
<path d="M4164 2316 c-6 -17 2 -36 17 -36 12 0 12 37 -1 45 -6 3 -13 -1 -16
-9z"/>
<path d="M9968 2263 c-41 -84 -47 -164 -23 -301 10 -53 19 -136 19 -184 1 -49
4 -88 7 -88 4 0 11 12 17 28 55 144 66 258 45 460 -9 83 -20 152 -24 152 -4 0
-23 -30 -41 -67z"/>
<path d="M10427 2178 c-23 -210 -11 -325 48 -470 14 -36 20 -16 21 70 0 48 8
131 18 185 25 137 19 216 -22 300 -18 37 -37 67 -41 67 -4 0 -15 -69 -24 -152z"/>
<path d="M16246 2313 c-3 -3 -6 -22 -6 -42 1 -34 2 -35 15 -17 8 11 15 28 15
37 0 20 -14 32 -24 22z"/>
<path d="M18540 2286 c0 -14 5 -26 10 -26 6 0 10 9 10 19 0 11 -4 23 -10 26
-6 4 -10 -5 -10 -19z"/>
<path d="M16298 2284 c-5 -4 -8 -16 -8 -28 0 -14 3 -17 11 -9 6 6 9 19 7 28
-1 9 -6 13 -10 9z"/>
<path d="M2003 2265 c-8 -22 6 -33 17 -15 13 20 12 30 0 30 -6 0 -13 -7 -17
-15z"/>
<path d="M2056 2265 c-9 -24 -8 -45 3 -45 12 0 20 35 11 50 -5 8 -9 7 -14 -5z"/>
<path d="M4220 2250 c0 -16 5 -30 10 -30 6 0 10 14 10 30 0 17 -4 30 -10 30
-5 0 -10 -13 -10 -30z"/>
<path d="M18380 2251 c0 -12 5 -21 10 -21 6 0 10 6 10 14 0 8 -4 18 -10 21 -5
3 -10 -3 -10 -14z"/>
<path d="M1944 2237 c-4 -10 -2 -23 3 -28 14 -14 24 13 13 32 -7 11 -10 10
-16 -4z"/>
<path d="M4172 2236 c1 -10 8 -17 13 -17 15 1 12 24 -3 29 -9 3 -13 -2 -10
-12z"/>
<path d="M18435 2237 c-4 -10 -3 -23 3 -29 14 -14 21 3 12 27 -7 19 -8 19 -15
2z"/>
<path d="M16187 2233 c-10 -10 -8 -43 2 -43 9 0 21 24 21 41 0 11 -14 12 -23
2z"/>
<path d="M16330 2216 c0 -8 5 -18 10 -21 6 -3 10 1 10 9 0 8 -4 18 -10 21 -5
3 -10 -1 -10 -9z"/>
<path d="M16285 2210 c-8 -13 4 -32 16 -25 12 8 12 35 0 35 -6 0 -13 -4 -16
-10z"/>
<path d="M2105 2197 c-4 -10 -5 -21 -1 -24 10 -10 18 4 13 24 -4 17 -4 17 -12
0z"/>
<path d="M4276 2201 c-8 -12 3 -41 15 -41 12 0 12 37 0 45 -5 3 -12 1 -15 -4z"/>
<path d="M2047 2171 c-5 -22 1 -33 14 -25 12 7 12 44 0 44 -5 0 -11 -9 -14
-19z"/>
<path d="M4130 2174 c0 -8 5 -12 10 -9 6 3 10 10 10 16 0 5 -4 9 -10 9 -5 0
-10 -7 -10 -16z"/>
<path d="M4172 2174 c4 -21 22 -23 26 -1 2 10 -3 17 -13 17 -10 0 -15 -6 -13
-16z"/>
<path d="M18573 1985 c-12 -9 -39 -48 -60 -87 -42 -81 -115 -165 -167 -193
-39 -21 -46 -35 -18 -35 33 0 174 40 216 62 127 64 195 191 134 248 -26 24
-75 26 -105 5z"/>
<path d="M18012 1979 c-43 -13 -109 -79 -161 -162 -47 -74 -118 -143 -155
-153 -41 -10 -30 -24 20 -24 55 0 211 43 279 76 95 48 167 147 151 209 -12 45
-76 71 -134 54z"/>
<path d="M18289 1967 c-18 -12 -56 -59 -84 -104 -68 -110 -114 -160 -175 -185
-27 -11 -50 -25 -50 -30 0 -25 220 22 316 68 99 47 167 153 143 223 -6 17 -19
36 -29 41 -32 17 -85 11 -121 -13z"/>
<path d="M17322 1960 c-63 -39 -89 -119 -59 -186 18 -42 61 -106 86 -128 19
-17 24 -18 47 -5 56 30 94 107 94 191 0 122 -79 182 -168 128z"/>
<path d="M17620 1943 c-28 -29 -44 -59 -64 -123 -22 -68 -36 -94 -72 -130 -24
-25 -44 -50 -44 -54 0 -15 112 1 172 24 65 24 150 96 177 149 19 36 24 64 22
109 -1 31 -55 62 -110 62 -37 0 -49 -6 -81 -37z"/>
<path d="M16062 1954 c-54 -38 -5 -140 97 -201 57 -34 222 -94 256 -92 14 0
16 2 5 6 -40 15 -79 55 -156 159 -102 138 -147 167 -202 128z"/>
<path d="M16626 1949 c-32 -25 -35 -77 -8 -129 24 -45 102 -104 172 -131 65
-25 220 -59 270 -59 l35 0 -30 18 c-16 10 -43 22 -59 26 -41 10 -137 110 -176
184 -44 83 -79 112 -134 112 -29 0 -52 -7 -70 -21z"/>
<path d="M16981 1954 c-31 -22 -51 -73 -51 -128 0 -40 4 -48 48 -87 63 -56
130 -85 225 -98 113 -16 113 -16 54 42 -44 42 -58 65 -77 122 -12 39 -31 85
-42 103 -35 58 -109 79 -157 46z"/>
<path d="M16363 1953 c-35 -7 -66 -52 -59 -88 16 -76 84 -138 191 -173 68 -23
263 -57 272 -49 3 4 -19 17 -50 30 -69 31 -125 82 -194 175 -68 92 -104 115
-160 105z"/>
<path d="M1822 1917 c-30 -32 -28 -74 7 -129 46 -72 121 -116 253 -148 46 -11
89 -20 96 -20 22 0 12 15 -23 34 -52 28 -129 115 -164 185 -18 34 -40 70 -51
81 -29 29 -90 27 -118 -3z"/>
<path d="M2115 1933 c-76 -19 -80 -108 -9 -191 61 -71 202 -128 344 -138 70
-5 74 -4 55 11 -11 9 -32 19 -46 22 -44 9 -114 86 -180 196 -45 77 -107 115
-164 100z"/>
<path d="M2410 1929 c-40 -16 -60 -40 -60 -71 0 -72 81 -162 178 -198 99 -37
204 -61 256 -58 l51 3 -40 18 c-52 23 -96 67 -150 147 -53 80 -108 134 -157
155 -43 17 -44 17 -78 4z"/>
<path d="M3056 1919 c-61 -48 -74 -149 -30 -237 26 -52 83 -100 104 -87 16 10
84 106 98 138 38 88 -16 188 -109 203 -26 4 -41 0 -63 -17z"/>
<path d="M3733 1921 c-18 -12 -49 -50 -74 -92 -62 -107 -112 -156 -196 -195
-40 -18 -73 -36 -73 -39 0 -19 272 44 347 80 60 30 139 112 148 156 19 86 -71
139 -152 90z"/>
<path d="M4312 1914 c-18 -15 -59 -63 -90 -108 -71 -101 -134 -166 -164 -167
-17 -1 -19 -2 -5 -6 21 -6 198 52 247 80 46 27 108 85 126 119 45 86 -35 144
-114 82z"/>
<path d="M2706 1904 c-43 -44 -31 -114 35 -188 43 -49 88 -78 168 -104 70 -24
126 -28 136 -12 4 6 -13 30 -38 53 -36 35 -49 57 -72 127 -38 116 -72 150
-148 150 -45 0 -59 -4 -81 -26z"/>
<path d="M3404 1920 c-30 -12 -60 -53 -79 -108 -32 -91 -67 -152 -106 -181
-21 -15 -37 -30 -34 -33 3 -3 45 1 94 7 104 15 191 56 246 117 37 40 40 58 25
123 -16 70 -79 102 -146 75z"/>
<path d="M4054 1916 c-19 -9 -55 -47 -96 -103 -73 -100 -107 -130 -191 -168
-31 -15 -57 -29 -57 -31 0 -17 261 37 326 67 90 43 155 133 140 194 -10 41
-73 62 -122 41z"/>
<path d="M9552 1888 c-38 -38 10 -106 100 -138 113 -41 145 -64 165 -120 19
-54 32 -64 35 -27 10 162 -97 297 -237 297 -28 0 -56 -5 -63 -12z"/>
<path d="M10744 1876 c-62 -29 -104 -88 -129 -180 -17 -62 -15 -116 5 -116 5
0 12 16 16 35 10 55 49 88 147 125 59 22 96 43 112 62 27 32 32 67 13 86 -20
20 -108 14 -164 -12z"/>
<path d="M17270 1599 c-146 -3 -279 -7 -296 -8 -28 -1 -33 -5 -38 -36 -10 -50
-60 -105 -96 -105 -31 0 -46 -24 -34 -54 6 -14 37 -16 313 -15 444 1 818 12
831 25 16 16 1 43 -29 50 -54 13 -93 46 -118 101 l-24 53 -122 -2 c-67 -1
-241 -5 -387 -9z"/>
<path d="M2704 1553 c-25 -79 -50 -107 -110 -128 -46 -16 -64 -39 -46 -57 10
-10 131 -13 570 -13 l557 0 0 30 c0 25 -4 30 -27 33 -34 4 -86 54 -94 90 -3
15 -7 32 -9 38 -4 14 -183 21 -563 23 -253 1 -273 0 -278 -16z"/>
<path d="M18820 1358 c-421 -3 -1242 -11 -1825 -17 -583 -6 -1523 -16 -2090
-21 -566 -5 -1563 -15 -2215 -22 -1207 -13 -4095 -15 -4340 -4 -200 9 -7879
20 -8132 11 l-218 -7 0 -86 0 -85 173 7 c209 8 6427 9 7497 1 421 -3 1170 -10
1665 -16 592 -6 1212 -6 1810 0 1526 17 1988 21 3955 36 2050 16 4802 35 5153
35 l217 0 0 84 0 84 -142 7 c-79 4 -278 5 -443 3 -165 -1 -644 -6 -1065 -10z"/>
<path d="M18490 1119 c-558 -4 -1742 -12 -2630 -18 -888 -6 -2254 -16 -3035
-22 -1764 -15 -3036 -16 -4520 -6 -1186 7 -3219 10 -6447 8 l-1858 -2 0 -169
c0 -94 3 -170 6 -170 13 0 55 27 139 90 149 112 225 142 400 158 105 9 125 6
125 -15 0 -27 -67 -99 -131 -142 -80 -53 -159 -77 -357 -106 -89 -13 -167 -27
-172 -30 -6 -3 -10 -13 -10 -21 0 -12 45 -14 298 -14 l298 0 18 31 c14 23 41
42 105 71 47 22 118 64 156 93 101 76 179 114 271 130 98 18 224 20 224 4 0
-25 -43 -79 -93 -117 -112 -84 -213 -119 -433 -147 -147 -18 -176 -25 -181
-42 -7 -21 63 -26 340 -21 l272 4 31 31 c18 18 53 38 85 47 56 17 133 63 209
126 98 81 227 120 398 120 l73 0 -23 -29 c-37 -48 -147 -131 -212 -161 -84
-38 -178 -60 -304 -70 -115 -10 -172 -24 -172 -45 0 -20 73 -25 348 -25 l254
0 33 29 c19 16 64 45 102 65 37 20 100 61 138 92 122 98 251 145 402 147 64 1
87 -3 99 -15 15 -15 11 -21 -47 -77 -66 -62 -183 -131 -254 -150 -22 -5 -107
-17 -190 -26 -182 -19 -198 -22 -192 -38 3 -9 87 -13 333 -17 l329 -5 3 -22 3
-22 -330 -3 c-181 -2 -333 -7 -338 -11 -18 -19 33 -36 125 -42 127 -9 226 -29
311 -64 134 -54 234 -127 229 -165 -3 -19 -10 -21 -88 -24 -156 -5 -267 31
-409 135 -41 29 -103 67 -137 84 -35 16 -70 39 -79 51 -20 30 -93 37 -387 37
-231 1 -267 -4 -241 -30 6 -6 81 -18 169 -28 174 -20 249 -41 345 -97 71 -42
164 -128 155 -143 -12 -18 -94 -23 -193 -12 -121 14 -204 52 -313 140 -73 59
-145 101 -174 101 -8 0 -29 15 -47 33 l-32 32 -251 3 c-274 4 -356 -1 -356
-23 0 -18 16 -22 150 -35 193 -18 304 -50 403 -114 58 -37 137 -113 137 -132
0 -22 -110 -27 -206 -9 -113 21 -210 67 -298 139 -80 66 -107 82 -161 92 -27
5 -51 19 -74 43 l-34 36 -251 3 c-272 4 -336 -1 -336 -24 0 -8 6 -14 13 -14 6
0 64 -5 128 -10 194 -16 345 -76 452 -181 75 -72 70 -85 -32 -82 -134 4 -246
42 -321 109 -37 33 -177 112 -228 128 l-22 7 0 -170 0 -171 1308 0 c719 0
1622 -2 2007 -5 385 -2 1456 -7 2380 -10 924 -3 2337 -10 3140 -16 1083 -9
1840 -9 2935 0 811 6 2060 13 2775 16 715 3 1422 7 1570 10 149 3 959 7 1800
10 842 4 1580 8 1640 10 61 2 291 4 513 5 l402 0 0 170 0 170 -82 -43 c-45
-23 -91 -53 -102 -66 -35 -42 -125 -91 -202 -111 -77 -20 -202 -28 -223 -15
-32 19 88 132 199 188 92 46 201 74 320 83 79 6 90 9 90 25 0 18 -14 19 -277
19 -153 0 -283 -4 -289 -8 -6 -4 -13 -15 -17 -24 -8 -22 -65 -58 -90 -58 -32
0 -84 -30 -144 -83 -83 -72 -137 -104 -224 -132 -123 -38 -299 -46 -299 -12 0
6 28 39 63 73 108 105 253 160 492 185 109 11 145 21 145 39 0 19 -54 22 -328
19 l-279 -4 -42 -37 c-22 -21 -49 -38 -59 -38 -23 0 -104 -51 -162 -102 -76
-68 -184 -125 -259 -138 -88 -15 -243 -10 -249 8 -2 7 17 34 43 59 119 113
263 172 474 192 127 13 171 23 171 41 0 20 -59 23 -315 17 -287 -7 -322 -11
-330 -37 -3 -10 -36 -34 -73 -53 -37 -20 -105 -63 -151 -96 -106 -77 -165
-105 -263 -125 -78 -16 -193 -21 -222 -10 -51 20 32 103 169 170 111 54 180
71 340 88 70 7 131 18 137 24 29 29 -7 32 -333 32 l-330 0 3 23 3 22 327 5
c237 4 330 8 339 17 10 10 6 15 -15 23 -15 5 -39 10 -54 10 -71 0 -294 33
-350 51 -72 24 -189 98 -245 156 -33 35 -36 41 -24 58 12 16 27 18 103 17 152
-1 291 -48 384 -129 57 -50 121 -93 185 -126 28 -14 61 -37 74 -51 l24 -26
262 0 c287 0 355 5 355 27 0 22 -47 34 -165 43 -217 17 -347 67 -469 181 -42
39 -73 75 -70 81 4 6 38 8 93 3 212 -16 255 -32 411 -149 52 -39 109 -77 125
-83 17 -6 52 -19 78 -28 26 -9 55 -27 63 -40 13 -20 26 -23 102 -28 128 -9
535 6 539 19 5 15 -42 34 -85 34 -107 0 -343 51 -428 92 -70 33 -167 115 -190
159 -13 27 -13 30 2 36 23 9 199 -4 264 -20 58 -14 163 -73 242 -135 49 -38
74 -53 170 -97 39 -18 63 -36 77 -61 l21 -35 275 2 275 1 0 29 c0 25 -4 29
-29 29 -56 0 -317 49 -371 69 -98 37 -230 154 -230 204 0 19 4 20 103 14 181
-11 302 -56 422 -158 16 -14 47 -38 68 -53 l37 -28 0 166 0 166 -482 -2 c-266
-1 -940 -5 -1498 -9z m-1085 -139 c0 -38 -19 -51 -33 -23 -12 22 3 66 20 61 7
-3 13 -20 13 -38z m-1109 19 c14 -23 -125 -138 -233 -193 -69 -35 -175 -62
-308 -81 -60 -8 -113 -19 -118 -24 -26 -26 14 -29 301 -24 295 5 297 5 317 28
11 12 45 37 76 54 31 17 92 58 135 92 142 110 244 147 427 156 78 4 117 2 117
-4 0 -6 -35 -44 -79 -85 -123 -116 -215 -153 -456 -182 -137 -17 -155 -22
-155 -44 0 -13 36 -14 330 -9 l330 5 0 -22 0 -23 -326 -6 c-303 -5 -364 -11
-342 -32 3 -3 70 -12 149 -21 79 -8 164 -19 189 -25 169 -37 381 -173 368
-237 -3 -15 -15 -17 -88 -16 -115 1 -267 52 -400 133 -52 33 -129 76 -170 96
-41 20 -89 51 -107 68 l-32 30 -297 -6 c-163 -3 -301 -10 -306 -15 -22 -22 29
-35 191 -48 236 -19 309 -47 437 -166 76 -71 93 -96 73 -109 -31 -20 -154 -6
-285 33 -52 14 -99 39 -170 89 -55 37 -141 88 -191 113 -68 33 -96 52 -105 72
l-13 27 -305 -7 c-171 -4 -309 -11 -314 -16 -22 -22 19 -34 153 -46 77 -7 170
-20 208 -29 106 -27 214 -87 278 -157 77 -83 73 -94 -39 -90 -163 4 -247 34
-408 144 -48 33 -122 73 -165 89 -43 16 -82 36 -88 45 -32 52 -16 50 -352 44
-171 -3 -315 -9 -319 -13 -16 -16 19 -24 129 -31 182 -10 341 -57 482 -144 62
-38 143 -117 131 -129 -12 -13 -279 15 -336 35 -82 28 -156 68 -235 125 -38
28 -98 61 -133 75 -46 18 -66 31 -73 49 -10 28 -12 103 -3 128 4 9 48 36 98
59 50 24 125 69 166 100 133 102 193 124 363 133 110 6 117 5 117 -13 0 -31
-126 -141 -211 -183 -89 -45 -172 -65 -347 -85 -110 -12 -156 -25 -141 -41 15
-14 123 -17 374 -10 l276 7 11 24 c7 16 40 39 91 64 43 22 96 53 116 69 107
85 300 159 439 168 95 7 103 -2 51 -61 -79 -90 -246 -167 -451 -207 -159 -31
-172 -35 -162 -51 6 -10 527 -3 586 8 17 3 28 13 32 30 5 17 26 34 79 60 39
20 114 66 165 101 111 77 180 107 282 122 153 23 187 24 196 10z m-13178 -38
c2 -12 1 -29 -2 -38 -9 -22 -36 2 -36 32 0 41 32 47 38 6z m676 -6 c102 -33
124 -45 231 -125 50 -37 110 -78 135 -90 25 -12 54 -32 65 -46 l20 -24 293 -1
c162 0 296 2 300 5 15 16 -24 29 -120 41 -189 24 -279 54 -398 135 -87 59
-145 114 -135 129 10 18 161 6 261 -19 86 -22 127 -42 217 -108 38 -28 104
-67 147 -88 60 -28 82 -44 89 -64 6 -19 18 -29 41 -34 52 -10 580 -7 580 3 0
12 -16 17 -130 36 -151 26 -208 43 -319 98 -105 52 -207 134 -199 160 12 34
209 4 349 -54 39 -15 114 -58 168 -93 54 -36 118 -74 143 -85 25 -10 54 -32
66 -47 l20 -29 313 -3 c188 -2 316 1 322 7 17 17 -28 30 -167 46 -204 24 -313
62 -427 151 -57 45 -99 94 -99 115 0 9 31 10 118 6 162 -7 226 -29 344 -117
90 -68 121 -86 221 -128 49 -22 67 -48 67 -101 0 -64 -17 -87 -90 -119 -37
-16 -93 -49 -124 -71 -80 -59 -207 -120 -284 -137 -87 -19 -292 -31 -292 -17
0 28 113 114 215 163 133 64 224 87 396 103 135 12 167 26 93 39 -21 4 -166 7
-321 7 -272 1 -282 0 -288 -19 -9 -29 -50 -57 -110 -75 -31 -9 -95 -43 -151
-81 -126 -87 -205 -122 -309 -140 -94 -17 -196 -15 -202 3 -2 6 24 41 58 77
104 112 241 164 481 185 136 12 158 17 158 36 0 20 -74 25 -360 25 l-267 0
-11 -26 c-9 -18 -37 -37 -95 -64 -46 -21 -118 -63 -161 -94 -101 -72 -182
-111 -278 -130 -83 -17 -204 -21 -212 -7 -15 24 125 156 214 201 84 43 153 58
317 70 152 11 173 15 173 35 0 19 -81 25 -356 25 l-251 0 -24 -26 c-13 -14
-60 -44 -104 -66 -44 -22 -119 -65 -167 -94 -214 -135 -555 -197 -484 -89 45
69 222 171 347 199 35 8 126 22 203 30 76 8 141 18 144 21 20 19 -41 25 -293
25 -333 2 -365 5 -365 32 0 19 7 20 319 16 176 -1 323 0 327 5 20 20 -29 36
-156 51 -236 27 -311 56 -441 169 -111 95 -108 102 39 94 86 -5 140 -14 196
-32z m10462 -2 c9 -33 -16 -58 -49 -49 -36 9 -46 45 -18 67 27 22 59 13 67
-18z m-7978 15 c33 -33 -6 -91 -47 -69 -27 15 -32 35 -15 60 17 23 44 27 62 9z
m7117 -13 c14 -13 25 -29 25 -36 0 -32 -73 -52 -98 -27 -19 19 -14 55 10 72
30 21 35 20 63 -9z m3904 6 c11 -11 25 -39 31 -63 20 -77 26 -91 44 -102 29
-18 56 25 56 90 0 43 4 56 22 68 62 44 182 -19 222 -116 9 -21 16 -47 16 -58
0 -33 -44 -70 -82 -70 -37 0 -78 -24 -78 -45 0 -19 28 -33 81 -41 106 -17 120
-114 27 -200 -43 -41 -90 -64 -133 -66 -52 -2 -65 15 -65 84 0 74 -12 98 -49
98 -44 0 -55 -21 -47 -91 8 -72 -8 -109 -50 -109 -84 0 -234 143 -234 223 0
34 20 47 82 56 65 9 78 16 78 44 0 35 -13 46 -63 56 -63 11 -87 34 -87 81 0
107 166 224 229 161z m-10156 -12 c19 -27 11 -54 -20 -68 -20 -9 -30 -9 -49 4
-28 18 -31 41 -7 67 22 24 58 23 76 -3z m657 8 c0 -8 -26 -45 -57 -82 -106
-125 -230 -171 -495 -184 -87 -4 -161 -11 -165 -14 -20 -21 39 -27 325 -33
l313 -7 27 25 c15 14 65 43 112 66 50 24 118 68 165 108 124 104 210 134 388
134 90 0 101 -10 67 -65 -32 -52 -96 -102 -185 -145 -93 -45 -193 -67 -360
-81 -65 -5 -121 -12 -124 -14 -15 -16 40 -20 302 -25 l292 -6 31 26 c17 14 57
36 90 49 32 12 84 40 114 61 214 153 258 174 402 190 93 11 148 6 148 -11 0
-21 -57 -83 -117 -129 -81 -62 -199 -100 -408 -135 -88 -14 -162 -28 -164 -31
-15 -15 44 -19 317 -22 l307 -4 10 23 c6 14 41 38 90 63 44 23 105 60 135 82
72 54 154 104 171 104 8 0 37 12 64 27 46 24 60 27 170 27 114 1 120 0 123
-20 2 -15 -15 -38 -60 -80 -119 -111 -253 -161 -458 -170 -158 -7 -182 -11
-178 -32 3 -15 32 -17 315 -22 171 -3 314 -7 316 -10 3 -3 7 -14 9 -25 3 -20
-4 -20 -309 -25 -385 -6 -409 -14 -177 -55 232 -41 353 -83 446 -157 42 -33
82 -93 73 -108 -10 -16 -165 -12 -226 6 -75 23 -136 55 -263 140 -61 41 -136
84 -169 96 -41 15 -62 29 -72 48 -10 20 -24 29 -52 34 -49 8 -536 8 -557 0 -9
-3 -16 -13 -16 -21 0 -11 13 -14 58 -13 74 2 347 -75 451 -126 47 -23 97 -59
135 -96 59 -58 60 -60 41 -75 -16 -12 -37 -14 -105 -9 -172 12 -261 49 -394
161 -63 53 -131 92 -199 115 -21 7 -53 25 -70 40 l-32 28 -286 7 c-199 5 -288
4 -293 -3 -10 -17 24 -30 94 -37 114 -12 285 -52 338 -79 92 -47 189 -115 221
-155 49 -62 45 -65 -71 -57 -176 11 -272 47 -409 151 -41 31 -111 74 -156 95
-51 25 -84 47 -88 60 -3 11 -16 22 -28 25 -12 3 -154 6 -316 8 -223 1 -295 -1
-298 -10 -6 -16 17 -20 159 -33 193 -17 321 -69 453 -183 72 -63 94 -95 74
-108 -24 -17 -217 -4 -274 18 -28 11 -113 62 -190 114 -77 52 -156 101 -175
108 -19 6 -51 20 -70 30 -31 16 -35 24 -38 62 -6 74 2 86 80 124 39 19 105 59
147 89 121 84 202 120 342 151 87 18 189 19 189 2z m4390 2 c91 -14 153 -45
245 -123 47 -40 115 -84 165 -108 47 -23 97 -52 112 -66 l27 -24 309 7 c170 4
316 11 323 16 28 18 -13 26 -154 31 -260 10 -395 59 -499 183 -32 37 -58 74
-58 82 0 20 107 16 211 -6 122 -27 195 -60 315 -141 58 -39 127 -82 154 -94
76 -35 80 -41 80 -107 0 -67 -6 -73 -100 -108 -30 -12 -93 -48 -140 -81 -138
-97 -211 -138 -275 -155 -66 -17 -230 -21 -240 -5 -10 16 25 59 99 122 129
108 271 160 481 175 88 6 110 11 110 23 0 13 -38 15 -295 13 -162 -1 -305 -5
-317 -8 -12 -3 -25 -14 -28 -25 -4 -13 -39 -37 -93 -64 -48 -24 -114 -65 -147
-91 -73 -57 -175 -110 -253 -130 -31 -9 -103 -18 -159 -22 -118 -7 -124 -2
-71 61 32 39 127 105 215 149 57 29 193 62 317 77 49 6 98 15 108 21 47 25 -2
29 -280 23 -282 -6 -287 -7 -312 -30 -14 -12 -63 -39 -110 -58 -54 -23 -112
-58 -160 -96 -150 -121 -228 -154 -389 -167 -85 -6 -131 0 -131 19 0 7 27 38
59 69 87 85 173 124 411 185 58 15 109 29 114 32 6 3 31 4 57 3 48 -2 74 14
48 30 -16 10 -419 12 -531 3 -69 -6 -75 -9 -85 -34 -7 -20 -24 -32 -71 -49
-34 -13 -115 -58 -181 -102 -196 -128 -252 -149 -393 -149 -103 0 -110 9 -56
74 77 94 229 157 468 196 74 12 144 27 155 33 19 10 19 11 -5 18 -14 4 -159 7
-323 8 l-298 1 3 22 c2 16 12 25 33 29 17 4 159 7 317 8 282 1 318 5 290 33
-6 6 -75 15 -152 19 -78 5 -172 16 -207 24 -154 36 -352 181 -329 241 10 26
227 16 282 -14 21 -11 64 -31 94 -45 30 -13 97 -54 148 -91 51 -37 121 -80
156 -96 42 -18 67 -36 71 -50 l7 -22 308 4 c275 3 334 7 319 23 -3 2 -66 14
-142 25 -274 42 -383 84 -490 191 -38 38 -66 73 -62 79 8 13 160 13 227 -1 78
-16 161 -59 268 -138 54 -41 125 -83 165 -98 38 -16 83 -40 100 -54 l30 -25
292 6 c161 3 295 9 299 13 14 14 -5 18 -97 23 -273 15 -491 103 -569 229 -34
55 -23 65 67 65 43 0 107 -5 143 -11z m-8891 -19 c77 -39 134 -132 116 -189
-8 -25 -54 -51 -90 -51 -24 0 -65 -31 -65 -49 0 -18 32 -41 57 -41 50 0 103
-22 109 -45 18 -74 -141 -235 -232 -235 -43 0 -57 27 -49 97 6 54 4 68 -11 84
-21 23 -42 24 -66 2 -14 -12 -18 -31 -18 -79 0 -57 -3 -65 -25 -80 -71 -46
-235 76 -235 175 0 32 42 69 86 76 56 9 84 22 84 39 0 22 -40 46 -78 46 -37 0
-82 37 -82 68 0 10 11 41 25 69 32 64 88 104 153 111 62 6 82 -12 82 -73 0
-54 17 -95 40 -95 25 0 38 20 51 78 13 63 51 112 85 112 14 0 42 -9 63 -20z
m10511 -14 c0 -13 -7 -29 -15 -36 -12 -10 -16 -7 -25 16 -9 23 -8 31 6 41 22
16 34 8 34 -21z m-7115 13 c9 -14 -3 -59 -15 -59 -13 0 -32 48 -24 61 7 12 31
11 39 -2z m174 -37 c44 -36 109 -119 113 -147 9 -49 -14 -68 -109 -94 -47 -13
-72 -43 -53 -66 6 -7 32 -16 58 -20 88 -13 127 -65 102 -139 -15 -45 -88 -111
-139 -127 -38 -11 -44 -10 -69 8 -17 13 -34 42 -47 79 -17 50 -24 59 -47 62
-32 4 -43 -13 -52 -82 -9 -69 -28 -96 -69 -96 -51 0 -127 59 -178 139 -57 89
-21 161 80 161 33 0 51 16 51 47 0 17 -7 24 -27 28 -74 15 -104 27 -114 46
-26 50 20 130 108 188 51 34 89 39 133 16 27 -14 30 -20 30 -68 0 -80 43 -127
70 -76 6 11 10 35 9 52 -4 56 0 74 23 102 18 23 26 26 56 21 20 -3 52 -18 71
-34z m6857 17 c14 -15 20 -41 24 -93 5 -66 7 -71 29 -74 31 -5 41 12 41 75 0
40 5 57 21 72 29 26 69 34 104 21 40 -15 113 -77 136 -114 41 -67 12 -136 -56
-136 -22 0 -43 -8 -56 -21 -18 -18 -19 -23 -6 -42 10 -16 28 -24 62 -28 49 -5
95 -42 95 -75 0 -52 -67 -147 -137 -193 -84 -56 -130 -34 -144 66 -5 36 -15
63 -29 77 l-21 21 -25 -28 c-13 -15 -24 -38 -24 -50 0 -38 -36 -84 -70 -92
-43 -10 -115 29 -157 84 -63 82 -35 171 60 186 69 11 77 15 77 40 0 28 -34 49
-94 58 -96 15 -99 82 -8 187 67 79 139 102 178 59z m-3479 -9 c4 -21 -13 -44
-26 -36 -6 4 -11 18 -11 32 0 19 5 25 17 22 10 -2 19 -10 20 -18z m-80 -25
c15 -11 24 -30 28 -63 4 -26 11 -60 17 -75 9 -24 13 -26 25 -15 7 8 18 41 23
74 11 69 34 94 87 94 49 0 98 -26 139 -73 81 -95 57 -170 -61 -192 -73 -13
-89 -32 -62 -69 10 -14 28 -19 75 -20 76 -1 106 -25 104 -81 -2 -44 -14 -66
-65 -122 -72 -78 -154 -105 -193 -62 -12 14 -19 40 -22 84 -5 79 -24 102 -53
66 -14 -17 -18 -33 -13 -56 13 -71 -37 -127 -99 -111 -70 17 -167 117 -182
187 -13 59 45 106 115 95 26 -4 40 -1 57 16 41 38 26 58 -52 73 -52 9 -92 30
-106 57 -24 45 32 144 106 190 36 22 103 23 132 3z m6923 -200 c6 -8 9 -19 5
-25 -14 -23 -62 -2 -52 24 8 20 31 21 47 1z m-13640 -20 c0 -19 -32 -36 -49
-25 -8 4 -11 15 -8 24 8 20 57 22 57 1z m14270 1 c0 -19 -28 -28 -51 -15 -26
14 -15 29 22 29 18 0 29 -5 29 -14z m-14885 -15 c8 -14 -30 -32 -49 -25 -30
11 -16 34 20 34 13 0 25 -4 29 -9z m3545 -32 c0 -5 -9 -9 -20 -9 -22 0 -27 16
-7 23 15 5 27 -1 27 -14z m619 8 c6 -8 8 -17 4 -20 -12 -12 -53 -7 -53 6 0 28
30 37 49 14z m6516 -7 c0 -17 -28 -25 -53 -15 -15 6 -15 8 3 21 24 18 50 14
50 -6z m605 4 c0 -11 -5 -14 -16 -10 -9 3 -18 6 -20 6 -3 0 -2 5 1 10 10 16
35 12 35 -6z m-4176 -20 c22 -9 10 -24 -20 -24 -15 0 -24 6 -24 15 0 16 17 19
44 9z m616 -4 c0 -15 -27 -23 -47 -16 -15 6 -15 8 -3 16 20 13 50 12 50 0z
m6845 -268 c-3 -7 -9 -10 -15 -7 -12 7 -14 58 -3 69 9 9 25 -44 18 -62z
m-3115 15 c0 -27 -34 -67 -56 -67 -31 0 -54 21 -54 49 0 32 14 47 50 53 35 6
60 -9 60 -35z m-11180 4 c0 -32 -14 -49 -25 -31 -9 15 3 60 15 60 6 0 10 -13
10 -29z m3162 12 c22 -20 23 -41 1 -65 -24 -27 -58 -22 -83 12 -17 23 -19 34
-10 50 13 25 66 27 92 3z m846 1 c37 -26 23 -74 -23 -74 -42 0 -59 44 -29 74
19 20 24 20 52 0z m6273 6 c23 -13 25 -53 3 -70 -11 -10 -23 -11 -42 -4 -35
12 -41 47 -10 68 27 19 24 19 49 6z m-6693 -54 c2 -10 -1 -23 -7 -29 -16 -16
-34 6 -26 33 8 24 28 22 33 -4z m7100 -9 c2 -19 -1 -27 -12 -27 -20 0 -29 16
-21 41 9 27 29 19 33 -14z m-3558 -41 c0 -3 -4 -8 -10 -11 -5 -3 -10 -1 -10 4
0 6 5 11 10 11 6 0 10 -2 10 -4z"/>
<path d="M17332 727 c-30 -32 -30 -90 0 -111 30 -22 81 -20 101 2 25 28 21 78
-8 107 -30 31 -65 32 -93 2z"/>
<path d="M3065 705 c-70 -69 12 -165 89 -104 32 25 34 66 5 103 -26 33 -62 34
-94 1z"/>
<path d="M6630 660 c-11 -11 -20 -24 -20 -29 0 -5 -3 -16 -6 -24 -9 -24 35
-57 77 -57 67 0 102 79 52 118 -26 19 -80 15 -103 -8z"/>
<path d="M13736 669 c-52 -41 -21 -119 47 -119 88 0 108 100 26 129 -42 14
-42 14 -73 -10z"/>
<path d="M10182 640 c-28 -26 -28 -60 -1 -94 28 -35 70 -35 98 0 28 36 26 68
-5 93 -34 27 -64 27 -92 1z"/>
<path d="M18885 163 c-214 -1 -1139 -7 -2055 -12 -916 -6 -2070 -13 -2565 -16
-495 -3 -1476 -10 -2180 -16 -1717 -14 -2012 -14 -3640 -1 -770 7 -1692 14
-2050 17 -357 3 -1943 8 -3522 12 l-2873 6 0 -76 0 -77 9523 0 c5237 0 9843 3
10235 7 l712 6 0 79 0 78 -597 -2 c-329 -2 -773 -4 -988 -5z"/>
</g>
</svg>
