<?xml version="1.0" encoding="UTF-8"?>
<svg version="1.1" xmlns="http://www.w3.org/2000/svg" width="14" height="98">
<path d="M0 0 C0.66 0 1.32 0 2 0 C2.81618768 3.85339515 3.62728585 7.70784481 4.4375 11.5625 C4.66759766 12.64853516 4.89769531 13.73457031 5.13476562 14.85351562 C9.68401342 36.54485654 9.68401342 36.54485654 6.625 47.375 C4.11166299 56.35630856 3.72507373 65.73675997 3 75 C3.66 75 4.32 75 5 75 C7.08901197 78.39464446 7.34361606 81.04841529 7 85 C6.01 85.99 6.01 85.99 5 87 C4.53993654 89.20250992 4.53993654 89.20250992 4.375 91.625 C4.30023438 92.44226563 4.22546875 93.25953125 4.1484375 94.1015625 C4.09945313 94.72804688 4.05046875 95.35453125 4 96 C2.02 96 0.04 96 -2 96 C-2.04898437 95.37351562 -2.09796875 94.74703125 -2.1484375 94.1015625 C-2.22320312 93.28429687 -2.29796875 92.46703125 -2.375 91.625 C-2.44460938 90.81289062 -2.51421875 90.00078125 -2.5859375 89.1640625 C-2.82892588 86.79665809 -2.82892588 86.79665809 -5 85 C-5.34361606 81.04841529 -5.08901197 78.39464446 -3 75 C-2.34 75 -1.68 75 -1 75 C-2.01366678 59.77458426 -2.01366678 59.77458426 -5.4140625 44.9609375 C-7.30851065 35.38765949 -5.35932185 25.94445203 -3.5625 16.5 C-3.33240234 15.23929688 -3.10230469 13.97859375 -2.86523438 12.6796875 C-1.17378827 3.5213648 -1.17378827 3.5213648 0 0 Z M0 26 C0 29.96 0 33.92 0 38 C0.66 38 1.32 38 2 38 C2 34.04 2 30.08 2 26 C1.34 26 0.68 26 0 26 Z " fill="#000000" transform="translate(6,0)"/>
</svg>
