<?xml version="1.0" encoding="UTF-8"?>
<svg version="1.1" xmlns="http://www.w3.org/2000/svg" width="390" height="500">
<path d="M0 0 C1.5897251 1.49322421 3.17342353 2.99289978 4.75 4.5 C5.44867188 5.12390625 6.14734375 5.7478125 6.8671875 6.390625 C15.83685886 14.6971689 20.79990143 24.9598689 25.125 36.1875 C25.62580078 37.48723755 25.62580078 37.48723755 26.13671875 38.81323242 C28.74707953 45.89034481 30.75 52.91800605 30.75 60.5 C31.64924194 60.53758423 31.64924194 60.53758423 32.56665039 60.57592773 C35.31543324 60.69285773 38.06395375 60.81513947 40.8125 60.9375 C41.75544922 60.97681641 42.69839844 61.01613281 43.66992188 61.05664062 C44.59482422 61.09853516 45.51972656 61.14042969 46.47265625 61.18359375 C47.31578369 61.22025146 48.15891113 61.25690918 49.02758789 61.29467773 C52.29530259 61.54112631 55.50829451 62.02572835 58.75 62.5 C58.94943435 109.70559941 58.42677903 156.9029539 57.91577756 204.10510302 C57.82288646 212.71477432 57.73449926 221.32448749 57.64716727 229.93421674 C57.56117716 238.39867305 57.47265235 246.86310033 57.38215441 255.32750964 C57.32882556 260.31609807 57.27627724 265.30469064 57.2261219 270.29331207 C56.98272025 294.37216475 56.54252975 318.43259405 55.75 342.5 C56.41 342.83 57.07 343.16 57.75 343.5 C56.75 344.5 56.75 344.5 54.80478519 344.6241985 C53.94244032 344.62381878 53.08009545 344.62343906 52.19161892 344.62304783 C51.20034353 344.62503888 50.20906814 344.62702993 49.18775409 344.62908131 C48.08563762 344.62616847 46.98352115 344.62325563 45.8480072 344.62025452 C44.68742391 344.62110894 43.52684061 344.62196337 42.33108813 344.62284368 C39.09528578 344.62421184 35.85952296 344.62106447 32.6237253 344.61606562 C29.13972939 344.61176434 25.65573548 344.61320731 22.17173767 344.6139679 C16.13069657 344.61449334 10.08966624 344.61134444 4.04862785 344.60573006 C-4.68579829 344.59761777 -13.42021921 344.59500012 -22.15464871 344.59374207 C-36.32421212 344.59155112 -50.49376979 344.58488988 -64.66333008 344.57543945 C-78.43123343 344.56626644 -92.19913523 344.55918507 -105.96704102 344.55493164 C-106.81508504 344.55466892 -107.66312906 344.55440619 -108.53687138 344.55413551 C-112.79107697 344.55283051 -117.04528258 344.55156679 -121.29948819 344.55032361 C-156.61632955 344.53994966 -191.93316425 344.52233019 -227.25 344.5 C-227.24770889 343.5760141 -227.24541779 342.6520282 -227.24305725 341.70004272 C-227.18969678 316.48321448 -227.36153847 291.27380646 -227.65385818 266.05880737 C-227.71181313 261.00472063 -227.76680575 255.95060166 -227.82202148 250.89648438 C-227.98575922 235.95418756 -228.15342234 221.01193519 -228.32287598 206.06970215 C-228.48946316 191.37983775 -228.65359952 176.68994973 -228.8125 162 C-228.82345451 160.99034431 -228.83440903 159.98068863 -228.8456955 158.94043732 C-229.19325625 126.79231624 -229.39858929 94.65015113 -229.25 62.5 C-225.7087501 62.16213906 -222.16694184 61.83052169 -218.625 61.5 C-217.62597656 61.40460938 -216.62695312 61.30921875 -215.59765625 61.2109375 C-210.79861994 60.76599374 -206.07618926 60.36822691 -201.25 60.5 C-201.1675 59.283125 -201.085 58.06625 -201 56.8125 C-198.23102135 32.75232068 -185.12410711 11.22875772 -166.58398438 -3.85546875 C-151.33511326 -15.5026676 -132.2852598 -25.51483706 -113.25 -28.5 C-112.5580957 -28.60989258 -111.86619141 -28.71978516 -111.15332031 -28.83300781 C-71.45138411 -34.87112193 -30.70808295 -27.10080815 0 0 Z M-137.25 17.5 C-138.3968847 18.26079475 -139.54403383 19.02119099 -140.69140625 19.78125 C-157.70448308 31.25084359 -170.06103972 46.82258761 -174.8359375 66.97265625 C-175.99507332 74.04775886 -175.52818836 81.46996404 -174.25 88.5 C-175.735 88.995 -175.735 88.995 -177.25 89.5 C-116.53 89.5 -55.81 89.5 6.75 89.5 C5.76 88.51 4.77 87.52 3.75 86.5 C4.04296875 84.1484375 4.04296875 84.1484375 4.75 81.5 C6.31567515 64.50857458 0.08332885 50.21139736 -10.36401367 37.1887207 C-27.39423869 16.74639696 -54.34096892 1.67950613 -80.9453125 -0.8515625 C-101.12063702 -1.61365229 -120.8519192 6.16305525 -137.25 17.5 Z M-201.25 90.5 C-201.25 163.1 -201.25 235.7 -201.25 310.5 C-167.610625 310.685625 -133.97125 310.87125 -99.3125 311.0625 C-88.73324463 311.12381104 -78.15398926 311.18512207 -67.25415039 311.24829102 C-57.68114854 311.29828825 -57.68114854 311.29828825 -48.10813904 311.3467865 C-43.88005086 311.3682464 -39.65199393 311.39283217 -35.42393494 311.41941833 C-29.99847737 311.45342667 -24.57301546 311.48181049 -19.14750755 311.50645053 C-17.17654478 311.51629947 -15.20558988 311.52797676 -13.23465168 311.5418998 C1.47496386 311.64423326 16.02412713 311.08903491 30.75 310.5 C30.75 237.9 30.75 165.3 30.75 90.5 C28.77 90.17 26.79 89.84 24.75 89.5 C24.75 161.77 24.75 234.04 24.75 308.5 C-47.85 308.5 -120.45 308.5 -195.25 308.5 C-195.25 236.23 -195.25 163.96 -195.25 89.5 C-199.0263932 89.2018576 -199.0263932 89.2018576 -201.25 90.5 Z " fill="#000000" transform="translate(280.25,132.5)"/>
<path d="M0 0 C2 1 2 1 2.859375 3.1875 C3.15328125 4.115625 3.4471875 5.04375 3.75 6 C8.89110616 20.53821963 18.54195752 27.08109247 31.86328125 33.6171875 C41.5612645 37.89251262 52.07666291 36.69973325 61.91796875 33.33203125 C70.58870872 29.58460118 76.72390122 24.14815522 81.75 16.25 C83.45873152 11.80729805 83.67932235 7.74602928 84 3 C87.3 3 90.6 3 94 3 C94.08636719 3.7734375 94.17273438 4.546875 94.26171875 5.34375 C95.56104661 14.97546479 98.30366069 21.4932195 105.984375 27.62109375 C116.29119645 34.67207819 126.58786563 37.17372429 139 36 C151.09062523 33.16273328 163.5237717 25.88537683 170.1875 15.25 C172.96172693 10.35605545 175.08874408 5.28406047 177 0 C179 1 179 1 180.26513672 4.25952148 C180.74413745 5.71093043 181.2150643 7.16501858 181.6796875 8.62109375 C181.93372345 9.39501968 182.1877594 10.16894562 182.44949341 10.96632385 C183.26509854 13.45446163 184.07060942 15.94571628 184.875 18.4375 C193.10281862 43.77130735 201.9998204 62.53982868 226.5625 75.34765625 C239.29569249 81.46827037 250.27232902 81.66112082 265 83 C265 100.16 265 117.32 265 135 C247.76092023 135 247.76092023 135 239.34765625 134.34375 C238.43664658 134.27716187 237.5256369 134.21057373 236.58702087 134.14196777 C233.74510661 133.93309054 230.90382594 133.71671746 228.0625 133.5 C226.10745912 133.35496585 224.15238111 133.21043129 222.19726562 133.06640625 C217.46439693 132.71668272 212.73207881 132.36024734 208 132 C207.90501221 131.4016333 207.81002441 130.8032666 207.7121582 130.18676758 C203.79031795 105.95049307 196.47095433 85.43499883 176.125 70.0625 C174.68948138 69.08651001 173.25209831 68.11282435 171.79589844 67.16796875 C170.46852764 66.30470857 169.15016527 65.42756054 167.83691406 64.54296875 C137.5407211 44.20530389 102.11914888 33.69948695 65.546875 40.11328125 C32.80383622 48.29904094 -1.95236243 65.43921433 -20 95 C-26.07014007 106.32373846 -28.24654618 119.39015666 -30 132 C-35.70627174 132.43441145 -41.41304268 132.86130438 -47.12036133 133.28173828 C-49.05507964 133.42526481 -50.98965621 133.57071732 -52.92407227 133.71826172 C-55.73156678 133.93204141 -58.53952694 134.13849631 -61.34765625 134.34375 C-62.1889357 134.40937134 -63.03021515 134.47499268 -63.89698792 134.54260254 C-71.65354072 135.09738953 -79.15196396 135 -87 135 C-87 117.84 -87 100.68 -87 83 C-76.11 82.01 -76.11 82.01 -65 81 C-47.39645309 76.36030547 -28.4835696 65.73541233 -18.53271484 49.77099609 C-12.91148182 39.6083655 -9.8517521 27.75817191 -6.25 16.75 C-5.27947525 13.78531559 -4.30497902 10.82197903 -3.328125 7.859375 C-3.10835999 7.18348328 -2.88859497 6.50759155 -2.66217041 5.81121826 C-1.11273362 1.11273362 -1.11273362 1.11273362 0 0 Z " fill="#000000" transform="translate(106,57)"/>
<path d="M0 0 C2.02107544 0.02149041 4.03859952 0.00003039 6.05957031 -0.02539062 C18.65084596 -0.05388997 30.37400192 2.64501785 41.70800781 8.20898438 C42.41441406 8.54929688 43.12082031 8.88960937 43.84863281 9.24023438 C50.53982804 12.57976012 56.28658145 16.70938393 62.02050781 21.52148438 C62.85324219 22.20339844 63.68597656 22.8853125 64.54394531 23.58789062 C76.00675976 33.31795405 84.69461054 47.49744525 87.02050781 62.52148438 C88.07709591 75.45352737 88.07709591 75.45352737 84.02050781 80.52148438 C81.09849548 81.15069008 81.09849548 81.15069008 77.45385742 81.15640259 C76.78370826 81.16420254 76.11355909 81.17200249 75.42310238 81.18003881 C73.17246323 81.200019 70.92350389 81.18417319 68.67285156 81.16845703 C67.06152354 81.17523057 65.45020326 81.18413222 63.83889771 81.19500732 C59.45865598 81.21783896 55.0790018 81.20894865 50.69874954 81.1931119 C46.11970662 81.18047278 41.54071477 81.19218746 36.96166992 81.20004272 C29.27122951 81.20914512 21.58102901 81.19713599 13.890625 81.17333984 C4.99325937 81.14612736 -3.90353345 81.15494111 -12.8008852 81.18247187 C-20.43325111 81.20514522 -28.06544436 81.20837175 -35.69783306 81.19527853 C-40.25927307 81.1874742 -44.82044364 81.18646919 -49.38186646 81.20296097 C-53.6699219 81.21738082 -57.95723726 81.20743029 -62.24521255 81.17848969 C-63.8210235 81.17186545 -65.3968965 81.1737994 -66.97268295 81.18480301 C-69.12024966 81.19841928 -71.26542837 81.18139661 -73.4128418 81.15640259 C-74.61557236 81.15451746 -75.81830292 81.15263233 -77.05747986 81.15069008 C-79.97949219 80.52148438 -79.97949219 80.52148438 -81.86280823 78.16148949 C-85.73683951 69.00270979 -82.46868506 58.30107589 -78.97949219 49.52148438 C-70.07258338 28.66353338 -53.19985392 14.95062771 -32.58740234 5.96411133 C-21.80542022 1.65292359 -11.59363859 -0.14583193 0 0 Z M1.02050781 3.52148438 C-3.20006305 9.17117258 -6.66209535 15.31237436 -9.97949219 21.52148438 C-9.17511719 21.78960937 -8.37074219 22.05773437 -7.54199219 22.33398438 C-6.69636719 22.72585937 -5.85074219 23.11773437 -4.97949219 23.52148438 C-4.64949219 24.51148438 -4.31949219 25.50148437 -3.97949219 26.52148438 C-2.98949219 26.52148438 -1.99949219 26.52148438 -0.97949219 26.52148438 C-0.24868952 24.54401834 0.41472528 22.54075948 1.02050781 20.52148438 C0.69050781 19.86148438 0.36050781 19.20148438 0.02050781 18.52148438 C-0.63949219 18.52148438 -1.29949219 18.52148438 -1.97949219 18.52148438 C-1.20605469 17.40773437 -1.20605469 17.40773437 -0.41699219 16.27148438 C1.26993553 13.68932984 1.26993553 13.68932984 0.70800781 11.20898438 C0.48113281 10.65210938 0.25425781 10.09523437 0.02050781 9.52148438 C0.68050781 9.52148438 1.34050781 9.52148438 2.02050781 9.52148438 C1.98570312 10.85953125 1.98570312 10.85953125 1.95019531 12.22460938 C1.93214844 13.39507812 1.91410156 14.56554687 1.89550781 15.77148438 C1.87230469 16.93164062 1.84910156 18.09179688 1.82519531 19.28710938 C2.01011291 22.34934484 2.41227759 23.96351189 4.02050781 26.52148438 C3.36050781 26.52148438 2.70050781 26.52148438 2.02050781 26.52148438 C2.68050781 27.84148437 3.34050781 29.16148437 4.02050781 30.52148438 C6.42618861 26.58072735 6.42618861 26.58072735 6.70800781 22.14648438 C6.48113281 21.61023438 6.25425781 21.07398438 6.02050781 20.52148438 C6.35050781 21.18148437 6.68050781 21.84148437 7.02050781 22.52148438 C9.33457001 23.25224086 11.66879651 23.92286695 14.02050781 24.52148438 C12.34214038 19.65901416 9.68857821 15.53077825 6.95800781 11.20898438 C6.49845703 10.46841797 6.03890625 9.72785156 5.56542969 8.96484375 C4.41433164 7.13086229 3.22111026 5.32344677 2.02050781 3.52148438 C1.69050781 3.52148438 1.36050781 3.52148438 1.02050781 3.52148438 Z M-13.97949219 27.52148438 C-16.17816996 30.31935745 -16.17816996 30.31935745 -17.97949219 33.52148438 C-17.64949219 34.51148438 -17.31949219 35.50148438 -16.97949219 36.52148438 C-15.32949219 35.20148438 -13.67949219 33.88148438 -11.97949219 32.52148438 C-12.30949219 30.87148437 -12.63949219 29.22148437 -12.97949219 27.52148438 C-13.30949219 27.52148438 -13.63949219 27.52148438 -13.97949219 27.52148438 Z M16.45800781 32.02148438 C15.98363281 32.51648438 15.50925781 33.01148438 15.02050781 33.52148438 C15.35050781 34.51148438 15.68050781 35.50148438 16.02050781 36.52148438 C16.68050781 36.52148438 17.34050781 36.52148438 18.02050781 36.52148438 C15.39550781 42.27148438 15.39550781 42.27148438 12.02050781 44.52148438 C12.68050781 44.52148438 13.34050781 44.52148438 14.02050781 44.52148438 C14.35050781 45.84148437 14.68050781 47.16148437 15.02050781 48.52148438 C16.08663302 46.66028275 17.12258747 44.78177703 18.14550781 42.89648438 C18.72558594 41.85234375 19.30566406 40.80820313 19.90332031 39.73242188 C21.25687315 35.84214064 20.69009792 34.20342811 19.02050781 30.52148438 C17.77974479 30.4060624 17.77974479 30.4060624 16.45800781 32.02148438 Z M10.02050781 34.52148438 C11.01050781 35.51148438 12.00050781 36.50148437 13.02050781 37.52148438 C12.69050781 36.53148437 12.36050781 35.54148438 12.02050781 34.52148438 C11.36050781 34.52148438 10.70050781 34.52148438 10.02050781 34.52148438 Z M-9.97949219 35.52148438 C-8.97949219 37.52148438 -8.97949219 37.52148438 -8.97949219 37.52148438 Z M-13.97949219 36.52148438 C-13.97949219 37.51148438 -13.97949219 38.50148437 -13.97949219 39.52148438 C-12.65949219 39.19148438 -11.33949219 38.86148438 -9.97949219 38.52148438 C-10.96949219 38.52148438 -11.95949219 38.52148438 -12.97949219 38.52148438 C-13.30949219 37.86148438 -13.63949219 37.20148438 -13.97949219 36.52148438 Z M13.02050781 37.52148438 C14.02050781 39.52148438 14.02050781 39.52148438 14.02050781 39.52148438 Z M22.02050781 37.52148438 C20.04050781 41.81148437 18.06050781 46.10148437 16.02050781 50.52148438 C16.68050781 50.52148438 17.34050781 50.52148438 18.02050781 50.52148438 C18.02050781 49.86148438 18.02050781 49.20148438 18.02050781 48.52148438 C18.90738281 48.89273438 19.79425781 49.26398438 20.70800781 49.64648438 C24.42876787 50.62932665 25.69488916 50.28210601 29.02050781 48.52148438 C28.42412448 47.2469799 27.81803365 45.97701561 27.20800781 44.70898438 C26.8715625 44.00128906 26.53511719 43.29359375 26.18847656 42.56445312 C24.94689355 40.18495135 24.94689355 40.18495135 22.02050781 37.52148438 Z M-20.97949219 38.52148438 C-23.45449219 42.97648437 -23.45449219 42.97648437 -25.97949219 47.52148438 C-22.67949219 47.19148438 -19.37949219 46.86148438 -15.97949219 46.52148438 C-16.74979341 43.03339247 -16.74979341 43.03339247 -17.97949219 39.52148438 C-18.96949219 39.19148438 -19.95949219 38.86148438 -20.97949219 38.52148438 Z M-1.97949219 39.52148438 C-1.64949219 40.18148437 -1.31949219 40.84148437 -0.97949219 41.52148438 C-0.31949219 41.52148438 0.34050781 41.52148438 1.02050781 41.52148438 C1.02050781 40.86148438 1.02050781 40.20148438 1.02050781 39.52148438 C0.03050781 39.52148438 -0.95949219 39.52148438 -1.97949219 39.52148438 Z M2.02050781 39.52148438 C2.02050781 41.83148438 2.02050781 44.14148438 2.02050781 46.52148438 C3.01050781 46.19148438 4.00050781 45.86148438 5.02050781 45.52148438 C4.676059 43.04881673 4.676059 43.04881673 4.02050781 40.52148438 C3.36050781 40.19148438 2.70050781 39.86148438 2.02050781 39.52148438 Z M-13.97949219 42.52148438 C-13.64949219 43.84148437 -13.31949219 45.16148437 -12.97949219 46.52148438 C-11.98949219 46.19148438 -10.99949219 45.86148438 -9.97949219 45.52148438 C-9.97949219 44.86148438 -9.97949219 44.20148438 -9.97949219 43.52148438 C-11.29949219 43.19148438 -12.61949219 42.86148438 -13.97949219 42.52148438 Z M-0.97949219 44.52148438 C-1.30949219 45.51148438 -1.63949219 46.50148437 -1.97949219 47.52148438 C-1.31949219 47.52148438 -0.65949219 47.52148438 0.02050781 47.52148438 C-0.30949219 46.53148437 -0.63949219 45.54148438 -0.97949219 44.52148438 Z M6.02050781 46.52148438 C3.77145433 47.93091167 3.77145433 47.93091167 2.02050781 50.52148438 C1.96227351 53.59731461 2.42827874 56.50884086 3.02050781 59.52148438 C2.03050781 59.52148438 1.04050781 59.52148438 0.02050781 59.52148438 C0.14425781 58.28398437 0.26800781 57.04648438 0.39550781 55.77148438 C0.492805 53.58127306 0.492805 53.58127306 0.02050781 51.52148438 C-2.8267993 48.95468124 -2.8267993 48.95468124 -5.97949219 47.52148438 C-6.96949219 48.01648438 -6.96949219 48.01648438 -7.97949219 48.52148438 C-6.65949219 50.17148438 -5.33949219 51.82148438 -3.97949219 53.52148438 C-5.29949219 53.85148437 -6.61949219 54.18148437 -7.97949219 54.52148438 C-6.5362575 59.25937602 -4.60722486 63.51006588 -2.35449219 67.89648438 C-1.86722656 68.85748047 -1.86722656 68.85748047 -1.37011719 69.83789062 C-0.57691812 71.40095938 0.22127812 72.96149059 1.02050781 74.52148438 C3.20717225 71.74697277 4.91859623 68.98208005 6.50097656 65.82617188 C6.94248047 64.94574219 7.38398438 64.0653125 7.83886719 63.15820312 C8.29068359 62.24683594 8.7425 61.33546875 9.20800781 60.39648438 C9.90313477 59.01783203 9.90313477 59.01783203 10.61230469 57.61132812 C11.04994141 56.73347656 11.48757812 55.855625 11.93847656 54.95117188 C12.33832764 54.14921387 12.73817871 53.34725586 13.15014648 52.52099609 C14.15354614 50.57930546 14.15354614 50.57930546 14.02050781 48.52148438 C11.5268921 49.72529886 9.33907698 50.97577159 7.02050781 52.52148438 C7.02050781 51.20148438 7.02050781 49.88148438 7.02050781 48.52148438 C7.68050781 48.19148438 8.34050781 47.86148438 9.02050781 47.52148438 C8.03050781 47.19148438 7.04050781 46.86148438 6.02050781 46.52148438 Z M-26.97949219 50.52148438 C-26.31949219 51.84148437 -25.65949219 53.16148437 -24.97949219 54.52148438 C-24.97949219 53.53148437 -24.97949219 52.54148438 -24.97949219 51.52148438 C-25.63949219 51.19148438 -26.29949219 50.86148438 -26.97949219 50.52148438 Z M15.02050781 51.52148438 C14.69050781 52.84148437 14.36050781 54.16148437 14.02050781 55.52148438 C14.68050781 55.19148438 15.34050781 54.86148438 16.02050781 54.52148438 C15.69050781 53.53148437 15.36050781 52.54148438 15.02050781 51.52148438 Z M-29.97949219 53.52148438 C-29.64949219 54.51148438 -29.31949219 55.50148437 -28.97949219 56.52148438 C-28.64949219 55.53148437 -28.31949219 54.54148438 -27.97949219 53.52148438 C-28.63949219 53.52148438 -29.29949219 53.52148438 -29.97949219 53.52148438 Z M-15.97949219 53.52148438 C-16.76231867 55.31347909 -16.76231867 55.31347909 -16.97949219 57.52148438 C-16.01978815 59.82984215 -16.01978815 59.82984215 -13.97949219 61.52148438 C-10.87751821 62.3309486 -10.87751821 62.3309486 -7.97949219 62.52148438 C-8.53980491 59.58510215 -8.53980491 59.58510215 -9.97949219 56.52148438 C-12.98008289 54.60308578 -12.98008289 54.60308578 -15.97949219 53.52148438 Z M31.02050781 53.52148438 C31.68050781 54.18148437 32.34050781 54.84148437 33.02050781 55.52148438 C33.02050781 54.86148438 33.02050781 54.20148438 33.02050781 53.52148438 C32.36050781 53.52148438 31.70050781 53.52148438 31.02050781 53.52148438 Z M-31.97949219 56.52148438 C-33.81639816 59.4984623 -35.6484131 62.47841953 -37.47949219 65.45898438 C-38.00414062 66.30912109 -38.52878906 67.15925781 -39.06933594 68.03515625 C-39.565625 68.84404297 -40.06191406 69.65292969 -40.57324219 70.48632812 C-41.03408203 71.23519287 -41.49492187 71.98405762 -41.96972656 72.75561523 C-43.06222509 74.32713562 -43.06222509 74.32713562 -42.97949219 75.52148438 C-36.04949219 75.52148438 -29.11949219 75.52148438 -21.97949219 75.52148438 C-21.97949219 74.86148438 -21.97949219 74.20148438 -21.97949219 73.52148438 C-20.98949219 73.19148438 -19.99949219 72.86148438 -18.97949219 72.52148438 C-22.60275958 71.31372858 -23.62095587 71.9783731 -26.97949219 73.52148438 C-26.97949219 72.86148438 -26.97949219 72.20148438 -26.97949219 71.52148438 C-25.98949219 71.19148438 -24.99949219 70.86148438 -23.97949219 70.52148438 C-24.20636719 69.77898437 -24.43324219 69.03648437 -24.66699219 68.27148438 C-24.97949219 65.52148438 -24.97949219 65.52148438 -23.54199219 63.20898438 C-23.02636719 62.65210938 -22.51074219 62.09523438 -21.97949219 61.52148438 C-23.61917969 60.84085938 -23.61917969 60.84085938 -25.29199219 60.14648438 C-27.80086984 59.10506346 -29.67666285 58.05670393 -31.97949219 56.52148438 Z M13.02050781 56.52148438 C12.36050781 57.84148437 11.70050781 59.16148437 11.02050781 60.52148438 C12.34050781 59.86148438 13.66050781 59.20148438 15.02050781 58.52148438 C14.36050781 57.86148438 13.70050781 57.20148438 13.02050781 56.52148438 Z M33.02050781 56.52148438 C33.02050781 57.51148438 33.02050781 58.50148437 33.02050781 59.52148438 C34.01050781 59.85148437 35.00050781 60.18148437 36.02050781 60.52148438 C35.36050781 59.20148438 34.70050781 57.88148438 34.02050781 56.52148438 C33.69050781 56.52148438 33.36050781 56.52148438 33.02050781 56.52148438 Z M36.02050781 60.52148438 C36.02050781 61.18148437 36.02050781 61.84148437 36.02050781 62.52148438 C35.03050781 63.01648438 35.03050781 63.01648438 34.02050781 63.52148438 C35.01050781 65.00648438 35.01050781 65.00648438 36.02050781 66.52148438 C35.03050781 66.85148437 34.04050781 67.18148437 33.02050781 67.52148438 C33.68050781 68.18148437 34.34050781 68.84148437 35.02050781 69.52148438 C36.01050781 69.52148438 37.00050781 69.52148438 38.02050781 69.52148438 C36.71526881 72.13196238 35.66224207 72.2021486 32.95800781 73.14648438 C32.22453125 73.406875 31.49105469 73.66726562 30.73535156 73.93554688 C30.16945313 74.12890625 29.60355469 74.32226562 29.02050781 74.52148438 C29.02050781 74.85148437 29.02050781 75.18148437 29.02050781 75.52148438 C34.30050781 75.52148438 39.58050781 75.52148438 45.02050781 75.52148438 C43.50846161 71.74136887 42.03387784 68.65176636 39.95800781 65.20898438 C39.16716797 63.88447266 39.16716797 63.88447266 38.36035156 62.53320312 C37.91820312 61.86933594 37.47605469 61.20546875 37.02050781 60.52148438 C36.69050781 60.52148438 36.36050781 60.52148438 36.02050781 60.52148438 Z M10.02050781 61.52148438 C9.01821413 63.66627353 8.01857926 65.8122316 7.02050781 67.95898438 C6.46363281 69.15394531 5.90675781 70.34890625 5.33300781 71.58007812 C3.95259309 74.1368609 3.95259309 74.1368609 4.02050781 75.52148438 C8.64050781 75.52148438 13.26050781 75.52148438 18.02050781 75.52148438 C17.69050781 74.86148438 17.36050781 74.20148438 17.02050781 73.52148438 C15.86550781 73.19148438 14.71050781 72.86148438 13.52050781 72.52148438 C12.36550781 72.19148438 11.21050781 71.86148438 10.02050781 71.52148438 C9.69050781 70.86148438 9.36050781 70.20148438 9.02050781 69.52148438 C9.65988281 69.39773437 10.29925781 69.27398437 10.95800781 69.14648438 C11.63863281 68.94023437 12.31925781 68.73398438 13.02050781 68.52148438 C13.35050781 67.86148438 13.68050781 67.20148438 14.02050781 66.52148438 C13.03050781 66.52148438 12.04050781 66.52148438 11.02050781 66.52148438 C11.68050781 65.20148438 12.34050781 63.88148438 13.02050781 62.52148438 C12.03050781 62.19148438 11.04050781 61.86148438 10.02050781 61.52148438 Z M-7.97949219 62.52148438 C-7.97949219 63.51148438 -7.97949219 64.50148437 -7.97949219 65.52148438 C-9.62949219 65.52148438 -11.27949219 65.52148438 -12.97949219 65.52148438 C-13.26824219 66.80023438 -13.55699219 68.07898438 -13.85449219 69.39648438 C-14.52051702 72.34602293 -14.78151816 73.32351034 -16.97949219 75.52148438 C-11.69949219 75.52148438 -6.41949219 75.52148438 -0.97949219 75.52148438 C-2.95949219 71.23148438 -4.93949219 66.94148438 -6.97949219 62.52148438 C-7.30949219 62.52148438 -7.63949219 62.52148438 -7.97949219 62.52148438 Z " fill="#000000" transform="translate(192.9794921875,138.478515625)"/>
<path d="M0 0 C111.54 0 223.08 0 338 0 C336.9188648 5.40567601 335.80461748 9.89002276 332 14 C329.08131549 14.95183651 326.48584765 15.30194432 323.42578125 15.48828125 C322.62527344 15.65714844 321.82476562 15.82601563 321 16 C320.34 17.32 319.68 18.64 319 20 C220 20 121 20 19 20 C18.34 18.68 17.68 17.36 17 16 C14.54512349 15.48912965 14.54512349 15.48912965 11.75 15.4375 C7.9047112 14.90188816 6.46729846 14.55863004 3.94140625 11.5390625 C0 4.33678058 0 4.33678058 0 0 Z " fill="#000000" transform="translate(26,480)"/>
<path d="M0 0 C8.25 0.33 16.5 0.66 25 1 C24 6 24 6 21.5 8.0625 C14.459804 16.3347303 17.81781453 36.26188957 17.79125977 46.63378906 C17.78170836 49.0264906 17.77181666 51.41919081 17.76161194 53.81188965 C17.7330978 60.95565149 17.71319092 68.09942302 17.69621959 75.24321997 C17.69141229 77.26308737 17.68643066 79.28295427 17.68141437 81.30282116 C17.65046824 93.87254595 17.62381572 106.44227564 17.60699558 119.01202774 C17.60304689 121.91264097 17.59904373 124.81325413 17.5949707 127.71386719 C17.59396234 128.43469269 17.59295398 129.15551819 17.59191506 129.89818689 C17.57487742 141.59653676 17.53371649 153.2946763 17.48294771 164.99292329 C17.4311587 177.02571317 17.40205329 189.05839462 17.3947987 201.091295 C17.39014218 207.8387283 17.37544841 214.58581498 17.3350544 221.33313751 C17.29823641 227.6731624 17.28976297 234.01259515 17.30306053 240.35270691 C17.30300652 242.67791359 17.29268676 245.00314629 17.2713089 247.3282547 C17.24366431 250.50472921 17.25312044 253.67903766 17.27174377 256.85552979 C17.25494885 257.773433 17.23815392 258.69133622 17.22085005 259.63705468 C17.30866743 265.63794753 18.70442931 268.82528969 22.71310276 273.31367278 C24 275 24 275 24 278 C15.09 277.67 6.18 277.34 -3 277 C-2.01 185.59 -1.02 94.18 0 0 Z " fill="#000000" transform="translate(343,195)"/>
<path d="M0 0 C0.79579971 0.00197388 1.59159943 0.00394775 2.41151428 0.00598145 C3.01039963 0.00851929 3.60928497 0.01105713 4.22631836 0.01367188 C4.60930034 33.56883535 4.99156261 67.12400694 5.37286517 100.67918955 C5.41792382 104.6443621 5.46298839 108.60953459 5.50805664 112.57470703 C5.52151441 113.75875482 5.52151441 113.75875482 5.53524405 114.96672276 C5.68036116 127.73324333 5.82595849 140.49975838 5.97173458 153.26627144 C6.12140149 166.37446751 6.27054935 179.48266941 6.41921949 192.59087682 C6.51090779 200.67357833 6.60299669 208.75627507 6.69560468 216.8389661 C6.76667839 223.04597004 6.83702852 229.252982 6.90711403 235.45999718 C6.93590125 237.99957484 6.96492018 240.53914988 6.99419212 243.078722 C7.03423567 246.55587213 7.07343213 250.03303085 7.11242676 253.51019287 C7.1240996 254.50634007 7.13577245 255.50248727 7.14779902 256.52882075 C7.22316479 263.35844162 7.22631836 270.18255789 7.22631836 277.01367188 C-1.68368164 277.34367187 -10.59368164 277.67367188 -19.77368164 278.01367188 C-18.77368164 273.01367188 -18.77368164 273.01367188 -16.25170517 270.34557915 C-12.64798847 266.25566102 -13.0722891 261.93127248 -13.12530518 256.70315552 C-13.11609409 255.6664512 -13.10688301 254.62974687 -13.0973928 253.56162727 C-13.07276993 250.08844327 -13.08388211 246.61630646 -13.0949707 243.14306641 C-13.0849212 240.65272121 -13.0727743 238.16238372 -13.0586853 235.67205811 C-13.03057909 229.61008418 -13.02611509 223.54852159 -13.03369847 217.48652162 C-13.03952643 212.55821299 -13.03632564 207.62998898 -13.02672577 202.70168686 C-13.02538216 201.99986783 -13.02403855 201.29804879 -13.02265422 200.57496252 C-13.01991094 199.14913956 -13.01715846 197.72331661 -13.01439688 196.29749368 C-12.98979947 182.92986073 -12.99739451 169.56238847 -13.01496693 156.19475423 C-13.03006585 143.97216242 -13.00587758 131.75002149 -12.96293452 119.52750756 C-12.91915216 106.970536 -12.90130411 94.41377579 -12.9117105 81.85672843 C-12.9171127 74.80964006 -12.91241166 67.76291367 -12.88074493 60.71588516 C-12.85130294 54.08860387 -12.85856891 47.46205669 -12.89046097 40.83473969 C-12.89651894 38.40313311 -12.89064924 35.97146304 -12.87195206 33.53992081 C-12.84831407 30.21831485 -12.86788063 26.89964407 -12.89825439 23.57815552 C-12.8812751 22.6172501 -12.86429581 21.65634468 -12.846802 20.66632092 C-12.94785386 15.34081197 -13.6867391 12.58913812 -17.32839584 8.60339165 C-17.97018398 8.00262586 -18.61197212 7.40186006 -19.27320838 6.78288925 C-20.77368164 5.01367188 -20.77368164 5.01367188 -20.77368164 1.01367188 C-18.29471983 0.8433383 -15.81558532 0.67734348 -13.33618164 0.51367188 C-12.6484668 0.46597656 -11.96075195 0.41828125 -11.25219727 0.36914062 C-7.49588471 0.12454353 -3.76492275 -0.01217929 0 0 Z " fill="#000000" transform="translate(42.773681640625,194.986328125)"/>
<path d="M0 0 C7.7982862 4.09296015 15.73537017 9.17871449 18.8984375 17.7109375 C19.72697915 21.66534084 20.03921921 25.44172369 20.046875 29.46484375 C20.07136719 30.14611328 20.09585938 30.82738281 20.12109375 31.52929688 C20.15056071 36.64181425 18.84420199 39.45900594 15.671875 43.40234375 C11.77118039 46.83022689 8.148039 47.84575178 2.921875 47.73046875 C-2.57306057 46.92912398 -6.8156671 44.36094509 -10.1953125 39.984375 C-13.599318 34.47118905 -15.4862839 30.15714923 -15.390625 23.65234375 C-15.38160156 22.853125 -15.37257812 22.05390625 -15.36328125 21.23046875 C-15.34587891 20.32554688 -15.34587891 20.32554688 -15.328125 19.40234375 C-24.6912064 20.65942412 -30.20536307 24.66312322 -36.265625 31.77734375 C-48.95653518 48.60820133 -55.50020111 68.47289732 -62.66918945 88.06787109 C-63.09417725 89.21078613 -63.51916504 90.35370117 -63.95703125 91.53125 C-64.32642822 92.53873291 -64.6958252 93.54621582 -65.07641602 94.58422852 C-69.85840973 105.35047651 -80.57164991 115.33917253 -91.21484375 120.2109375 C-118.42570676 130.62412849 -118.42570676 130.62412849 -130.328125 128.40234375 C-132.98547236 126.46141317 -134.77489472 124.29908546 -136.328125 121.40234375 C-136.328125 120.74234375 -136.328125 120.08234375 -136.328125 119.40234375 C-130.058125 119.07234375 -123.788125 118.74234375 -117.328125 118.40234375 C-118.28048167 118.40234375 -119.2322407 118.46424502 -120.18237305 118.52929688 C-122.7927091 118.69659557 -125.40198613 118.79963233 -128.015625 118.90234375 C-128.91474609 118.969375 -129.81386719 119.03640625 -130.74023438 119.10546875 C-134.65275697 119.22028966 -137.25372506 119.29451423 -140.34619141 116.7265625 C-142.01904583 114.64117705 -143.33113326 112.88582704 -144.328125 110.40234375 C-143.97143555 108.13867188 -143.97143555 108.13867188 -143.328125 106.40234375 C-142.47089844 106.54671875 -141.61367187 106.69109375 -140.73046875 106.83984375 C-139.01537109 107.11828125 -139.01537109 107.11828125 -137.265625 107.40234375 C-135.57759766 107.68078125 -135.57759766 107.68078125 -133.85546875 107.96484375 C-121.6036302 109.48445163 -108.90139963 106.58435816 -98.78125 99.43359375 C-86.44026101 89.21494045 -79.3446694 75.13149198 -72.890625 60.77734375 C-72.32898685 59.54978635 -71.76622614 58.32274198 -71.20239258 57.09619141 C-69.11445854 52.54889524 -67.04303262 47.99428143 -64.99316406 43.4296875 C-60.68715559 33.84545727 -56.6593076 25.10607283 -49.328125 17.40234375 C-48.48378906 16.48066406 -47.63945313 15.55898438 -46.76953125 14.609375 C-33.77333903 0.94954743 -18.85735002 -7.83863218 0 0 Z M-22.328125 11.40234375 C-22.328125 11.73234375 -22.328125 12.06234375 -22.328125 12.40234375 C-20.348125 12.40234375 -18.368125 12.40234375 -16.328125 12.40234375 C-16.328125 12.07234375 -16.328125 11.74234375 -16.328125 11.40234375 C-18.308125 11.40234375 -20.288125 11.40234375 -22.328125 11.40234375 Z M-2.328125 18.40234375 C-4.87205752 22.21824253 -4.90550456 24.93230845 -4.328125 29.40234375 C-3.43054944 31.55014452 -3.43054944 31.55014452 -1.328125 32.40234375 C3.06110538 33.0526001 4.9425842 32.94138478 8.546875 30.27734375 C10.89406632 27.10173196 11.58834005 25.32848652 11.671875 21.40234375 C10.83236245 18.65484813 10.14806623 17.7095639 7.734375 16.15234375 C3.44282743 14.591781 1.23646248 15.93455242 -2.328125 18.40234375 Z M-45.453125 25.40234375 C-46.071875 26.06234375 -46.690625 26.72234375 -47.328125 27.40234375 C-46.998125 28.06234375 -46.668125 28.72234375 -46.328125 29.40234375 C-44.678125 27.42234375 -43.028125 25.44234375 -41.328125 23.40234375 C-43.57175073 23.17388885 -43.57175073 23.17388885 -45.453125 25.40234375 Z M-50.328125 31.40234375 C-50.328125 34.40234375 -50.328125 34.40234375 -50.328125 34.40234375 Z M-52.328125 34.40234375 C-51.328125 36.40234375 -51.328125 36.40234375 -51.328125 36.40234375 Z M-53.328125 36.40234375 C-52.328125 38.40234375 -52.328125 38.40234375 -52.328125 38.40234375 Z M-54.328125 38.40234375 C-53.328125 40.40234375 -53.328125 40.40234375 -53.328125 40.40234375 Z M-55.328125 40.40234375 C-54.328125 42.40234375 -54.328125 42.40234375 -54.328125 42.40234375 Z M-56.328125 42.40234375 C-55.328125 44.40234375 -55.328125 44.40234375 -55.328125 44.40234375 Z M-57.328125 44.40234375 C-58.45328585 46.23518818 -58.45328585 46.23518818 -59.328125 48.40234375 C-58.998125 49.39234375 -58.668125 50.38234375 -58.328125 51.40234375 C-57.20296415 49.56949932 -57.20296415 49.56949932 -56.328125 47.40234375 C-56.658125 46.41234375 -56.988125 45.42234375 -57.328125 44.40234375 Z M-60.328125 51.40234375 C-59.328125 53.40234375 -59.328125 53.40234375 -59.328125 53.40234375 Z M-61.328125 53.40234375 C-61.658125 55.05234375 -61.988125 56.70234375 -62.328125 58.40234375 C-61.668125 57.74234375 -61.008125 57.08234375 -60.328125 56.40234375 C-60.658125 55.41234375 -60.988125 54.42234375 -61.328125 53.40234375 Z M-63.328125 58.40234375 C-62.328125 60.40234375 -62.328125 60.40234375 -62.328125 60.40234375 Z M-64.328125 60.40234375 C-63.328125 63.40234375 -63.328125 63.40234375 -63.328125 63.40234375 Z M-65.328125 63.40234375 C-65.658125 65.05234375 -65.988125 66.70234375 -66.328125 68.40234375 C-65.668125 67.74234375 -65.008125 67.08234375 -64.328125 66.40234375 C-64.658125 65.41234375 -64.988125 64.42234375 -65.328125 63.40234375 Z M-67.328125 68.40234375 C-67.658125 70.05234375 -67.988125 71.70234375 -68.328125 73.40234375 C-67.668125 72.74234375 -67.008125 72.08234375 -66.328125 71.40234375 C-66.658125 70.41234375 -66.988125 69.42234375 -67.328125 68.40234375 Z M-69.328125 73.40234375 C-69.658125 75.05234375 -69.988125 76.70234375 -70.328125 78.40234375 C-69.668125 77.74234375 -69.008125 77.08234375 -68.328125 76.40234375 C-68.658125 75.41234375 -68.988125 74.42234375 -69.328125 73.40234375 Z M-71.328125 78.40234375 C-70.328125 80.40234375 -70.328125 80.40234375 -70.328125 80.40234375 Z M-72.328125 80.40234375 C-73.45328585 82.23518818 -73.45328585 82.23518818 -74.328125 84.40234375 C-73.998125 85.39234375 -73.668125 86.38234375 -73.328125 87.40234375 C-72.20296415 85.56949932 -72.20296415 85.56949932 -71.328125 83.40234375 C-71.658125 82.41234375 -71.988125 81.42234375 -72.328125 80.40234375 Z M-75.328125 87.40234375 C-74.328125 89.40234375 -74.328125 89.40234375 -74.328125 89.40234375 Z M-76.328125 89.40234375 C-75.328125 91.40234375 -75.328125 91.40234375 -75.328125 91.40234375 Z M-77.328125 91.40234375 C-77.328125 94.40234375 -77.328125 94.40234375 -77.328125 94.40234375 Z M-79.328125 94.40234375 C-79.328125 97.40234375 -79.328125 97.40234375 -79.328125 97.40234375 Z M-87.328125 102.40234375 C-87.658125 103.06234375 -87.988125 103.72234375 -88.328125 104.40234375 C-87.338125 104.07234375 -86.348125 103.74234375 -85.328125 103.40234375 C-85.988125 103.07234375 -86.648125 102.74234375 -87.328125 102.40234375 Z M-91.328125 105.40234375 C-91.658125 106.06234375 -91.988125 106.72234375 -92.328125 107.40234375 C-91.338125 107.07234375 -90.348125 106.74234375 -89.328125 106.40234375 C-89.988125 106.07234375 -90.648125 105.74234375 -91.328125 105.40234375 Z M-96.328125 108.40234375 C-98.34738367 109.16834957 -98.34738367 109.16834957 -100.453125 110.33984375 C-101.17757812 110.72011719 -101.90203125 111.10039063 -102.6484375 111.4921875 C-103.47988281 111.94271484 -103.47988281 111.94271484 -104.328125 112.40234375 C-101.49945575 113.71346449 -101.49945575 113.71346449 -99.50390625 112.625 C-98.88902344 112.24214844 -98.27414063 111.85929687 -97.640625 111.46484375 C-96.0009375 110.44390625 -96.0009375 110.44390625 -94.328125 109.40234375 C-94.988125 109.07234375 -95.648125 108.74234375 -96.328125 108.40234375 Z " fill="#000000" transform="translate(144.328125,2.59765625)"/>
<path d="M0 0 C16.78160663 13.14717205 25.84688694 29.13278854 34.45214844 48.22119141 C35.82534469 51.26172071 37.20633707 54.29840427 38.59347534 57.33258057 C39.41344306 59.13462988 40.22167571 60.94200447 41.02954102 62.74951172 C48.15520187 78.33436714 58.01850455 95.26555189 74.83056641 101.70068359 C86.48368446 105.6359219 96.94672837 105.08127063 109 103 C109.92375284 105.49325625 110.15447963 106.61519482 109.14770508 109.12304688 C105.3639421 114.62716845 105.3639421 114.62716845 101.64208984 115.64453125 C98.94970277 115.78787949 96.37585239 115.70042197 93.6875 115.5 C92.76904297 115.46390625 91.85058594 115.4278125 90.90429688 115.390625 C88.5989699 115.29520866 86.30170377 115.15758867 84 115 C83.67 115 83.34 115 83 115 C89.27 115.33 95.54 115.66 102 116 C98.67391304 122.65217391 98.67391304 122.65217391 96 125 C87.05809311 126.90565229 77.5602275 123.46669139 69 121 C67.90945313 120.69964844 66.81890625 120.39929688 65.6953125 120.08984375 C50.60553712 115.56291113 38.73320102 105.68522307 31 92 C29.1586062 87.78082309 27.63609925 83.47175749 26.125 79.125 C25.259532 76.71896305 24.39102244 74.31401809 23.51953125 71.91015625 C23.09494629 70.73598145 22.67036133 69.56180664 22.23291016 68.35205078 C11.79325242 38.80572911 11.79325242 38.80572911 -10 18 C-12.97470619 17.10233585 -15.92952619 16.46648922 -19 16 C-18.89558594 16.87398437 -18.89558594 16.87398437 -18.7890625 17.765625 C-18.26968642 25.63046275 -20.61405195 31.50726468 -25 38 C-29.03956365 42.0054745 -33.12706172 43.87718438 -38.8125 44.25 C-42.87306094 44.18294487 -45.56188674 43.2660292 -49 41 C-54.92143817 34.43840635 -54.4497293 28.30251902 -54.13623047 19.890625 C-53.68158358 13.58097352 -50.71992256 8.17864704 -46 4 C-31.66215627 -6.63922799 -15.6831755 -10.8159831 0 0 Z M-18 8 C-18 8.33 -18 8.66 -18 9 C-16.02 9 -14.04 9 -12 9 C-12 8.67 -12 8.34 -12 8 C-13.98 8 -15.96 8 -18 8 Z M-44 14 C-45.85577318 16.47436424 -46.00372302 17.82501795 -45.9375 20.9375 C-44.72590847 24.89536565 -43.32410972 26.54304934 -40 29 C-36.50115821 29.48259887 -34.23057644 29.63513623 -31.0625 28 C-29.33406211 24.74646986 -29.38583563 21.54007105 -30 18 C-31.97145613 14.43621391 -33.10536548 13.27957329 -37 12.0625 C-40.1469366 11.99693882 -41.50130318 12.12597739 -44 14 Z M7 20 C8.65 21.98 10.3 23.96 12 26 C12.31583648 23.02482427 12.31583648 23.02482427 10.625 21.3125 C9.08882742 19.7905543 9.08882742 19.7905543 7 20 Z M15 28 C15.33 28.99 15.66 29.98 16 31 C16 30.01 16 29.02 16 28 C15.67 28 15.34 28 15 28 Z M17 31 C18 33 18 33 18 33 Z M18 33 C19 35 19 35 19 35 Z M19 35 C20 37 20 37 20 37 Z M20 37 C21 39 21 39 21 39 Z M21 39 C22 41 22 41 22 41 Z M22 41 C22.57452746 44.93075644 22.57452746 44.93075644 25 48 C24.42547254 44.06924356 24.42547254 44.06924356 22 41 Z M25 48 C26 50 26 50 26 50 Z M26 50 C27 52 27 52 27 52 Z M27 52 C28 55 28 55 28 55 Z M28 55 C29 57 29 57 29 57 Z M29 57 C29.44703986 61.47883696 29.44703986 61.47883696 32 65 C31.55296014 60.52116304 31.55296014 60.52116304 29 57 Z M32 65 C32.33 66.65 32.66 68.3 33 70 C33.33 69.01 33.66 68.02 34 67 C33.34 66.34 32.68 65.68 32 65 Z M34 70 C34.33 71.65 34.66 73.3 35 75 C35.33 74.01 35.66 73.02 36 72 C35.34 71.34 34.68 70.68 34 70 Z M36 75 C37 77 37 77 37 77 Z M37 77 C37.53069061 80.82097239 38.49701566 83.06171403 41 86 C40.46930939 82.17902761 39.50298434 79.93828597 37 77 Z M41 86 C42 88 42 88 42 88 Z M42 88 C42.33 88.99 42.66 89.98 43 91 C43 90.01 43 89.02 43 88 C42.67 88 42.34 88 42 88 Z M44 91 C44.33 91.99 44.66 92.98 45 94 C45 93.01 45 92.02 45 91 C44.67 91 44.34 91 44 91 Z M51 99 C51.33 99.66 51.66 100.32 52 101 C52.66 100.67 53.32 100.34 54 100 C53.01 99.67 52.02 99.34 51 99 Z M55 102 C55.33 102.66 55.66 103.32 56 104 C56.66 103.67 57.32 103.34 58 103 C57.01 102.67 56.02 102.34 55 102 Z M60 105 C62.11770166 107.32947183 64.03335588 108.88750845 67 110 C67.99 109.67 68.98 109.34 70 109 C68.71086513 108.32845067 67.41859796 107.66291141 66.125 107 C65.40570313 106.62875 64.68640625 106.2575 63.9453125 105.875 C62.05151023 104.86326254 62.05151023 104.86326254 60 105 Z M72 111 C72.66 111.66 73.32 112.32 74 113 C74.99 112.67 75.98 112.34 77 112 C75.35 111.67 73.7 111.34 72 111 Z " fill="#000000" transform="translate(280,6)"/>
<path d="M0 0 C0 3.62699838 -0.61153202 3.84278164 -3 6.375 C-6.63837384 11.04798251 -6.74976964 15.09610485 -6.44921875 20.88671875 C-5.3200738 28.71218416 -0.75489971 34.725652 5 40 C13.32782282 45.64089001 23.15469183 47.00229297 33 46 C40.18194964 44.31546968 44.97703549 41.19753993 49 35 C51.1668029 31.20809493 51.31883733 28.38401322 51 24 C50.01 22.515 50.01 22.515 49 21 C49 19.68 49 18.36 49 17 C61.54 17 74.08 17 87 17 C86 23 86 23 85 24 C84.13257003 29.9480912 85.80296011 33.17257171 89.2890625 37.984375 C93.61462989 43.08024891 99.01066448 45.60287158 105.58984375 46.2578125 C114.74156659 46.61859001 124.56184818 45.14478856 131.9375 39.3125 C138.17748419 33.21256533 142.09878912 26.56766311 142.4375 17.8125 C142.43090275 11.8947643 141.34751731 8.86380308 137.3125 4.5859375 C136 3 136 3 136 0 C141.27603539 1.57355441 145.9034564 3.35494934 149.69921875 7.46484375 C153.20705567 14.30143883 152.14688508 23.33576428 149.91796875 30.45703125 C144.35378851 42.39779271 135.63508266 50.16145672 124 56 C113.02752893 59.70577406 102.56302529 58.60439564 92 54 C85.31033546 49.95415498 79.48029623 44.39688878 75.625 37.5625 C74.63041146 33.48468699 74.07956585 28.8408683 76 25 C70.72 25 65.44 25 60 25 C60.495 25.99 60.495 25.99 61 27 C61.62952074 34.3024406 60.12197494 39.1904002 55.45703125 44.8828125 C47.04870686 53.77216232 37.23611356 57.96200336 25 58.4375 C12.19995121 58.0245952 1.78164536 51.31257855 -6.875 42.1875 C-13.83056671 33.50561191 -16.22485905 24.84199387 -15.609375 13.8515625 C-14.87123545 9.186142 -13.80552171 7.00960254 -10.08984375 4.16015625 C-6.79000917 2.32828546 -3.62215758 1.08029261 0 0 Z " fill="#000000" transform="translate(127,34)"/>
<path d="M0 0 C1.04821099 4.97900218 1.04821099 4.97900218 0 8 C-2.35546875 9.6328125 -2.35546875 9.6328125 -5.4375 11.1875 C-22.77673465 20.3754649 -28.76742537 44.63282038 -34.25170898 62.11230469 C-34.89659306 64.21996691 -35.52614104 66.33241057 -36.13696289 68.45019531 C-41.54563881 86.59833937 -53.98129329 97.92212402 -70 107 C-79.95511103 112.26732265 -89.14879556 114.36221249 -100.375 114.4375 C-101.26316406 114.47037109 -102.15132812 114.50324219 -103.06640625 114.53710938 C-105.48654398 114.55724668 -107.63816686 114.53126666 -110 114 C-112.1015625 111.47265625 -112.1015625 111.47265625 -113 109 C-112.10023437 108.93683594 -111.20046875 108.87367188 -110.2734375 108.80859375 C-89.63970684 106.84446107 -71.30255078 100.63120884 -56.38671875 85.91796875 C-50.12057462 78.25706914 -46.49971722 69.78869658 -43.125 60.5625 C-42.2544224 58.25452167 -41.38201193 55.94723391 -40.5078125 53.640625 C-40.08274414 52.51333984 -39.65767578 51.38605469 -39.21972656 50.22460938 C-34.10453829 36.70150956 -28.66836718 24.6387467 -20 13 C-19.39285156 12.16597656 -18.78570312 11.33195312 -18.16015625 10.47265625 C-13.75632407 4.90828477 -7.35177249 0 0 0 Z " fill="#000000" transform="translate(128,23)"/>
<path d="M0 0 C7.0386013 0.36095391 12.25141908 4.17770235 17.0390625 9.09375 C19.17346994 11.6448346 21.09916814 14.27031705 23 17 C23.68578125 17.96550781 24.3715625 18.93101563 25.078125 19.92578125 C33.91282199 33.44795237 39.02016489 49.03716529 44.78259277 64.03713989 C45.56618619 66.07024958 46.35837537 68.09982911 47.15234375 70.12890625 C47.61761475 71.32845947 48.08288574 72.5280127 48.56225586 73.76391602 C50.67648322 78.52263289 53.48036428 82.20387485 57 86 C57.92619141 87.04414063 57.92619141 87.04414063 58.87109375 88.109375 C72.48550468 102.68254727 93.6814813 107.64382892 113 109 C112.34 110.65 111.68 112.3 111 114 C88.10622575 114.85204428 70.63389033 110.69809448 53 95 C52.27941406 94.36191406 51.55882812 93.72382812 50.81640625 93.06640625 C42.46083564 85.21627659 38.38535833 76.24562306 35.25 65.375 C26.94453829 35.22542336 26.94453829 35.22542336 7.6875 11.8125 C6.47544025 11.17470755 5.24612707 10.56836202 4 10 C2.66619981 9.33426786 1.33274441 8.66784322 0 8 C0 5.36 0 2.72 0 0 Z " fill="#000000" transform="translate(262,23)"/>
</svg>
