<?xml version="1.0" encoding="UTF-8"?>
<svg version="1.1" xmlns="http://www.w3.org/2000/svg" width="20" height="135">
<path d="M0 0 C1.32 0 2.64 0 4 0 C9.69470344 11.69448027 14.14030996 21.79383218 12 35 C10.90672544 37.88267496 9.52141295 40.30071897 8 43 C8.27419996 45.341019 8.62006947 47.67379959 9 50 C9.57011145 59.38220441 9.98688043 68.80910742 6.6796875 77.70703125 C4.41548502 85.34546146 5.86097315 91.93718959 9 99 C9.4046366 102.3719717 9.59756697 105.64893818 9 109 C8.50733643 109.43578369 8.01467285 109.87156738 7.50708008 110.32055664 C5.46539364 112.59574877 5.57571789 114.08016094 5.48828125 117.10546875 C5.45283203 118.08837891 5.41738281 119.07128906 5.38085938 120.08398438 C5.34702148 121.62022461 5.34702148 121.62022461 5.3125 123.1875 C5.27833984 124.22326172 5.24417969 125.25902344 5.20898438 126.32617188 C5.12647358 128.8840066 5.05733428 131.44149723 5 134 C3.02 134 1.04 134 -1 134 C-0.97905273 133.38479492 -0.95810547 132.76958984 -0.93652344 132.13574219 C-0.85322983 129.34066191 -0.80129987 126.54584285 -0.75 123.75 C-0.71648438 122.78191406 -0.68296875 121.81382813 -0.6484375 120.81640625 C-0.39470024 115.26716367 -0.39470024 115.26716367 -2.98828125 110.62109375 C-3.98408203 109.81865234 -3.98408203 109.81865234 -5 109 C-6.08688951 104.04481083 -5.24423195 99.19857697 -3.5 94.5 C-1.1175779 88.0447706 -1.11972164 82.0744209 -3.5 75.625 C-6.59880538 66.44551992 -5.77686847 55.02475467 -4.3984375 45.52734375 C-3.64730298 42.06295922 -3.64730298 42.06295922 -5.375 39.6875 C-5.91125 39.130625 -6.4475 38.57375 -7 38 C-11.56293137 24.3112059 -5.93017972 12.17804763 0 0 Z M1 21 C-1.40007799 25.20013649 -2.61962951 28.14623551 -2 33 C-0.61114752 35.81780534 -0.61114752 35.81780534 1 38 C4.02294792 37.32226864 4.02294792 37.32226864 5.1875 35.3125 C6.73733151 30.9014411 6.39013437 27.87780233 4.5 23.625 C3.7575 22.325625 3.7575 22.325625 3 21 C2.34 21 1.68 21 1 21 Z M1 51 C-0.49944026 56.99776106 -0.49944026 63.00223894 1 69 C1.66 69 2.32 69 3 69 C4.49944026 63.00223894 4.49944026 56.99776106 3 51 C2.34 51 1.68 51 1 51 Z " fill="#000000" transform="translate(8,0)"/>
</svg>
