<?xml version="1.0" standalone="no"?>
<!DOCTYPE svg PUBLIC "-//W3C//DTD SVG 20010904//EN"
 "http://www.w3.org/TR/2001/REC-SVG-20010904/DTD/svg10.dtd">
<svg version="1.0" xmlns="http://www.w3.org/2000/svg"
 width="500.000000pt" height="500.000000pt" viewBox="0 0 500.000000 500.000000"
 preserveAspectRatio="xMidYMid meet">

<g transform="translate(0.000000,500.000000) scale(0.100000,-0.100000)"
fill="#000000" stroke="none">
<path d="M2466 4488 c-55 -86 -1079 -1755 -1083 -1765 -10 -26 1094 -2238
1117 -2238 10 0 133 237 360 690 450 900 760 1527 760 1540 0 6 -247 410 -548
900 -422 685 -553 891 -569 893 -14 2 -27 -5 -37 -20z m63 -524 c17 -56 31
-106 31 -112 0 -6 -15 -28 -34 -48 -28 -30 -33 -42 -25 -56 7 -13 17 -16 33
-12 26 6 28 3 41 -63 6 -29 4 -33 -14 -33 -18 0 -21 -6 -21 -44 0 -25 -4 -48
-10 -51 -6 -4 -10 -95 -10 -239 0 -258 1 -264 69 -359 19 -26 35 -47 36 -47 1
0 20 17 43 38 23 22 60 44 82 51 29 9 40 17 40 32 0 11 -4 18 -9 15 -18 -11
-21 27 -4 40 25 19 2 17 -25 -2 -29 -20 -34 -15 -26 25 5 24 15 35 40 46 20 8
40 28 52 52 l20 38 -70 138 c-38 77 -67 141 -65 143 3 3 40 -50 83 -117 44
-67 82 -126 85 -131 3 -5 13 -6 23 -2 15 6 13 11 -15 40 -18 19 -30 36 -26 40
14 14 91 -9 116 -36 37 -39 116 -107 107 -92 -12 20 32 14 54 -8 22 -22 28
-49 8 -32 -7 5 -23 13 -36 16 -21 7 -21 6 -11 -18 7 -14 17 -26 22 -26 16 0
47 -31 47 -47 0 -8 -4 -11 -10 -8 -14 9 -12 -2 6 -30 17 -27 16 -66 -3 -73 -9
-2 -13 9 -14 35 -1 37 -1 38 -9 8 -4 -16 -8 -41 -9 -55 0 -20 1 -22 9 -10 8
12 10 11 10 -7 0 -16 6 -23 19 -23 32 0 35 -19 5 -30 -21 -9 -31 -8 -42 4 -14
13 -20 10 -60 -34 -25 -27 -69 -66 -98 -86 -30 -20 -56 -45 -59 -55 -10 -31
21 -74 100 -140 87 -72 121 -128 131 -212 l6 -54 -51 -37 c-52 -39 -90 -92
-74 -106 4 -4 29 -15 56 -25 60 -23 99 -58 95 -88 -2 -13 -22 -34 -52 -54 -27
-18 -76 -60 -108 -94 -32 -34 -58 -57 -58 -50 0 6 -4 11 -10 11 -5 0 -10 -9
-10 -20 0 -12 -18 -40 -40 -63 l-39 -42 -2 45 -1 45 -11 -42 c-12 -53 -32 -58
-22 -5 14 77 35 104 116 147 103 56 139 83 139 105 0 27 -30 40 -92 40 -32 0
-62 6 -75 15 -21 15 -23 14 -29 -9 -6 -26 -31 -53 -40 -43 -3 3 0 13 6 24 9
14 7 29 -9 71 -18 45 -19 59 -10 102 6 27 24 68 41 91 17 23 34 55 39 71 7 26
3 33 -32 67 -25 25 -65 48 -110 65 -66 25 -72 25 -84 9 -11 -15 -14 -12 -24
20 -11 32 -15 35 -31 25 -16 -10 -16 -13 -3 -26 26 -27 46 -62 38 -70 -4 -4
-10 -1 -12 6 -3 6 -12 12 -22 12 -9 0 -23 6 -30 12 -8 8 -7 0 4 -21 12 -24 14
-36 6 -44 -8 -8 -11 -6 -11 5 0 11 -6 15 -19 11 -16 -4 -22 2 -28 28 -8 29
-12 32 -47 32 -21 0 -42 -6 -48 -14 -7 -11 -11 -11 -15 -1 -2 7 -12 20 -21 29
-16 16 -17 15 -20 -11 -3 -21 -8 -26 -20 -21 -13 5 -13 2 2 -14 17 -19 17 -21
2 -27 -20 -8 -16 -11 -51 45 -26 43 -27 49 -23 145 4 75 11 114 28 154 29 67
45 70 114 21 l41 -30 3 347 c1 225 -1 351 -8 358 -5 5 -10 31 -10 57 l0 47
-55 7 c-34 4 -55 11 -55 19 0 7 32 53 70 102 l71 89 -6 60 c-3 33 -8 85 -11
115 -9 79 8 55 45 -66z m-585 -616 c5 -4 17 -3 25 2 9 4 33 11 55 14 32 5 42
2 64 -19 16 -17 36 -25 58 -25 33 0 45 -12 24 -25 -5 -3 -7 -19 -4 -34 5 -24
2 -31 -24 -44 -18 -8 -34 -11 -39 -6 -5 5 -21 -4 -39 -22 -22 -25 -25 -30 -9
-24 42 17 76 17 124 -1 43 -15 52 -16 67 -3 15 12 17 12 13 0 -11 -31 -37 -37
-86 -19 -43 16 -49 16 -82 1 -34 -16 -35 -17 -12 -21 15 -2 29 2 37 12 15 21
55 5 70 -27 6 -16 17 -21 37 -20 15 1 27 -2 27 -6 0 -18 -29 -30 -112 -47 -84
-18 -87 -18 -107 0 -21 19 -21 19 -21 -8 0 -39 -22 -28 -35 18 -8 27 -13 34
-22 25 -20 -20 -35 0 -18 24 20 28 20 58 0 51 -10 -4 -14 -1 -12 7 2 8 2 11 0
7 -8 -14 -51 -8 -68 8 -22 23 -15 56 15 71 17 9 20 13 8 13 -24 0 -48 -27 -48
-55 0 -28 31 -52 77 -61 38 -7 39 -11 17 -43 -14 -19 -14 -25 -3 -32 8 -5 19
-9 24 -9 6 -1 19 -15 30 -32 25 -39 45 -47 45 -18 0 17 4 20 20 15 11 -4 54
-1 94 6 86 13 113 9 154 -26 17 -14 35 -25 42 -25 7 0 1 9 -14 21 -54 43 -53
54 11 123 32 34 77 98 100 141 l41 79 5 -75 c10 -126 5 -208 -11 -202 -11 5
-12 -3 -7 -38 4 -31 2 -50 -8 -63 -13 -18 -15 -17 -25 12 -6 18 -13 32 -16 32
-3 0 -1 -11 4 -25 10 -25 4 -55 -10 -55 -4 0 -11 11 -14 24 -8 33 -29 38 -43
10 -10 -21 -9 -24 7 -24 27 0 36 -20 12 -27 -36 -9 -81 -149 -82 -249 0 -31
-5 -56 -14 -63 -7 -6 -17 -26 -20 -44 -5 -23 -9 -28 -15 -18 -11 17 -76 7
-118 -19 -54 -33 -53 -65 8 -191 l53 -109 -19 -52 c-18 -51 -18 -51 3 -68 23
-19 19 -30 -9 -30 -12 0 -16 -5 -13 -14 9 -25 -18 -30 -37 -8 -34 43 -149 12
-149 -41 0 -47 86 -137 132 -137 18 0 54 -38 62 -67 7 -20 5 -21 -24 -13 -17
5 -40 19 -50 32 -11 13 -19 19 -20 14 0 -5 6 -17 14 -25 19 -22 32 -101 16
-101 -6 0 -8 4 -5 10 3 5 -2 10 -11 10 -10 0 -26 7 -36 17 -17 15 -18 15 -18
-10 0 -15 -4 -27 -10 -27 -5 0 -10 5 -10 10 0 6 -7 10 -15 10 -11 0 -15 12
-15 45 0 32 -10 62 -36 109 -31 56 -40 66 -70 72 -40 7 -46 24 -8 24 25 0 25
0 -10 34 -35 32 -46 56 -27 56 6 0 13 -5 16 -11 9 -14 41 16 71 67 36 62 41
126 14 199 -37 100 -37 98 19 208 47 92 52 106 45 144 -6 40 -8 42 -32 36 -22
-5 -24 -4 -17 13 4 10 10 35 11 54 2 19 1 28 -2 20 -11 -25 -36 -40 -71 -40
-38 0 -40 3 -14 37 16 19 18 30 10 49 -5 14 -9 37 -9 51 0 25 0 26 -20 8 -11
-10 -20 -24 -20 -32 0 -7 -4 -13 -10 -13 -18 0 -31 41 -28 88 2 38 8 49 28 59
26 13 38 34 39 70 1 20 -2 21 -22 12 -16 -7 -31 -7 -51 1 l-29 11 22 22 c11
13 21 30 21 38 0 65 66 159 111 159 16 0 18 5 13 25 -3 14 -3 33 1 42 6 17 7
16 17 -2 6 -11 16 -23 22 -27z m616 23 c0 -12 -20 -25 -27 -18 -7 7 6 27 18
27 5 0 9 -4 9 -9z m466 -36 c5 -18 13 -25 31 -25 32 0 101 -58 79 -66 -8 -3
-24 0 -36 6 -11 6 -28 9 -38 6 -10 -3 -29 5 -44 19 -23 19 -27 29 -22 54 8 37
21 40 30 6z m-433 -14 c13 -2 7 -21 -7 -21 -21 0 -28 -31 -11 -50 21 -23 19
-33 -4 -21 -10 6 -21 7 -25 4 -3 -3 -6 16 -6 44 0 52 1 53 53 44z m675 -143
c7 -7 12 -21 12 -32 0 -19 0 -19 -14 -1 -8 11 -19 16 -29 12 -27 -10 -1 -52
46 -73 52 -24 77 -65 77 -127 0 -40 -5 -54 -29 -77 -22 -22 -27 -35 -23 -57 5
-26 4 -27 -12 -10 -20 20 -76 23 -94 5 -17 -17 -15 -68 6 -104 9 -17 35 -59
58 -92 l41 -60 26 26 c20 20 30 23 38 15 9 -9 6 -18 -10 -39 -13 -17 -21 -41
-21 -67 0 -58 -58 -159 -105 -181 -43 -21 -75 -14 -68 14 3 12 14 20 25 20 26
0 78 56 78 84 0 49 -31 122 -85 201 -32 46 -60 98 -64 116 -5 28 -12 35 -36
39 -25 5 -27 7 -12 13 10 4 27 7 38 7 11 0 27 15 41 40 13 22 35 45 51 51 38
16 76 64 70 87 -2 11 -22 40 -43 65 -43 53 -55 89 -40 117 12 23 59 27 78 8z
m-788 -272 c0 -16 -2 -17 -17 -5 -15 13 -15 12 -4 -9 17 -31 6 -40 -19 -17
-25 23 -25 29 2 55 24 22 38 13 38 -24z m629 -60 c-24 -11 -44 5 -35 29 5 15
8 14 30 -2 24 -17 24 -18 5 -27z m-1349 -76 c28 -8 47 -20 59 -42 22 -34 35
-109 26 -138 -9 -27 -41 -43 -68 -34 -21 7 -20 8 8 13 25 5 30 11 33 40 3 31
2 33 -20 28 -29 -8 -39 -1 -64 41 -16 27 -23 32 -44 27 -14 -4 -28 -13 -33
-20 -4 -7 -21 -16 -37 -20 -26 -6 -28 -8 -15 -21 13 -14 13 -19 -1 -46 -15
-28 -14 -31 5 -45 12 -8 21 -25 21 -39 0 -36 18 -64 40 -64 12 0 28 -13 38
-30 13 -20 22 -26 29 -19 5 5 30 11 54 12 41 2 45 0 61 -33 30 -62 28 -72 -16
-77 -30 -3 -44 1 -63 19 -20 19 -27 20 -44 10 -28 -18 -80 13 -94 54 -5 17
-15 29 -21 27 -7 -2 -22 9 -34 24 -16 21 -20 37 -17 60 5 26 1 35 -14 43 -24
13 -24 41 0 89 11 21 17 48 14 59 -4 17 2 26 25 39 17 10 33 25 35 35 3 10 18
18 38 21 36 4 36 4 99 -13z m763 -547 c4 -174 7 -408 7 -519 0 -124 4 -205 10
-209 19 -11 11 -53 -11 -60 -36 -12 -69 3 -69 30 0 13 5 27 10 30 6 4 10 170
10 464 0 477 4 581 25 581 9 0 13 -81 18 -317z m314 268 c45 -28 50 -55 18
-97 -42 -55 -68 -140 -61 -196 8 -58 -2 -79 -50 -107 -20 -12 -38 -30 -41 -41
-6 -21 -23 -28 -23 -9 0 5 -4 7 -10 4 -5 -3 -10 -14 -10 -23 0 -9 -9 -28 -20
-42 l-20 -25 0 29 c0 39 -12 26 -19 -21 -8 -49 -35 -52 -39 -4 -4 40 21 112
46 134 9 8 35 20 57 27 46 14 85 46 85 70 0 9 -11 49 -25 88 -14 39 -25 78
-25 85 0 8 -11 19 -25 25 -15 7 -25 20 -25 32 0 17 3 18 19 9 16 -11 24 -6 63
34 24 26 51 47 59 47 8 0 28 -9 46 -19z m-523 -122 c46 -41 64 -47 84 -27 9 9
12 8 12 -4 0 -8 -7 -21 -15 -28 -20 -17 -19 -27 5 -35 12 -4 20 -15 20 -27 0
-20 -1 -20 -18 -5 -10 10 -23 17 -28 17 -12 0 -70 -134 -79 -181 -12 -63 44
-116 82 -78 14 14 67 3 85 -18 11 -14 10 -15 -10 -9 -26 8 -30 -8 -8 -33 7 -9
17 -26 20 -37 6 -20 4 -21 -34 -14 -22 4 -48 13 -57 21 -10 7 -3 -3 15 -22 33
-36 47 -73 18 -50 -8 7 -20 11 -28 10 -30 -4 -40 3 -57 44 -11 24 -43 65 -77
96 -50 46 -56 55 -46 72 16 25 15 27 -10 31 -29 4 -34 30 -14 73 21 44 21 47
-13 108 -38 67 -74 164 -68 181 9 23 169 -39 221 -85z"/>
<path d="M2882 3188 c-16 -16 -15 -28 3 -28 8 0 14 3 14 8 -3 20 2 23 18 11
14 -12 16 -12 11 1 -6 20 -30 24 -46 8z"/>
<path d="M2828 3083 c-8 -10 -18 -33 -20 -51 -4 -29 -2 -32 16 -26 60 18 111
50 111 69 0 17 -8 20 -46 23 -33 2 -49 -2 -61 -15z"/>
<path d="M2520 2893 c0 -91 0 -92 31 -114 26 -18 33 -19 40 -8 15 24 10 44
-31 130 l-39 84 -1 -92z"/>
<path d="M2356 2748 c-23 -64 -24 -73 -11 -88 20 -22 19 -40 -2 -40 -12 0 -9
-5 11 -15 35 -19 42 -19 27 -2 -6 8 -8 16 -5 19 3 4 -1 19 -10 35 -12 24 -13
38 -4 71 6 23 14 42 18 42 4 0 15 -18 25 -41 15 -32 30 -47 72 -67 49 -24 54
-25 84 -11 l31 15 -36 27 -36 28 0 -30 c0 -21 -5 -31 -15 -31 -11 0 -15 12
-15 44 0 41 -3 46 -50 80 -28 20 -52 36 -54 36 -2 0 -15 -32 -30 -72z"/>
<path d="M2657 2630 c3 -11 9 -20 15 -20 5 0 4 9 -2 20 -6 11 -12 20 -14 20
-2 0 -2 -9 1 -20z"/>
<path d="M1968 3299 l-33 -31 36 21 c20 12 44 21 53 21 10 0 14 5 11 10 -11
18 -34 11 -67 -21z"/>
<path d="M1991 3268 c-7 -20 -5 -23 16 -26 27 -4 53 13 53 34 0 9 -11 14 -30
14 -23 0 -33 -6 -39 -22z m39 -4 c0 -8 -4 -12 -10 -9 -5 3 -10 10 -10 16 0 5
5 9 10 9 6 0 10 -7 10 -16z"/>
<path d="M1870 3206 c0 -2 11 -6 25 -8 14 -3 25 -1 25 3 0 5 -11 9 -25 9 -14
0 -25 -2 -25 -4z"/>
<path d="M1337 2653 c-3 -4 -302 -491 -666 -1081 -364 -591 -661 -1078 -661
-1083 0 -5 496 -9 1205 -9 671 0 1205 4 1205 9 0 4 -59 127 -131 272 -72 145
-311 629 -531 1074 -219 446 -403 814 -407 818 -5 5 -11 5 -14 0z m256 -637
c43 -18 44 -34 3 -54 -23 -11 -34 -11 -79 4 -29 10 -78 18 -110 19 -74 3 -93
19 -46 40 43 20 177 15 232 -9z m-282 -19 c20 -15 46 -27 59 -27 40 0 144 -31
187 -56 23 -13 64 -45 90 -72 51 -48 143 -169 143 -185 0 -17 -74 2 -145 37
-38 19 -97 57 -130 85 -33 27 -61 48 -63 47 -1 -2 5 -20 15 -42 14 -32 17 -67
15 -193 -2 -184 3 -200 103 -311 75 -84 101 -131 110 -206 8 -59 -11 -112 -52
-144 -28 -22 -73 -85 -73 -103 0 -6 18 -30 41 -53 49 -50 48 -55 -45 -142 -49
-45 -80 -65 -118 -77 -61 -18 -149 -20 -166 -3 -19 19 5 38 48 38 48 0 95 16
148 52 34 24 42 35 42 60 0 17 -7 40 -16 50 -16 17 -18 17 -41 -8 -29 -31 -49
-27 -45 9 4 32 2 33 -40 8 -38 -24 -61 -16 -28 9 l23 17 -32 63 c-17 35 -31
77 -31 94 0 34 28 101 60 146 43 61 13 115 -97 173 -38 19 -79 47 -93 62 -18
19 -30 24 -51 20 -24 -5 -31 2 -99 107 -41 62 -82 136 -92 163 -11 28 -26 65
-35 84 -19 43 -27 102 -15 120 15 21 29 6 36 -39 7 -45 84 -206 123 -258 28
-37 45 -34 37 8 -11 52 23 128 82 184 30 28 54 54 54 58 0 4 -16 8 -35 8 -24
0 -45 9 -68 30 -19 17 -41 30 -49 30 -20 0 -58 29 -58 45 0 7 12 18 28 24 l27
11 -27 -5 c-55 -11 -25 51 41 85 45 23 76 29 136 27 48 -2 68 -8 96 -30z
m-479 -481 c83 -58 145 -88 166 -82 12 4 26 -9 50 -44 17 -27 32 -52 32 -55 0
-15 -42 1 -95 35 -33 21 -89 57 -125 78 -73 45 -115 85 -105 101 9 15 7 16 77
-33z m1002 -287 l28 -22 28 21 c35 27 43 19 25 -25 -16 -39 -13 -53 13 -53 9
0 23 -4 31 -9 11 -7 9 -12 -10 -22 -13 -7 -40 -16 -59 -20 -31 -6 -33 -8 -12
-14 41 -14 22 -25 -40 -24 -99 2 -108 7 -131 71 -23 64 -17 80 38 104 42 18
58 17 89 -7z m-464 -86 c0 -9 -13 -39 -29 -67 -16 -28 -34 -71 -41 -96 -6 -25
-16 -59 -22 -76 -10 -27 -8 -37 11 -69 12 -21 20 -44 17 -50 -2 -7 -30 -24
-60 -38 -31 -14 -81 -44 -113 -66 -60 -44 -119 -55 -142 -27 -15 18 0 30 69
50 63 18 130 73 130 107 0 12 -9 37 -21 55 -19 32 -23 34 -60 28 -42 -7 -47 0
-24 30 21 27 19 32 -15 46 -32 13 -42 35 -11 25 21 -6 34 7 49 53 26 76 74
114 156 123 34 4 62 13 65 20 5 16 41 -26 41 -48z"/>
<path d="M1167 1952 c-22 -24 -21 -41 1 -58 27 -21 69 -17 87 9 15 21 14 23
-10 45 -32 27 -56 28 -78 4z m53 -28 c0 -17 -22 -14 -28 4 -2 7 3 12 12 12 9
0 16 -7 16 -16z"/>
<path d="M1163 1630 c-32 -19 -70 -66 -61 -75 3 -3 11 6 18 20 20 37 75 68
106 61 17 -5 23 -3 19 4 -10 16 -47 12 -82 -10z"/>
<path d="M3442 2239 c-115 -233 -356 -721 -535 -1085 -180 -364 -327 -664
-327 -667 0 -4 542 -7 1205 -7 727 0 1205 4 1205 9 0 10 -1315 2149 -1330
2165 -6 6 -94 -162 -218 -415z m112 -320 c34 -41 33 -80 -5 -152 -35 -67 -33
-95 8 -139 22 -23 24 -30 13 -43 -7 -8 -23 -15 -36 -15 -13 0 -24 -3 -24 -7 0
-10 42 -53 52 -53 5 0 -4 11 -19 26 l-28 25 30 -6 c27 -5 36 1 84 51 43 45 52
61 48 82 -3 17 2 35 14 51 16 20 17 25 4 35 -8 6 -19 24 -25 40 -13 36 -2 46
52 46 53 0 90 -34 97 -91 5 -35 10 -44 26 -44 26 0 24 -17 -4 -30 -22 -10 -28
-25 -10 -25 6 0 8 -9 4 -20 -10 -33 4 -77 36 -111 28 -30 28 -32 12 -45 -25
-19 -2 -17 25 2 26 18 30 47 6 37 -11 -4 -23 2 -35 18 -25 32 -24 48 5 78 38
42 40 71 6 135 -43 80 -37 148 15 176 39 21 58 9 91 -60 35 -72 76 -100 114
-80 36 19 23 -21 -19 -59 l-39 -35 55 -63 c46 -52 63 -64 95 -69 40 -7 40 -7
20 -27 -11 -11 -34 -20 -51 -21 -17 -1 -31 -4 -31 -7 0 -17 26 -78 47 -110 30
-46 121 -109 157 -109 37 0 30 -20 -17 -45 -31 -17 -41 -18 -79 -8 -23 6 -45
10 -47 7 -8 -8 44 -108 72 -135 15 -16 44 -31 63 -35 43 -8 40 -23 -9 -48 -51
-25 -92 -16 -172 39 -36 25 -65 42 -65 38 0 -11 52 -96 92 -150 79 -108 150
-161 247 -186 l54 -14 -30 -21 c-100 -71 -241 -15 -416 165 -104 107 -146 160
-171 213 l-21 45 -3 -68 c-2 -53 2 -78 18 -111 11 -23 20 -62 20 -87 0 -24 4
-58 9 -75 8 -28 6 -33 -15 -43 -34 -15 -34 -15 -34 25 0 30 -3 34 -19 29 -16
-5 -18 0 -17 35 1 47 -17 68 -67 80 -64 14 -118 -36 -103 -97 6 -21 4 -24 -14
-18 -18 6 -20 2 -20 -29 0 -41 0 -40 -35 -24 -18 8 -24 17 -19 27 3 9 8 43 11
76 3 33 14 78 24 101 27 57 26 223 0 314 -11 36 -20 55 -20 44 -1 -12 6 -41
14 -64 21 -59 19 -123 -6 -171 -21 -42 -155 -197 -222 -257 -147 -134 -272
-172 -360 -110 l-30 22 61 16 c95 26 152 70 237 180 42 55 95 141 95 153 0 4
-31 -13 -68 -38 -81 -54 -123 -63 -171 -38 -47 24 -49 39 -8 47 44 8 79 41
111 104 35 70 35 85 -1 66 -38 -19 -72 -18 -110 6 -39 23 -42 40 -10 40 13 0
51 18 85 39 51 34 65 49 91 104 34 72 38 89 17 81 -16 -6 -86 23 -86 36 0 4
17 10 38 14 31 4 49 18 94 69 l56 63 -39 35 c-42 38 -55 78 -20 60 38 -21 80
6 107 67 13 30 29 61 35 69 19 22 56 15 83 -18z m116 -135 c0 -2 -8 -4 -18 -4
-10 0 -28 -7 -41 -17 -24 -16 -24 -16 -17 13 4 16 17 39 29 52 l21 22 13 -31
c7 -17 13 -33 13 -35z m0 -58 c-13 -17 -50 -22 -50 -7 0 5 12 14 28 19 22 9
24 11 6 11 -11 1 -29 -8 -39 -19 -17 -19 -55 -28 -55 -12 0 4 21 17 48 29 40
19 49 20 61 8 12 -11 12 -17 1 -29z m110 -813 c20 -26 21 -37 6 -74 -5 -11 -1
-18 13 -22 16 -4 21 -13 21 -40 0 -79 65 -193 128 -227 l37 -19 -37 -1 c-72 0
-175 55 -207 111 -9 16 -18 29 -21 29 -3 -1 -17 -18 -31 -39 -34 -49 -134
-101 -193 -101 l-41 0 42 25 c66 40 123 148 123 233 0 26 4 32 21 32 16 0 19
4 14 18 -16 38 -15 49 5 75 17 21 30 27 60 27 30 0 43 -6 60 -27z m-250 -81
c-6 -23 -21 -47 -35 -56 -20 -13 -23 -22 -18 -46 4 -23 -1 -40 -21 -70 -14
-22 -29 -40 -32 -40 -3 0 -2 5 1 11 4 5 8 20 9 32 2 12 6 32 10 45 5 16 3 24
-10 29 -22 8 -64 -38 -64 -70 0 -13 -9 -30 -20 -40 -12 -10 -18 -22 -15 -27 3
-6 1 -10 -6 -10 -11 0 -10 18 7 85 l7 27 -42 -23 c-24 -14 -41 -31 -41 -42 0
-10 -4 -15 -10 -12 -36 22 31 106 99 125 31 8 40 14 31 20 -8 5 -22 4 -32 -1
-10 -5 -18 -6 -18 -2 0 4 -5 1 -11 -7 -8 -13 -10 -12 -7 3 2 10 16 26 31 35
26 16 29 16 57 0 l30 -17 52 71 c48 63 53 68 56 45 2 -14 -2 -43 -8 -65z m425
21 c27 -38 50 -70 51 -72 2 -1 13 4 26 13 12 9 29 16 38 16 20 -1 60 -35 60
-52 0 -10 -3 -9 -10 2 -5 8 -10 11 -10 7 0 -4 -8 -3 -18 2 -11 6 -24 6 -32 1
-16 -10 -19 -8 52 -30 55 -17 104 -88 79 -113 -8 -8 -11 -5 -11 11 0 12 -5 22
-11 22 -6 0 -22 9 -36 20 -15 11 -28 18 -30 16 -2 -2 1 -23 7 -46 8 -30 8 -46
1 -53 -8 -8 -11 -5 -11 10 0 11 -7 23 -15 27 -8 3 -15 17 -15 31 0 29 -44 79
-63 72 -7 -2 -11 -13 -10 -23 4 -40 11 -73 18 -83 3 -6 4 -11 1 -11 -3 0 -18
18 -32 40 -19 28 -25 47 -21 67 5 23 0 33 -24 53 -25 21 -31 35 -36 83 -3 31
-4 57 -1 57 2 0 26 -30 53 -67z"/>
<path d="M3711 1799 c17 -11 39 -12 39 -1 0 4 -12 8 -27 9 -19 1 -22 -1 -12
-8z"/>
<path d="M3563 1484 c-12 -13 -18 -24 -13 -24 11 0 40 29 40 41 0 12 -1 11
-27 -17z"/>
<path d="M3725 1500 c-4 -6 -16 -8 -28 -4 -19 6 -20 5 -8 -10 17 -20 40 -21
48 -1 7 19 -2 31 -12 15z"/>
<path d="M3558 1433 c6 -2 18 -2 25 0 6 3 1 5 -13 5 -14 0 -19 -2 -12 -5z"/>
<path d="M3711 1409 c12 -23 25 -24 33 -3 3 9 6 16 6 17 0 1 -11 3 -25 3 -21
2 -23 -1 -14 -17z"/>
<path d="M3780 1420 c1 -33 16 -41 36 -19 15 18 16 21 3 16 -9 -3 -22 0 -28 6
-8 8 -11 7 -11 -3z"/>
<path d="M3620 1410 c1 -15 30 -41 39 -35 22 13 12 40 -14 40 -14 0 -25 -2
-25 -5z"/>
<path d="M3730 1341 c0 -5 7 -14 15 -21 15 -12 35 -6 35 11 0 6 -4 8 -9 4 -5
-3 -12 -1 -16 5 -8 12 -25 13 -25 1z"/>
<path d="M3866 1278 c-10 -42 -16 -85 -13 -95 3 -13 5 -11 6 7 0 14 8 52 16
85 9 32 14 63 12 69 -2 6 -12 -24 -21 -66z"/>
<path d="M3667 1323 c7 -17 18 -16 32 1 10 11 7 14 -12 12 -15 0 -23 -6 -20
-13z"/>
</g>
</svg>
